if (_typeface_js && _typeface_js.loadFace) _typeface_js.loadFace({"glyphs":{"0":{"ha":772,"x_min":55,"x_max":715,"o":"m 715 478 q 632 111 715 236 q 383 -14 549 -14 q 55 478 55 -14 q 91 758 55 650 q 199 918 127 867 q 389 970 271 970 q 637 847 558 970 q 715 478 715 724 m 524 478 q 511 684 524 610 q 470 789 498 757 q 387 821 441 821 q 300 788 330 821 q 258 683 271 756 q 245 478 245 610 q 259 274 245 347 q 301 168 272 200 q 385 136 330 136 q 468 170 439 136 q 511 277 498 203 q 524 478 524 351 z "},"1":{"ha":772,"x_min":87,"x_max":734,"o":"m 87 0 l 87 142 l 324 142 l 324 793 l 95 650 l 95 800 l 334 956 l 515 956 l 515 142 l 734 142 l 734 0 l 87 0 z "},"2":{"ha":772,"x_min":48,"x_max":717,"o":"m 48 0 l 48 132 q 154 292 85 214 q 328 455 223 370 q 468 589 428 536 q 509 693 509 642 q 383 818 509 818 q 290 785 322 818 q 248 686 258 752 l 56 697 q 156 900 73 830 q 382 970 239 970 q 619 899 536 970 q 702 701 702 829 q 675 580 702 634 q 608 480 649 526 q 516 394 566 434 q 418 316 465 354 q 331 239 370 278 q 273 157 292 201 l 717 157 l 717 0 l 48 0 z "},"3":{"ha":772,"x_min":32,"x_max":722,"o":"m 722 265 q 634 58 722 131 q 383 -16 546 -16 q 138 55 229 -16 q 32 260 47 126 l 226 277 q 382 139 244 139 q 489 173 451 139 q 527 277 527 207 q 481 374 527 340 q 344 408 435 408 l 277 408 l 277 562 l 340 562 q 463 596 422 562 q 505 692 505 629 q 472 784 505 751 q 376 818 439 818 q 280 785 317 818 q 239 693 244 753 l 48 707 q 151 900 63 830 q 379 970 238 970 q 613 902 529 970 q 698 715 698 835 q 645 568 698 626 q 494 492 593 511 l 494 489 q 663 417 604 476 q 722 265 722 357 z "},"4":{"ha":772,"x_min":21,"x_max":765,"o":"m 637 195 l 637 0 l 456 0 l 456 195 l 21 195 l 21 338 l 425 956 l 637 956 l 637 336 l 765 336 l 765 195 l 637 195 m 456 649 q 458 728 456 686 q 462 783 460 771 q 398 673 444 745 l 176 336 l 456 336 l 456 649 z "},"5":{"ha":772,"x_min":43,"x_max":734,"o":"m 734 318 q 639 76 734 166 q 380 -14 545 -14 q 150 51 236 -14 q 43 239 63 116 l 233 254 q 286 165 248 193 q 382 138 324 138 q 495 183 453 138 q 538 314 538 229 q 498 434 538 389 q 386 479 458 479 q 256 418 307 479 l 71 418 l 104 956 l 678 956 l 678 814 l 277 814 l 261 572 q 434 633 330 633 q 652 549 570 633 q 734 318 734 464 z "},"6":{"ha":772,"x_min":51,"x_max":722,"o":"m 722 313 q 637 73 722 160 q 401 -14 551 -14 q 141 105 232 -14 q 51 456 51 223 q 143 841 51 711 q 406 970 235 970 q 597 916 527 970 q 696 750 667 863 l 517 725 q 401 819 491 819 q 281 743 325 819 q 237 510 237 666 q 322 588 268 561 q 445 615 376 615 q 648 534 573 615 q 722 313 722 452 m 531 307 q 493 432 531 389 q 390 475 456 475 q 289 434 327 475 q 251 328 251 394 q 291 190 251 244 q 395 135 330 135 q 495 181 459 135 q 531 307 531 227 z "},"7":{"ha":772,"x_min":60,"x_max":711,"o":"m 711 804 q 590 607 647 703 q 490 415 532 511 q 422 216 447 318 q 397 0 397 114 l 199 0 q 230 231 199 119 q 320 458 261 342 q 534 799 379 574 l 60 799 l 60 956 l 711 956 l 711 804 z "},"8":{"ha":772,"x_min":44,"x_max":730,"o":"m 730 269 q 641 61 730 135 q 387 -14 552 -14 q 134 60 224 -14 q 44 268 44 134 q 97 422 44 359 q 239 500 150 485 l 239 503 q 114 579 161 519 q 66 717 66 639 q 150 902 66 834 q 385 970 233 970 q 623 904 540 970 q 706 715 706 838 q 659 578 706 637 q 532 504 612 519 l 532 501 q 677 426 625 486 q 730 269 730 365 m 510 705 q 479 805 510 773 q 385 836 448 836 q 261 705 261 836 q 386 568 261 568 q 479 600 448 568 q 510 705 510 632 m 532 285 q 383 435 532 435 q 277 395 314 435 q 240 282 240 356 q 277 159 240 198 q 389 121 313 121 q 497 159 463 121 q 532 285 532 198 z "},"9":{"ha":772,"x_min":48,"x_max":721,"o":"m 721 493 q 628 113 721 239 q 364 -14 535 -14 q 166 40 238 -14 q 65 211 95 94 l 244 236 q 366 136 271 136 q 489 213 446 136 q 534 440 532 290 q 449 360 508 389 q 323 332 391 332 q 122 417 197 332 q 48 650 48 503 q 135 885 48 800 q 382 970 222 970 q 637 851 553 970 q 721 493 721 732 m 519 627 q 480 768 519 715 q 377 821 441 821 q 278 775 314 821 q 241 648 241 729 q 277 521 241 569 q 378 473 313 473 q 479 515 439 473 q 519 627 519 557 z "}," ":{"ha":386,"x_min":0,"x_max":0,"o":""},"!":{"ha":463,"x_min":131,"x_max":330,"o":"m 309 289 l 153 289 l 131 956 l 330 956 l 309 289 m 131 0 l 131 183 l 326 183 l 326 0 l 131 0 z "},"\"":{"ha":659,"x_min":92,"x_max":567,"o":"m 547 609 l 399 609 l 380 956 l 567 956 l 547 609 m 258 609 l 110 609 l 92 956 l 277 956 l 258 609 z "},"#":{"ha":772,"x_min":24,"x_max":750,"o":"m 616 585 l 570 359 l 715 359 l 715 258 l 549 258 l 493 0 l 387 0 l 441 258 l 233 258 l 179 0 l 75 0 l 129 258 l 24 258 l 24 359 l 151 359 l 199 585 l 58 585 l 58 685 l 220 685 l 277 946 l 380 946 l 325 685 l 533 685 l 590 946 l 696 946 l 639 685 l 750 685 l 750 585 l 616 585 m 304 585 l 256 359 l 465 359 l 513 585 l 304 585 z "},"$":{"ha":772,"x_min":18,"x_max":753,"o":"m 753 279 q 670 89 753 157 q 427 16 588 22 l 427 -103 l 353 -103 l 353 14 q 125 82 207 19 q 18 277 44 146 l 192 309 q 243 196 205 232 q 353 154 281 161 l 353 419 q 342 422 351 420 q 332 424 334 424 q 166 483 222 449 q 79 570 110 517 q 49 699 49 623 q 126 873 49 811 q 353 940 204 935 l 353 1031 l 427 1031 l 427 940 q 575 912 515 937 q 670 839 634 887 q 729 703 707 791 l 550 676 q 510 767 540 735 q 427 807 481 800 l 427 568 l 434 567 q 554 534 454 567 q 703 438 654 502 q 753 279 753 375 m 353 810 q 227 701 227 800 q 237 652 227 671 q 268 619 248 632 q 353 585 288 606 l 353 810 m 576 277 q 564 332 576 311 q 529 367 552 353 q 427 403 505 380 l 427 154 q 576 277 576 164 z "},"%":{"ha":1235,"x_min":35,"x_max":1198,"o":"m 1198 293 q 1137 67 1198 145 q 958 -11 1076 -11 q 779 66 839 -11 q 718 293 718 144 q 777 521 718 445 q 961 597 835 597 q 1141 520 1083 597 q 1198 293 1198 444 m 374 0 l 235 0 l 859 956 l 1000 956 l 374 0 m 277 966 q 457 890 398 966 q 515 663 515 813 q 454 436 515 515 q 273 358 393 358 q 95 436 155 358 q 35 663 35 513 q 93 891 35 817 q 277 966 151 966 m 1053 293 q 1032 447 1053 401 q 961 493 1011 493 q 886 446 907 493 q 865 293 865 399 q 887 140 865 184 q 960 96 909 96 q 1031 142 1009 96 q 1053 293 1053 188 m 368 663 q 348 815 368 769 q 277 861 327 861 q 201 815 222 861 q 180 663 180 770 q 202 510 180 555 q 275 464 224 464 q 347 510 326 464 q 368 663 368 556 z "},"&":{"ha":1003,"x_min":61,"x_max":960,"o":"m 61 261 q 116 424 61 353 q 290 551 171 496 q 240 741 240 653 q 307 904 240 846 q 496 961 373 961 q 676 907 610 961 q 742 760 742 852 q 715 665 742 707 q 641 587 689 623 q 476 497 592 551 q 642 269 543 378 q 749 515 712 376 l 890 468 q 760 183 844 310 q 880 134 818 134 q 960 144 924 134 l 960 7 q 871 -8 922 -8 q 754 13 812 -8 q 647 74 695 34 q 390 -14 532 -14 q 147 59 233 -14 q 61 261 61 131 m 590 758 q 564 821 590 797 q 494 846 538 846 q 415 817 442 846 q 387 739 387 787 q 424 608 387 680 q 526 660 495 639 q 573 705 557 681 q 590 758 590 728 m 534 167 q 350 422 422 292 q 233 264 233 368 q 277 156 233 197 q 397 115 321 115 q 477 132 441 115 q 534 167 513 148 z "},"'":{"ha":330,"x_min":74,"x_max":258,"o":"m 240 609 l 92 609 l 74 956 l 258 956 l 240 609 z "},"(":{"ha":463,"x_min":69,"x_max":461,"o":"m 271 -288 q 117 18 164 -135 q 69 360 69 170 q 117 702 69 549 q 271 1006 164 854 l 461 1006 q 306 699 354 852 q 257 359 257 545 q 305 22 257 174 q 461 -288 353 -130 l 271 -288 z "},")":{"ha":463,"x_min":1,"x_max":393,"o":"m 1 -288 q 158 22 110 -130 q 205 359 205 174 q 157 700 205 546 q 1 1006 108 853 l 192 1006 q 346 700 299 852 q 393 360 393 547 q 346 19 393 172 q 192 -288 299 -134 l 1 -288 z "},"*":{"ha":541,"x_min":4,"x_max":539,"o":"m 334 770 l 493 840 l 539 707 l 370 665 l 496 521 l 371 439 l 272 610 l 171 439 l 45 522 l 174 665 l 4 707 l 50 840 l 212 770 l 200 956 l 346 956 l 334 770 z "},"+":{"ha":811,"x_min":58,"x_max":755,"o":"m 482 386 l 482 109 l 329 109 l 329 386 l 58 386 l 58 538 l 329 538 l 329 814 l 482 814 l 482 538 l 755 538 l 755 386 l 482 386 z "},",":{"ha":386,"x_min":94,"x_max":293,"o":"m 293 45 q 276 -99 293 -37 q 220 -215 258 -161 l 94 -215 q 159 -109 134 -167 q 184 0 184 -52 l 97 0 l 97 207 l 293 207 l 293 45 z "},"-":{"ha":463,"x_min":54,"x_max":407,"o":"m 54 277 l 54 443 l 407 443 l 407 277 l 54 277 z "},".":{"ha":386,"x_min":94,"x_max":290,"o":"m 94 0 l 94 207 l 290 207 l 290 0 l 94 0 z "},"/":{"ha":386,"x_min":14,"x_max":372,"o":"m 14 -28 l 211 1006 l 372 1006 l 178 -28 l 14 -28 z "},":":{"ha":463,"x_min":134,"x_max":329,"o":"m 134 510 l 134 701 l 329 701 l 329 510 l 134 510 m 134 0 l 134 191 l 329 191 l 329 0 l 134 0 z "},";":{"ha":463,"x_min":132,"x_max":330,"o":"m 135 510 l 135 701 l 330 701 l 330 510 l 135 510 m 330 45 q 313 -99 330 -37 q 257 -215 296 -161 l 132 -215 q 199 -104 176 -160 q 222 0 222 -48 l 135 0 l 135 191 l 330 191 l 330 45 z "},"<":{"ha":811,"x_min":58,"x_max":755,"o":"m 58 350 l 58 568 l 755 833 l 755 679 l 190 458 l 755 239 l 755 85 l 58 350 z "},"=":{"ha":811,"x_min":58,"x_max":754,"o":"m 58 571 l 58 722 l 754 722 l 754 571 l 58 571 m 58 197 l 58 347 l 754 347 l 754 197 l 58 197 z "},">":{"ha":811,"x_min":58,"x_max":755,"o":"m 58 85 l 58 239 l 623 458 l 58 679 l 58 833 l 755 568 l 755 350 l 58 85 z "},"?":{"ha":848,"x_min":64,"x_max":768,"o":"m 768 696 q 739 578 768 630 q 629 468 709 526 l 577 431 q 508 363 531 397 q 484 289 486 330 l 302 289 q 341 412 307 358 q 444 514 376 467 q 547 603 517 564 q 576 688 576 641 q 537 782 576 747 q 427 817 498 817 q 312 777 358 817 q 257 671 265 736 l 64 679 q 177 893 82 817 q 424 970 272 970 q 676 897 585 970 q 768 696 768 824 m 297 0 l 297 183 l 493 183 l 493 0 l 297 0 z "},"@":{"ha":1354,"x_min":79,"x_max":1274,"o":"m 1274 492 q 1231 267 1274 368 q 1112 107 1187 165 q 947 50 1036 50 q 851 81 885 50 q 818 167 818 112 q 822 212 818 192 l 818 212 q 717 96 784 141 q 581 50 650 50 q 415 119 474 50 q 357 311 357 188 q 400 519 357 422 q 522 671 444 616 q 696 726 600 726 q 875 608 828 726 l 879 608 l 905 711 l 1011 711 l 932 368 q 907 205 907 252 q 923 157 907 172 q 960 143 939 143 q 1063 190 1014 143 q 1142 316 1113 237 q 1171 490 1171 395 q 1119 700 1171 609 q 969 841 1067 791 q 742 890 871 890 q 455 819 579 890 q 260 614 331 748 q 189 313 189 479 q 243 80 189 180 q 395 -71 297 -20 q 624 -122 492 -122 q 1023 -17 823 -122 l 1065 -100 q 843 -192 951 -164 q 619 -220 734 -220 q 337 -155 459 -220 q 148 32 216 -90 q 79 313 79 155 q 165 660 79 505 q 402 901 251 815 q 741 986 553 986 q 1026 925 905 986 q 1210 751 1147 863 q 1274 492 1274 640 m 835 489 q 794 594 835 553 q 690 635 754 635 q 576 592 627 635 q 497 472 526 550 q 469 313 469 395 q 502 191 469 235 q 603 146 535 146 q 690 174 648 146 q 766 257 732 203 q 817 379 799 311 q 835 489 835 448 z "},"A":{"ha":1003,"x_min":35,"x_max":966,"o":"m 768 0 l 684 244 l 319 244 l 235 0 l 35 0 l 383 956 l 619 956 l 966 0 l 768 0 m 501 808 l 497 793 q 481 738 490 769 q 364 395 471 707 l 639 395 l 545 669 l 515 762 l 501 808 z "},"B":{"ha":1003,"x_min":93,"x_max":940,"o":"m 940 273 q 842 71 940 142 q 571 0 745 0 l 93 0 l 93 956 l 530 956 q 795 895 705 956 q 885 715 885 834 q 840 578 885 634 q 703 503 795 522 q 879 430 819 489 q 940 273 940 370 m 684 688 q 643 780 684 753 q 521 807 602 807 l 293 807 l 293 570 l 522 570 q 645 600 607 570 q 684 688 684 629 m 739 288 q 547 422 739 422 l 293 422 l 293 149 l 554 149 q 695 183 650 149 q 739 288 739 218 z "},"C":{"ha":1003,"x_min":57,"x_max":965,"o":"m 539 144 q 791 326 720 144 l 965 260 q 800 54 909 121 q 539 -14 691 -14 q 183 117 309 -14 q 57 482 57 248 q 178 844 57 718 q 530 970 300 970 q 804 902 699 970 q 953 704 910 835 l 777 656 q 689 770 754 728 q 534 812 623 812 q 329 728 399 812 q 258 482 258 644 q 331 231 258 317 q 539 144 403 144 z "},"D":{"ha":1003,"x_min":93,"x_max":945,"o":"m 945 485 q 887 227 945 337 q 723 58 829 117 q 479 0 616 0 l 93 0 l 93 956 l 439 956 q 812 834 680 956 q 945 485 945 712 m 743 485 q 663 720 743 639 q 435 801 583 801 l 293 801 l 293 155 l 463 155 q 667 243 591 155 q 743 485 743 332 z "},"E":{"ha":926,"x_min":93,"x_max":872,"o":"m 93 0 l 93 956 l 844 956 l 844 801 l 293 801 l 293 561 l 803 561 l 803 406 l 293 406 l 293 155 l 872 155 l 872 0 l 93 0 z "},"F":{"ha":848,"x_min":93,"x_max":798,"o":"m 293 801 l 293 505 l 782 505 l 782 351 l 293 351 l 293 0 l 93 0 l 93 956 l 798 956 l 798 801 l 293 801 z "},"G":{"ha":1080,"x_min":57,"x_max":994,"o":"m 547 143 q 698 166 625 143 q 811 224 771 189 l 811 356 l 578 356 l 578 504 l 994 504 l 994 153 q 797 31 918 75 q 541 -14 675 -14 q 182 116 308 -14 q 57 482 57 245 q 183 844 57 718 q 546 970 309 970 q 974 721 882 970 l 789 665 q 696 775 760 738 q 546 812 632 812 q 332 727 405 812 q 258 482 258 642 q 334 232 258 320 q 547 143 410 143 z "},"H":{"ha":1003,"x_min":93,"x_max":909,"o":"m 709 0 l 709 410 l 293 410 l 293 0 l 93 0 l 93 956 l 293 956 l 293 575 l 709 575 l 709 956 l 909 956 l 909 0 l 709 0 z "},"I":{"ha":386,"x_min":93,"x_max":293,"o":"m 93 0 l 93 956 l 293 956 l 293 0 l 93 0 z "},"J":{"ha":772,"x_min":21,"x_max":677,"o":"m 355 -14 q 127 51 207 -14 q 21 259 47 115 l 220 288 q 265 179 232 214 q 357 143 298 143 q 447 183 416 143 q 478 298 478 223 l 478 799 l 288 799 l 288 956 l 677 956 l 677 302 q 593 70 677 153 q 355 -14 508 -14 z "},"K":{"ha":1003,"x_min":93,"x_max":990,"o":"m 754 0 l 411 439 l 293 349 l 293 0 l 93 0 l 93 956 l 293 956 l 293 522 l 724 956 l 957 956 l 549 551 l 990 0 l 754 0 z "},"L":{"ha":848,"x_min":93,"x_max":806,"o":"m 93 0 l 93 956 l 293 956 l 293 155 l 806 155 l 806 0 l 93 0 z "},"M":{"ha":1157,"x_min":93,"x_max":1064,"o":"m 886 0 l 886 579 q 887 618 886 599 q 893 787 887 638 q 822 533 845 605 l 650 0 l 507 0 l 335 533 l 262 787 q 271 579 271 630 l 271 0 l 93 0 l 93 956 l 361 956 l 532 421 l 547 370 l 579 241 l 622 395 l 798 956 l 1064 956 l 1064 0 l 886 0 z "},"N":{"ha":1003,"x_min":93,"x_max":909,"o":"m 675 0 l 258 736 q 271 564 271 629 l 271 0 l 93 0 l 93 956 l 321 956 l 744 214 q 732 400 732 316 l 732 956 l 909 956 l 909 0 l 675 0 z "},"O":{"ha":1080,"x_min":57,"x_max":1022,"o":"m 1022 482 q 963 220 1022 333 q 794 46 904 106 q 538 -14 684 -14 q 185 119 313 -14 q 57 482 57 252 q 184 841 57 712 q 539 970 312 970 q 894 840 766 970 q 1022 482 1022 709 m 818 482 q 745 725 818 637 q 539 812 671 812 q 332 725 405 812 q 258 482 258 638 q 333 234 258 325 q 538 144 408 144 q 745 232 672 144 q 818 482 818 320 z "},"P":{"ha":926,"x_min":93,"x_max":879,"o":"m 879 653 q 837 488 879 561 q 716 376 795 416 q 530 336 638 336 l 293 336 l 293 0 l 93 0 l 93 956 l 522 956 q 786 877 694 956 q 879 653 879 798 m 677 650 q 500 800 677 800 l 293 800 l 293 490 l 505 490 q 633 531 588 490 q 677 650 677 572 z "},"Q":{"ha":1080,"x_min":57,"x_max":1022,"o":"m 1022 482 q 928 164 1022 291 q 667 3 834 37 q 731 -94 690 -64 q 848 -124 773 -124 q 929 -117 888 -124 l 928 -254 q 764 -273 842 -273 q 581 -212 653 -273 q 464 -7 508 -150 q 164 141 271 12 q 57 482 57 270 q 184 841 57 712 q 539 970 312 970 q 894 840 766 970 q 1022 482 1022 709 m 818 482 q 745 725 818 637 q 539 812 671 812 q 332 725 405 812 q 258 482 258 638 q 333 234 258 325 q 538 143 408 143 q 745 231 672 143 q 818 482 818 319 z "},"R":{"ha":1003,"x_min":93,"x_max":975,"o":"m 749 0 l 528 363 l 293 363 l 293 0 l 93 0 l 93 956 l 570 956 q 834 882 741 956 q 927 671 927 808 q 870 497 927 570 q 716 401 813 425 l 975 0 l 749 0 m 726 663 q 549 800 726 800 l 293 800 l 293 518 l 555 518 q 682 556 639 518 q 726 663 726 594 z "},"S":{"ha":926,"x_min":40,"x_max":872,"o":"m 872 275 q 768 61 872 135 q 463 -14 664 -14 q 174 52 279 -14 q 40 249 70 117 l 233 281 q 310 171 253 205 q 468 136 367 136 q 677 264 677 136 q 653 331 677 304 q 586 375 629 357 q 418 418 542 393 q 269 458 311 443 q 193 494 227 473 q 135 544 159 515 q 98 612 111 573 q 85 703 85 652 q 182 901 85 832 q 465 970 279 970 q 732 914 643 970 q 847 730 821 859 l 653 704 q 592 797 638 766 q 461 828 547 828 q 279 714 279 828 q 299 653 279 677 q 356 613 318 629 q 510 571 394 596 q 707 517 648 542 q 801 459 766 492 q 854 381 836 427 q 872 275 872 335 z "},"T":{"ha":848,"x_min":16,"x_max":833,"o":"m 524 801 l 524 0 l 324 0 l 324 801 l 16 801 l 16 956 l 833 956 l 833 801 l 524 801 z "},"U":{"ha":1003,"x_min":83,"x_max":918,"o":"m 490 -14 q 188 83 293 -14 q 83 358 83 179 l 83 956 l 283 956 l 283 374 q 337 202 283 260 q 496 143 391 143 q 661 204 603 143 q 718 380 718 266 l 718 956 l 918 956 l 918 368 q 806 86 918 186 q 490 -14 694 -14 z "},"V":{"ha":926,"x_min":9,"x_max":917,"o":"m 566 0 l 363 0 l 9 956 l 218 956 l 415 342 q 465 161 433 282 l 479 220 l 514 342 l 710 956 l 917 956 l 566 0 z "},"W":{"ha":1311,"x_min":1,"x_max":1310,"o":"m 1063 0 l 825 0 l 696 553 q 656 757 672 650 q 629 622 640 668 q 485 0 619 575 l 248 0 l 1 956 l 204 956 l 342 338 l 374 189 q 411 369 393 283 q 546 956 429 455 l 770 956 l 890 447 q 939 189 905 390 l 956 268 l 991 424 l 1107 956 l 1310 956 l 1063 0 z "},"X":{"ha":926,"x_min":12,"x_max":914,"o":"m 704 0 l 464 380 l 224 0 l 12 0 l 343 503 l 40 956 l 252 956 l 464 618 l 676 956 l 886 956 l 596 503 l 914 0 l 704 0 z "},"Y":{"ha":926,"x_min":24,"x_max":904,"o":"m 564 392 l 564 0 l 364 0 l 364 392 l 24 956 l 233 956 l 463 551 l 694 956 l 904 956 l 564 392 z "},"Z":{"ha":848,"x_min":41,"x_max":808,"o":"m 808 0 l 41 0 l 41 142 l 558 799 l 93 799 l 93 956 l 781 956 l 781 817 l 264 157 l 808 157 l 808 0 z "},"[":{"ha":463,"x_min":78,"x_max":446,"o":"m 78 -288 l 78 1006 l 446 1006 l 446 878 l 258 878 l 258 -159 l 446 -159 l 446 -288 l 78 -288 z "},"\\":{"ha":386,"x_min":14,"x_max":373,"o":"m 208 -28 l 14 1007 l 176 1007 l 373 -28 l 208 -28 z "},"]":{"ha":463,"x_min":17,"x_max":385,"o":"m 17 -288 l 17 -159 l 205 -159 l 205 878 l 17 878 l 17 1006 l 385 1006 l 385 -288 l 17 -288 z "},"^":{"ha":811,"x_min":31,"x_max":781,"o":"m 625 349 l 404 859 l 184 349 l 31 349 l 296 956 l 514 956 l 781 349 l 625 349 z "},"_":{"ha":772,"x_min":-14,"x_max":785,"o":"m -14 -170 l -14 -117 l 785 -117 l 785 -170 l -14 -170 z "},"`":{"ha":463,"x_min":45,"x_max":390,"o":"m 275 802 l 45 989 l 45 1019 l 220 1019 l 390 823 l 390 802 l 275 802 z "},"a":{"ha":772,"x_min":41,"x_max":781,"o":"m 267 -14 q 100 44 160 -14 q 41 208 41 102 q 115 381 41 321 q 330 442 189 441 l 488 445 l 488 482 q 463 589 488 554 q 381 624 438 624 q 303 600 328 624 q 273 520 279 576 l 74 530 q 172 692 92 637 q 389 747 252 747 q 604 679 528 747 q 679 484 679 610 l 679 217 q 693 132 679 155 q 739 109 707 109 q 781 113 761 109 l 781 9 q 751 2 764 5 q 724 -3 737 -1 q 695 -7 710 -5 q 659 -8 680 -8 q 553 27 587 -8 q 512 131 519 62 l 508 131 q 267 -14 428 -14 m 488 340 l 391 338 q 296 324 324 336 q 254 288 269 312 q 239 222 239 263 q 263 145 239 170 q 328 119 288 119 q 409 144 372 119 q 467 211 446 168 q 488 302 488 254 l 488 340 z "},"b":{"ha":848,"x_min":92,"x_max":791,"o":"m 791 370 q 719 87 791 188 q 510 -14 646 -14 q 375 20 432 -14 q 288 118 318 54 l 286 118 q 283 53 286 94 q 277 0 280 12 l 92 0 q 97 168 97 63 l 97 1006 l 288 1006 l 288 726 l 285 606 l 288 606 q 522 747 352 747 q 722 649 652 747 q 791 370 791 550 m 593 370 q 556 555 593 494 q 443 615 519 615 q 325 550 366 615 q 285 363 285 486 q 325 182 285 247 q 441 117 364 117 q 593 370 593 117 z "},"c":{"ha":772,"x_min":54,"x_max":732,"o":"m 403 -14 q 145 86 236 -14 q 54 363 54 185 q 146 646 54 545 q 406 747 237 747 q 620 682 535 747 q 726 503 705 617 l 534 493 q 494 583 526 549 q 401 616 461 616 q 254 370 254 616 q 404 117 254 117 q 495 151 458 117 q 541 253 532 185 l 732 244 q 678 110 722 169 q 563 19 634 51 q 403 -14 492 -14 z "},"d":{"ha":848,"x_min":57,"x_max":757,"o":"m 572 0 q 566 51 570 10 q 562 119 562 92 l 559 119 q 325 -14 498 -14 q 127 86 197 -14 q 57 366 57 186 q 131 648 57 549 q 339 747 204 747 q 474 715 417 747 q 561 618 530 682 l 562 618 l 561 739 l 561 1006 l 751 1006 l 751 160 q 757 0 751 92 l 572 0 m 564 371 q 524 554 564 490 q 407 618 484 618 q 293 556 330 618 q 256 366 256 494 q 406 117 256 117 q 522 183 481 117 q 564 371 564 249 z "},"e":{"ha":772,"x_min":54,"x_max":725,"o":"m 397 -14 q 143 84 232 -14 q 54 370 54 182 q 144 650 54 552 q 400 747 235 747 q 642 643 558 747 q 725 336 725 538 l 725 330 l 254 330 q 294 169 254 223 q 407 114 334 114 q 534 201 508 114 l 714 186 q 397 -14 636 -14 m 397 627 q 294 581 330 627 q 256 450 258 534 l 541 450 q 498 583 535 538 q 397 627 460 627 z "},"f":{"ha":463,"x_min":24,"x_max":465,"o":"m 321 605 l 321 0 l 131 0 l 131 605 l 24 605 l 24 734 l 131 734 l 131 810 q 184 958 131 910 q 345 1006 237 1006 q 465 996 398 1006 l 465 873 q 410 879 437 879 q 341 860 361 879 q 321 791 321 840 l 321 734 l 465 734 l 465 605 l 321 605 z "},"g":{"ha":848,"x_min":57,"x_max":755,"o":"m 404 -294 q 188 -243 270 -294 q 87 -97 106 -192 l 278 -75 q 322 -144 288 -119 q 410 -169 355 -169 q 526 -120 489 -169 q 562 25 562 -71 l 562 64 l 564 136 l 562 136 q 326 1 499 1 q 127 98 198 1 q 57 373 57 194 q 130 650 57 553 q 340 748 202 748 q 562 616 500 748 l 566 616 q 569 680 566 640 q 575 734 572 721 l 755 734 q 751 564 751 661 l 751 22 q 663 -214 751 -134 q 404 -294 574 -294 m 564 377 q 523 554 564 490 q 408 617 483 617 q 256 373 256 617 q 407 134 256 134 q 523 197 483 134 q 564 377 564 260 z "},"h":{"ha":848,"x_min":97,"x_max":762,"o":"m 285 587 q 382 709 323 671 q 521 747 440 747 q 700 675 637 747 q 762 465 762 604 l 762 0 l 572 0 l 572 411 q 441 604 572 604 q 330 545 372 604 q 288 393 288 486 l 288 0 l 97 0 l 97 1006 l 288 1006 l 288 732 q 282 587 288 658 l 285 587 z "},"i":{"ha":386,"x_min":97,"x_max":288,"o":"m 97 866 l 97 1006 l 288 1006 l 288 866 l 97 866 m 97 0 l 97 734 l 288 734 l 288 0 l 97 0 z "},"j":{"ha":386,"x_min":-22,"x_max":288,"o":"m 98 866 l 98 1006 l 288 1006 l 288 866 l 98 866 m 94 -288 q -22 -282 26 -288 l -22 -148 l 13 -151 q 80 -129 62 -151 q 98 -41 98 -108 l 98 734 l 288 734 l 288 -87 q 239 -236 288 -184 q 94 -288 190 -288 z "},"k":{"ha":772,"x_min":97,"x_max":774,"o":"m 566 0 l 370 332 l 288 275 l 288 0 l 97 0 l 97 1006 l 288 1006 l 288 430 l 549 734 l 754 734 l 496 448 l 774 0 l 566 0 z "},"l":{"ha":386,"x_min":97,"x_max":288,"o":"m 97 0 l 97 1006 l 288 1006 l 288 0 l 97 0 z "},"m":{"ha":1235,"x_min":92,"x_max":1149,"o":"m 529 0 l 529 412 q 418 605 529 605 q 324 546 360 605 q 288 393 288 487 l 288 0 l 97 0 l 97 570 q 95 666 97 629 q 92 734 94 704 l 273 734 q 279 665 275 721 q 282 588 282 609 l 285 588 q 373 710 320 672 q 498 748 425 748 q 703 588 667 748 l 707 588 q 796 711 744 673 q 929 748 848 748 q 1093 675 1036 748 q 1149 466 1149 602 l 1149 0 l 960 0 l 960 412 q 848 605 960 605 q 757 551 793 605 q 718 402 722 497 l 718 0 l 529 0 z "},"n":{"ha":848,"x_min":92,"x_max":762,"o":"m 572 0 l 572 412 q 441 605 572 605 q 330 546 372 605 q 288 393 288 486 l 288 0 l 97 0 l 97 570 q 95 666 97 629 q 92 734 94 704 l 273 734 q 279 665 275 721 q 282 588 282 609 l 285 588 q 382 710 323 672 q 521 748 440 748 q 700 676 637 748 q 762 466 762 604 l 762 0 l 572 0 z "},"o":{"ha":848,"x_min":54,"x_max":794,"o":"m 794 368 q 695 88 794 189 q 421 -14 596 -14 q 152 88 250 -14 q 54 368 54 190 q 152 646 54 545 q 425 747 250 747 q 700 649 605 747 q 794 368 794 551 m 595 368 q 552 557 595 498 q 428 616 509 616 q 254 368 254 616 q 297 181 254 245 q 419 117 339 117 q 595 368 595 117 z "},"p":{"ha":848,"x_min":92,"x_max":791,"o":"m 791 370 q 718 86 791 186 q 510 -14 644 -14 q 375 20 433 -14 q 288 117 318 54 l 283 117 q 288 -7 288 96 l 288 -288 l 97 -288 l 97 565 q 92 734 97 669 l 277 734 q 282 686 280 722 q 285 614 285 650 l 288 614 q 522 749 352 749 q 721 651 650 749 q 791 370 791 552 m 593 370 q 441 617 593 617 q 325 551 366 617 q 285 365 285 484 q 325 181 285 246 q 440 117 366 117 q 593 370 593 117 z "},"q":{"ha":848,"x_min":57,"x_max":755,"o":"m 57 366 q 131 648 57 548 q 340 748 205 748 q 562 616 500 748 q 566 685 562 647 q 572 734 570 724 l 755 734 q 751 565 751 661 l 751 -288 l 562 -288 l 562 17 l 566 122 l 564 122 q 325 -14 501 -14 q 127 86 197 -14 q 57 366 57 186 m 564 370 q 524 552 564 488 q 408 617 485 617 q 256 366 256 617 q 407 117 256 117 q 523 183 481 117 q 564 370 564 249 z "},"r":{"ha":541,"x_min":92,"x_max":519,"o":"m 97 0 l 97 562 q 95 662 97 622 q 92 734 94 703 l 273 734 q 279 660 275 722 q 282 577 282 597 l 285 577 q 334 686 313 654 q 386 733 356 718 q 460 748 416 748 q 519 738 497 748 l 519 578 q 438 589 473 589 q 327 531 367 589 q 288 360 288 473 l 288 0 l 97 0 z "},"s":{"ha":772,"x_min":49,"x_max":715,"o":"m 715 214 q 628 47 715 108 q 387 -14 541 -14 q 156 34 236 -14 q 49 183 75 82 l 216 208 q 266 134 231 156 q 387 113 300 113 q 504 133 467 113 q 541 197 541 153 q 511 253 541 232 q 411 288 481 273 q 193 347 250 319 q 107 418 137 374 q 78 526 78 462 q 159 689 78 631 q 389 748 240 748 q 599 697 519 748 q 699 550 679 646 l 530 532 q 490 599 522 577 q 389 621 458 621 q 287 604 321 621 q 253 546 253 587 q 279 495 253 514 q 367 465 305 477 q 520 428 453 447 q 627 384 587 410 q 691 318 667 358 q 715 214 715 277 z "},"t":{"ha":463,"x_min":17,"x_max":446,"o":"m 285 -12 q 155 34 201 -12 q 110 172 110 79 l 110 605 l 17 605 l 17 734 l 119 734 l 179 906 l 298 906 l 298 734 l 437 734 l 437 605 l 298 605 l 298 224 q 319 145 298 170 q 382 119 339 119 q 446 129 404 119 l 446 11 q 285 -12 375 -12 z "},"u":{"ha":848,"x_min":86,"x_max":757,"o":"m 277 734 l 277 322 q 407 129 277 129 q 518 188 476 129 q 561 340 561 248 l 561 734 l 751 734 l 751 164 q 757 0 751 71 l 575 0 q 567 146 567 98 l 564 146 q 467 24 526 62 q 328 -14 408 -14 q 149 58 211 -14 q 86 268 86 130 l 86 734 l 277 734 z "},"v":{"ha":772,"x_min":5,"x_max":766,"o":"m 496 0 l 268 0 l 5 734 l 207 734 l 335 323 q 383 154 345 290 q 411 252 390 182 q 567 734 432 321 l 766 734 l 496 0 z "},"w":{"ha":1080,"x_min":-4,"x_max":1083,"o":"m 890 0 l 689 0 l 572 448 q 541 598 564 478 l 505 446 l 387 0 l 186 0 l -4 734 l 175 734 l 296 173 l 305 223 l 322 302 l 437 734 l 642 734 l 754 302 q 782 173 764 267 l 801 262 l 907 734 l 1083 734 l 890 0 z "},"x":{"ha":772,"x_min":9,"x_max":762,"o":"m 555 0 l 385 266 l 212 0 l 9 0 l 278 379 l 22 734 l 228 734 l 385 494 l 541 734 l 747 734 l 492 381 l 762 0 l 555 0 z "},"y":{"ha":772,"x_min":11,"x_max":765,"o":"m 192 -288 q 72 -279 123 -288 l 72 -144 q 138 -149 108 -149 q 205 -136 178 -149 q 253 -94 232 -123 q 301 7 275 -64 l 11 734 l 212 734 l 328 390 q 396 163 355 316 l 413 228 l 457 387 l 566 734 l 765 734 l 475 -39 q 354 -234 416 -180 q 192 -288 291 -288 z "},"z":{"ha":694,"x_min":56,"x_max":644,"o":"m 56 0 l 56 135 l 401 596 l 83 596 l 83 734 l 611 734 l 611 597 l 268 139 l 644 139 l 644 0 l 56 0 z "},"{":{"ha":541,"x_min":22,"x_max":511,"o":"m 378 -288 q 232 -235 287 -288 q 178 -85 178 -182 l 178 137 q 140 253 178 214 q 22 292 103 291 l 22 425 q 141 466 104 428 q 178 581 178 505 l 178 804 q 231 955 178 903 q 378 1006 284 1006 l 511 1006 l 511 878 l 472 878 q 383 842 410 878 q 355 736 355 807 l 355 532 q 316 420 355 467 q 215 361 277 374 l 215 358 q 317 297 279 343 q 355 187 355 250 l 355 -17 q 383 -124 355 -89 q 472 -159 410 -159 l 511 -159 l 511 -288 l 378 -288 z "},"|":{"ha":389,"x_min":106,"x_max":283,"o":"m 106 -309 l 106 1006 l 283 1006 l 283 -309 l 106 -309 z "},"}":{"ha":541,"x_min":29,"x_max":519,"o":"m 29 -159 l 68 -159 q 158 -124 131 -159 q 184 -17 184 -89 l 184 187 q 223 296 184 250 q 325 358 261 343 l 325 361 q 224 420 263 374 q 184 532 184 467 l 184 736 q 158 842 184 807 q 68 878 131 878 l 29 878 l 29 1006 l 163 1006 q 310 955 256 1006 q 363 804 363 903 l 363 581 q 400 467 363 505 q 519 425 437 428 l 519 292 q 400 252 437 291 q 363 137 363 212 l 363 -85 q 309 -235 363 -181 q 163 -288 254 -288 l 29 -288 l 29 -159 z "},"~":{"ha":811,"x_min":55,"x_max":759,"o":"m 578 350 q 478 364 527 350 q 378 396 429 378 q 228 428 286 428 q 139 413 180 428 q 55 368 99 399 l 55 513 q 239 570 132 570 q 403 538 310 570 q 526 498 492 507 q 591 490 560 490 q 759 553 682 490 l 759 404 q 676 362 715 374 q 578 350 636 350 z "}," ":{"ha":386,"x_min":0,"x_max":0,"o":"z "},"¡":{"ha":463,"x_min":132,"x_max":331,"o":"m 136 551 l 136 734 l 331 734 l 331 551 l 136 551 m 132 -222 l 153 444 l 309 444 l 331 -222 l 132 -222 z "},"¢":{"ha":772,"x_min":35,"x_max":741,"o":"m 399 231 q 499 268 458 231 q 549 372 539 304 l 741 364 q 650 192 726 260 q 453 109 574 123 l 453 -21 l 343 -21 l 343 107 q 116 214 197 121 q 35 465 35 306 q 114 718 35 623 q 343 831 194 814 l 343 956 l 453 956 l 453 831 q 642 754 568 818 q 734 589 715 691 l 543 579 q 495 674 533 641 q 397 708 457 708 q 270 646 313 708 q 227 472 227 583 q 272 292 227 354 q 399 231 317 231 z "},"£":{"ha":772,"x_min":14,"x_max":758,"o":"m 758 246 q 666 65 737 130 q 492 0 595 0 l 22 0 l 22 139 q 116 227 91 178 q 142 347 142 276 l 142 410 l 14 410 l 14 525 l 135 525 l 135 693 q 208 900 135 829 q 424 970 280 970 q 604 923 538 970 q 700 772 670 876 l 542 741 q 500 817 528 793 q 427 840 472 840 q 338 801 366 840 q 311 677 311 762 l 311 525 l 505 525 l 505 410 l 311 410 l 311 349 q 283 229 311 279 q 188 142 256 180 l 446 142 q 552 175 516 142 q 600 273 589 209 l 758 246 z "},"¤":{"ha":772,"x_min":39,"x_max":733,"o":"m 91 464 q 132 614 91 545 l 41 704 l 148 810 l 237 720 q 386 760 305 760 q 534 720 468 760 l 626 811 l 733 704 l 641 612 q 682 464 682 545 q 642 317 682 384 l 733 227 l 626 118 l 536 210 q 386 170 468 170 q 237 208 303 170 l 145 115 l 39 222 l 130 315 q 91 464 91 382 m 244 465 q 286 365 244 407 q 386 323 327 323 q 485 366 444 323 q 527 465 527 408 q 486 565 527 524 q 386 607 444 607 q 286 566 328 607 q 244 465 244 524 z "},"¥":{"ha":772,"x_min":5,"x_max":766,"o":"m 519 469 l 707 469 l 707 370 l 477 370 l 477 260 l 707 260 l 707 160 l 477 160 l 477 0 l 293 0 l 293 160 l 65 160 l 65 260 l 293 260 l 294 370 l 65 370 l 65 469 l 252 469 l 5 956 l 201 956 l 385 551 l 570 956 l 766 956 l 519 469 z "},"¦":{"ha":389,"x_min":106,"x_max":283,"o":"m 106 458 l 106 986 l 283 986 l 283 458 l 106 458 m 106 -309 l 106 220 l 283 220 l 283 -309 l 106 -309 z "},"§":{"ha":772,"x_min":36,"x_max":716,"o":"m 390 968 q 601 920 522 968 q 699 782 681 872 l 537 765 q 490 830 528 807 q 390 852 451 852 q 278 832 314 852 q 243 768 243 812 q 261 721 243 741 q 313 687 279 702 q 435 653 347 673 q 604 600 549 627 q 687 530 659 572 q 716 430 716 489 q 679 318 716 367 q 583 252 642 270 q 705 78 705 198 q 620 -95 705 -35 q 377 -155 535 -155 q 144 -108 226 -155 q 36 40 62 -61 l 197 65 q 252 -15 210 11 q 377 -40 294 -40 q 503 -18 460 -40 q 545 58 545 4 q 529 111 545 91 q 478 147 513 132 q 317 192 443 162 q 120 278 178 225 q 62 407 62 331 q 99 513 62 470 q 206 581 136 557 q 112 652 145 606 q 79 755 79 699 q 158 912 79 857 q 390 968 238 968 m 555 407 q 514 481 555 455 q 357 529 474 507 q 226 425 226 513 q 244 379 226 397 q 296 346 262 360 q 422 311 330 332 q 555 407 555 317 z "},"¨":{"ha":463,"x_min":11,"x_max":452,"o":"m 305 813 l 305 962 l 452 962 l 452 813 l 305 813 m 11 813 l 11 962 l 156 962 l 156 813 l 11 813 z "},"©":{"ha":1023,"x_min":22,"x_max":1002,"o":"m 1002 479 q 937 234 1002 349 q 757 55 871 120 q 512 -11 643 -11 q 263 57 378 -11 q 85 238 149 125 q 22 479 22 351 q 87 724 22 610 q 267 904 153 838 q 512 970 381 970 q 758 904 644 970 q 937 724 872 838 q 1002 479 1002 611 m 926 479 q 871 685 926 590 q 719 836 815 781 q 512 892 623 892 q 311 839 406 892 q 158 690 216 786 q 100 479 100 594 q 155 273 100 369 q 306 121 210 176 q 512 65 401 65 q 720 121 623 65 q 871 273 816 176 q 926 479 926 369 m 369 481 q 409 339 369 389 q 521 289 449 289 q 600 314 566 289 q 654 386 635 339 l 762 354 q 664 231 723 269 q 521 193 605 193 q 318 269 390 193 q 247 481 247 344 q 316 690 247 618 q 515 762 385 762 q 662 724 603 762 q 754 607 722 686 l 648 579 q 598 644 631 621 q 518 667 565 667 q 407 619 444 667 q 369 481 369 572 z "},"ª":{"ha":514,"x_min":31,"x_max":514,"o":"m 174 492 q 70 527 109 492 q 31 629 31 563 q 223 772 31 768 l 323 773 l 323 802 q 252 882 323 882 q 176 819 183 882 l 47 825 q 113 927 60 891 q 252 962 166 962 q 396 921 345 962 q 446 803 446 880 l 446 642 q 452 593 446 610 q 481 576 458 576 l 514 580 l 514 506 q 433 494 470 494 q 358 518 385 494 q 327 585 330 543 l 325 585 q 174 492 276 492 m 222 581 q 293 613 264 581 q 323 690 323 646 l 323 708 l 260 707 q 180 688 201 705 q 159 638 159 672 q 222 581 159 581 z "},"«":{"ha":772,"x_min":62,"x_max":710,"o":"m 547 96 l 374 340 l 374 389 l 547 637 l 709 637 l 709 612 l 536 364 l 710 119 l 710 96 l 547 96 m 237 96 l 62 340 l 62 389 l 237 637 l 397 637 l 397 612 l 225 364 l 399 119 l 399 96 l 237 96 z "},"¬":{"ha":811,"x_min":57,"x_max":753,"o":"m 602 96 l 602 386 l 57 386 l 57 538 l 753 538 l 753 96 l 602 96 z "},"­":{"ha":463,"x_min":54,"x_max":407,"o":"m 54 277 l 54 443 l 407 443 l 407 277 l 54 277 z "},"®":{"ha":1023,"x_min":22,"x_max":1002,"o":"m 1002 479 q 937 234 1002 349 q 757 55 871 120 q 512 -11 643 -11 q 263 57 378 -11 q 85 238 149 125 q 22 479 22 351 q 87 724 22 610 q 267 904 153 838 q 512 970 381 970 q 758 904 644 970 q 937 724 872 838 q 1002 479 1002 611 m 926 479 q 871 685 926 590 q 719 836 815 781 q 512 892 623 892 q 311 839 406 892 q 158 690 216 786 q 100 479 100 594 q 155 273 100 369 q 306 121 210 176 q 512 65 401 65 q 720 121 623 65 q 871 273 816 176 q 926 479 926 369 m 626 201 l 505 414 l 426 414 l 426 201 l 305 201 l 305 754 l 529 754 q 684 710 633 754 q 736 590 736 667 q 703 486 736 526 q 618 429 671 446 l 762 201 l 626 201 m 614 589 q 588 648 614 627 q 516 668 563 668 l 426 668 l 426 501 l 524 501 q 591 525 568 501 q 614 589 614 549 z "},"¯":{"ha":767,"x_min":-12,"x_max":779,"o":"m 779 985 l -12 985 l -12 1048 l 779 1048 l 779 985 z "},"°":{"ha":555,"x_min":61,"x_max":496,"o":"m 496 753 q 432 602 496 665 q 278 539 369 539 q 125 601 189 539 q 61 753 61 663 q 90 861 61 811 q 169 938 119 910 q 278 966 218 966 q 433 904 370 966 q 496 753 496 841 m 389 753 q 357 833 389 800 q 278 865 326 865 q 198 832 230 865 q 165 753 165 800 q 199 672 165 706 q 278 639 232 639 q 356 672 323 639 q 389 753 389 705 z "},"±":{"ha":762,"x_min":33,"x_max":730,"o":"m 457 479 l 457 248 l 305 248 l 305 479 l 33 479 l 33 631 l 305 631 l 305 861 l 457 861 l 457 631 l 730 631 l 730 479 l 457 479 m 33 0 l 33 151 l 730 151 l 730 0 l 33 0 z "},"²":{"ha":463,"x_min":35,"x_max":433,"o":"m 36 471 l 35 553 q 90 630 54 594 q 188 705 126 665 q 269 768 247 743 q 290 819 290 793 q 235 881 290 881 q 171 814 178 881 l 39 818 q 100 926 48 885 q 235 967 151 967 q 374 929 324 967 q 425 825 425 892 q 321 673 425 740 q 225 608 251 629 q 188 564 199 587 l 433 564 l 433 471 l 36 471 z "},"³":{"ha":463,"x_min":30,"x_max":433,"o":"m 433 607 q 382 502 433 540 q 237 464 331 464 q 92 499 146 464 q 30 605 39 534 l 158 613 q 235 550 165 550 q 304 615 304 550 q 210 678 304 678 l 172 678 l 172 764 l 207 764 q 271 780 250 764 q 293 825 293 795 q 277 866 293 851 q 233 881 262 881 q 166 821 173 881 l 40 829 q 99 930 47 892 q 236 967 151 967 q 371 932 323 967 q 420 840 420 897 q 395 765 420 796 q 317 724 370 734 l 317 722 q 403 685 373 716 q 433 607 433 654 z "},"´":{"ha":463,"x_min":59,"x_max":405,"o":"m 59 802 l 59 823 l 230 1019 l 405 1019 l 405 989 l 174 802 l 59 802 z "},"µ":{"ha":800,"x_min":91,"x_max":717,"o":"m 535 0 q 526 98 526 68 l 524 98 q 471 13 502 39 q 387 -14 441 -14 q 325 3 352 -14 q 281 47 297 19 l 279 47 q 281 -31 281 18 l 281 -289 l 91 -289 l 91 734 l 281 734 l 281 323 q 310 176 281 222 q 400 131 339 131 q 491 182 460 131 q 521 342 521 234 l 521 734 l 711 734 l 711 164 q 717 0 711 76 l 535 0 z "},"¶":{"ha":772,"x_min":48,"x_max":726,"o":"m 637 859 l 637 -179 l 532 -179 l 532 859 l 399 859 l 399 -179 l 294 -179 l 294 471 q 114 533 180 471 q 48 711 48 596 q 115 891 48 826 q 300 956 182 956 l 726 956 l 726 859 l 637 859 z "},"·":{"ha":463,"x_min":96,"x_max":291,"o":"m 96 360 l 96 567 l 291 567 l 291 360 l 96 360 z "},"¸":{"ha":463,"x_min":65,"x_max":339,"o":"m 339 -159 q 286 -256 339 -223 q 134 -288 233 -288 q 65 -284 103 -288 l 65 -204 q 122 -209 89 -209 q 215 -162 215 -209 q 196 -127 215 -138 q 132 -115 177 -115 q 97 -117 106 -115 l 139 0 l 236 0 l 214 -56 q 308 -87 277 -59 q 339 -159 339 -115 z "},"¹":{"ha":463,"x_min":56,"x_max":419,"o":"m 56 471 l 56 553 l 180 553 l 180 870 l 63 797 l 63 880 l 185 959 l 304 959 l 304 553 l 419 553 l 419 471 l 56 471 z "},"º":{"ha":507,"x_min":31,"x_max":484,"o":"m 484 728 q 423 555 484 618 q 254 492 362 492 q 91 554 151 492 q 31 728 31 616 q 90 900 31 838 q 257 962 150 962 q 425 902 366 962 q 484 728 484 842 m 348 728 q 328 832 348 800 q 258 865 308 865 q 187 832 209 865 q 165 728 165 798 q 186 621 165 656 q 254 587 208 587 q 326 621 304 587 q 348 728 348 655 z "},"»":{"ha":772,"x_min":63,"x_max":711,"o":"m 63 96 l 63 119 l 237 364 l 64 612 l 64 637 l 226 637 l 399 389 l 399 340 l 226 96 l 63 96 m 374 96 l 374 119 l 548 364 l 376 612 l 376 637 l 536 637 l 711 389 l 711 340 l 536 96 l 374 96 z "},"¼":{"ha":1158,"x_min":64,"x_max":1093,"o":"m 64 471 l 64 553 l 189 553 l 189 870 l 71 797 l 71 880 l 193 959 l 312 959 l 312 553 l 427 553 l 427 471 l 64 471 m 369 0 l 233 0 l 840 956 l 976 956 l 369 0 m 1023 96 l 1023 1 l 899 1 l 899 96 l 665 96 l 665 196 l 880 489 l 1023 489 l 1023 191 l 1093 191 l 1093 96 l 1023 96 m 901 395 l 894 382 q 857 322 876 351 l 762 191 l 899 191 l 899 322 l 901 395 z "},"½":{"ha":1158,"x_min":64,"x_max":1093,"o":"m 64 471 l 64 553 l 189 553 l 189 870 l 71 797 l 71 880 l 193 959 l 312 959 l 312 553 l 427 553 l 427 471 l 64 471 m 355 0 l 219 0 l 826 956 l 962 956 l 355 0 m 696 -1 l 694 81 q 750 158 714 123 q 848 234 786 194 q 928 297 907 272 q 950 348 950 321 q 895 410 950 410 q 831 343 838 410 l 699 347 q 760 455 708 414 q 895 496 811 496 q 1034 458 984 496 q 1084 353 1084 420 q 981 202 1084 269 q 885 136 911 157 q 848 93 859 115 l 1093 93 l 1093 -1 l 696 -1 z "},"¾":{"ha":1158,"x_min":70,"x_max":1093,"o":"m 369 0 l 233 0 l 840 956 l 976 956 l 369 0 m 1023 96 l 1023 1 l 899 1 l 899 96 l 665 96 l 665 196 l 880 489 l 1023 489 l 1023 191 l 1093 191 l 1093 96 l 1023 96 m 901 395 l 894 382 q 857 322 876 351 l 762 191 l 899 191 l 899 322 l 901 395 m 473 607 q 422 502 473 540 q 277 464 371 464 q 132 499 186 464 q 70 605 79 534 l 198 613 q 275 550 205 550 q 345 615 345 550 q 250 678 345 678 l 212 678 l 212 764 l 247 764 q 311 780 290 764 q 333 825 333 795 q 317 866 333 851 q 273 881 302 881 q 206 821 213 881 l 80 829 q 139 930 87 892 q 276 967 191 967 q 411 932 363 967 q 460 840 460 897 q 435 765 460 796 q 357 724 410 734 l 357 722 q 443 685 413 716 q 473 607 473 654 z "},"¿":{"ha":848,"x_min":77,"x_max":782,"o":"m 77 38 q 107 156 77 104 q 217 266 136 208 l 269 303 q 337 370 315 336 q 362 445 360 404 l 543 445 q 504 321 539 376 q 401 220 469 267 q 299 132 329 170 q 269 46 269 94 q 308 -48 269 -14 q 419 -83 347 -83 q 534 -43 488 -83 q 589 63 581 -3 l 782 55 q 669 -159 764 -83 q 422 -236 574 -236 q 169 -163 261 -236 q 77 38 77 -90 m 549 734 l 549 551 l 353 551 l 353 734 l 549 734 z "},"À":{"ha":1003,"x_min":35,"x_max":966,"o":"m 768 0 l 684 244 l 319 244 l 235 0 l 35 0 l 383 956 l 619 956 l 966 0 l 768 0 m 501 808 l 497 793 q 481 738 490 769 q 364 395 471 707 l 639 395 l 545 669 l 515 762 l 501 808 m 522 1038 l 291 1202 l 291 1231 l 466 1231 l 636 1059 l 636 1038 l 522 1038 z "},"Á":{"ha":1003,"x_min":35,"x_max":966,"o":"m 768 0 l 684 244 l 319 244 l 235 0 l 35 0 l 383 956 l 619 956 l 966 0 l 768 0 m 501 808 l 497 793 q 481 738 490 769 q 364 395 471 707 l 639 395 l 545 669 l 515 762 l 501 808 m 389 1038 l 389 1059 l 559 1231 l 734 1231 l 734 1202 l 504 1038 l 389 1038 z "},"Â":{"ha":1003,"x_min":35,"x_max":966,"o":"m 768 0 l 684 244 l 319 244 l 235 0 l 35 0 l 383 956 l 619 956 l 966 0 l 768 0 m 501 808 l 497 793 q 481 738 490 769 q 364 395 471 707 l 639 395 l 545 669 l 515 762 l 501 808 m 751 1057 l 751 1038 l 643 1038 l 505 1140 l 503 1140 l 359 1038 l 251 1038 l 251 1057 l 426 1244 l 581 1244 l 751 1057 z "},"Ã":{"ha":1003,"x_min":35,"x_max":966,"o":"m 768 0 l 684 244 l 319 244 l 235 0 l 35 0 l 383 956 l 619 956 l 966 0 l 768 0 m 501 808 l 497 793 q 481 738 490 769 q 364 395 471 707 l 639 395 l 545 669 l 515 762 l 501 808 m 614 1038 q 554 1050 584 1038 q 495 1079 524 1063 q 441 1108 467 1095 q 395 1121 416 1121 q 353 1105 368 1121 q 329 1038 338 1090 l 236 1038 q 258 1153 241 1114 q 306 1214 275 1191 q 389 1236 337 1236 q 450 1223 419 1236 q 509 1195 480 1211 q 562 1166 537 1179 q 606 1153 587 1153 q 649 1170 633 1153 q 673 1236 664 1186 l 765 1236 q 722 1084 760 1130 q 614 1038 684 1038 z "},"Ä":{"ha":1003,"x_min":35,"x_max":966,"o":"m 768 0 l 684 244 l 319 244 l 235 0 l 35 0 l 383 956 l 619 956 l 966 0 l 768 0 m 501 808 l 497 793 q 481 738 490 769 q 364 395 471 707 l 639 395 l 545 669 l 515 762 l 501 808 m 589 1038 l 589 1186 l 722 1186 l 722 1038 l 589 1038 m 281 1038 l 281 1186 l 412 1186 l 412 1038 l 281 1038 z "},"Å":{"ha":1003,"x_min":35,"x_max":966,"o":"m 768 0 l 684 244 l 319 244 l 235 0 l 35 0 l 383 956 l 619 956 l 966 0 l 768 0 m 501 808 l 497 793 q 481 738 490 769 q 364 395 471 707 l 639 395 l 545 669 l 515 762 l 501 808 m 673 1053 q 624 931 673 981 q 501 880 574 880 q 379 931 429 880 q 329 1053 329 981 q 379 1174 329 1124 q 501 1225 430 1225 q 623 1174 572 1225 q 673 1053 673 1124 m 587 1053 q 563 1112 587 1087 q 501 1137 538 1137 q 441 1113 467 1137 q 416 1053 416 1088 q 441 990 416 1015 q 501 966 467 966 q 562 991 537 966 q 587 1053 587 1016 z "},"Æ":{"ha":1389,"x_min":3,"x_max":1335,"o":"m 631 0 l 631 244 l 326 244 l 210 0 l 3 0 l 477 956 l 1307 956 l 1307 802 l 831 802 l 831 561 l 1265 561 l 1265 411 l 831 411 l 831 154 l 1335 154 l 1335 0 l 631 0 m 631 808 l 590 808 q 395 395 557 733 l 631 395 l 631 808 z "},"Ç":{"ha":1003,"x_min":57,"x_max":965,"o":"m 539 144 q 791 326 720 144 l 965 260 q 800 54 909 121 q 539 -14 691 -14 q 183 117 309 -14 q 57 482 57 248 q 178 844 57 718 q 530 970 300 970 q 804 902 699 970 q 953 704 910 835 l 777 656 q 689 770 754 728 q 534 812 623 812 q 329 728 399 812 q 258 482 258 644 q 331 231 258 317 q 539 144 403 144 m 671 -159 q 618 -256 671 -223 q 465 -288 565 -288 q 397 -284 435 -288 l 397 -204 q 454 -209 420 -209 q 547 -162 547 -209 q 528 -127 547 -138 q 464 -115 509 -115 q 429 -117 438 -115 l 471 0 l 568 0 l 545 -56 q 640 -87 609 -59 q 671 -159 671 -115 z "},"È":{"ha":926,"x_min":93,"x_max":872,"o":"m 93 0 l 93 956 l 844 956 l 844 801 l 293 801 l 293 561 l 803 561 l 803 406 l 293 406 l 293 155 l 872 155 l 872 0 l 93 0 m 499 1038 l 269 1202 l 269 1231 l 444 1231 l 614 1059 l 614 1038 l 499 1038 z "},"É":{"ha":926,"x_min":93,"x_max":872,"o":"m 93 0 l 93 956 l 844 956 l 844 801 l 293 801 l 293 561 l 803 561 l 803 406 l 293 406 l 293 155 l 872 155 l 872 0 l 93 0 m 351 1038 l 351 1059 l 522 1231 l 696 1231 l 696 1202 l 466 1038 l 351 1038 z "},"Ê":{"ha":926,"x_min":93,"x_max":872,"o":"m 93 0 l 93 956 l 844 956 l 844 801 l 293 801 l 293 561 l 803 561 l 803 406 l 293 406 l 293 155 l 872 155 l 872 0 l 93 0 m 733 1057 l 733 1038 l 625 1038 l 488 1140 l 485 1140 l 342 1038 l 233 1038 l 233 1057 l 408 1244 l 564 1244 l 733 1057 z "},"Ë":{"ha":926,"x_min":93,"x_max":872,"o":"m 93 0 l 93 956 l 844 956 l 844 801 l 293 801 l 293 561 l 803 561 l 803 406 l 293 406 l 293 155 l 872 155 l 872 0 l 93 0 m 570 1038 l 570 1186 l 703 1186 l 703 1038 l 570 1038 m 262 1038 l 262 1186 l 393 1186 l 393 1038 l 262 1038 z "},"Ì":{"ha":386,"x_min":-27,"x_max":318,"o":"m 93 0 l 93 956 l 293 956 l 293 0 l 93 0 m 203 1038 l -27 1202 l -27 1231 l 148 1231 l 318 1059 l 318 1038 l 203 1038 z "},"Í":{"ha":386,"x_min":71,"x_max":416,"o":"m 93 0 l 93 956 l 293 956 l 293 0 l 93 0 m 71 1038 l 71 1059 l 241 1231 l 416 1231 l 416 1202 l 186 1038 l 71 1038 z "},"Î":{"ha":386,"x_min":-58,"x_max":442,"o":"m 93 0 l 93 956 l 293 956 l 293 0 l 93 0 m 442 1057 l 442 1038 l 334 1038 l 197 1140 l 194 1140 l 51 1038 l -58 1038 l -58 1057 l 117 1244 l 273 1244 l 442 1057 z "},"Ï":{"ha":386,"x_min":-28,"x_max":414,"o":"m 93 0 l 93 956 l 293 956 l 293 0 l 93 0 m 280 1038 l 280 1186 l 414 1186 l 414 1038 l 280 1038 m -28 1038 l -28 1186 l 104 1186 l 104 1038 l -28 1038 z "},"Ð":{"ha":1003,"x_min":5,"x_max":945,"o":"m 945 485 q 887 227 945 337 q 723 58 829 117 q 479 0 616 0 l 93 0 l 93 403 l 5 403 l 5 551 l 93 551 l 93 956 l 439 956 q 812 834 680 956 q 945 485 945 712 m 743 485 q 664 718 743 637 q 435 799 585 799 l 293 799 l 293 551 l 534 551 l 534 403 l 293 403 l 293 157 l 463 157 q 668 244 592 157 q 743 485 743 332 z "},"Ñ":{"ha":1003,"x_min":93,"x_max":909,"o":"m 675 0 l 258 736 q 271 564 271 629 l 271 0 l 93 0 l 93 956 l 321 956 l 744 214 q 732 400 732 316 l 732 956 l 909 956 l 909 0 l 675 0 m 614 1038 q 554 1050 585 1038 q 496 1079 524 1063 q 442 1108 467 1095 q 396 1121 416 1121 q 354 1105 368 1121 q 330 1038 339 1090 l 237 1038 q 259 1153 242 1114 q 307 1214 275 1191 q 389 1236 338 1236 q 450 1223 420 1236 q 509 1195 481 1211 q 563 1166 538 1179 q 607 1153 587 1153 q 649 1170 634 1153 q 674 1236 665 1186 l 766 1236 q 723 1084 761 1130 q 614 1038 684 1038 z "},"Ò":{"ha":1080,"x_min":57,"x_max":1022,"o":"m 1022 482 q 963 220 1022 333 q 794 46 904 106 q 538 -14 684 -14 q 185 119 313 -14 q 57 482 57 252 q 184 841 57 712 q 539 970 312 970 q 894 840 766 970 q 1022 482 1022 709 m 818 482 q 745 725 818 637 q 539 812 671 812 q 332 725 405 812 q 258 482 258 638 q 333 234 258 325 q 538 144 408 144 q 745 232 672 144 q 818 482 818 320 m 602 1038 l 371 1202 l 371 1231 l 546 1231 l 716 1059 l 716 1038 l 602 1038 z "},"Ó":{"ha":1080,"x_min":57,"x_max":1022,"o":"m 1022 482 q 963 220 1022 333 q 794 46 904 106 q 538 -14 684 -14 q 185 119 313 -14 q 57 482 57 252 q 184 841 57 712 q 539 970 312 970 q 894 840 766 970 q 1022 482 1022 709 m 818 482 q 745 725 818 637 q 539 812 671 812 q 332 725 405 812 q 258 482 258 638 q 333 234 258 325 q 538 144 408 144 q 745 232 672 144 q 818 482 818 320 m 424 1038 l 424 1059 l 595 1231 l 770 1231 l 770 1202 l 539 1038 l 424 1038 z "},"Ô":{"ha":1080,"x_min":57,"x_max":1022,"o":"m 1022 482 q 963 220 1022 333 q 794 46 904 106 q 538 -14 684 -14 q 185 119 313 -14 q 57 482 57 252 q 184 841 57 712 q 539 970 312 970 q 894 840 766 970 q 1022 482 1022 709 m 818 482 q 745 725 818 637 q 539 812 671 812 q 332 725 405 812 q 258 482 258 638 q 333 234 258 325 q 538 144 408 144 q 745 232 672 144 q 818 482 818 320 m 789 1057 l 789 1038 l 681 1038 l 543 1140 l 541 1140 l 397 1038 l 289 1038 l 289 1057 l 464 1244 l 619 1244 l 789 1057 z "},"Õ":{"ha":1080,"x_min":57,"x_max":1022,"o":"m 1022 482 q 963 220 1022 333 q 794 46 904 106 q 538 -14 684 -14 q 185 119 313 -14 q 57 482 57 252 q 184 841 57 712 q 539 970 312 970 q 894 840 766 970 q 1022 482 1022 709 m 818 482 q 745 725 818 637 q 539 812 671 812 q 332 725 405 812 q 258 482 258 638 q 333 234 258 325 q 538 144 408 144 q 745 232 672 144 q 818 482 818 320 m 647 1038 q 587 1050 617 1038 q 528 1079 557 1063 q 474 1108 500 1095 q 429 1121 449 1121 q 386 1105 401 1121 q 362 1038 372 1090 l 269 1038 q 291 1153 275 1114 q 339 1214 308 1191 q 422 1236 370 1236 q 483 1223 452 1236 q 542 1195 513 1211 q 595 1166 570 1179 q 640 1153 620 1153 q 682 1170 667 1153 q 707 1236 697 1186 l 798 1236 q 755 1084 793 1130 q 647 1038 717 1038 z "},"Ö":{"ha":1080,"x_min":57,"x_max":1022,"o":"m 1022 482 q 963 220 1022 333 q 794 46 904 106 q 538 -14 684 -14 q 185 119 313 -14 q 57 482 57 252 q 184 841 57 712 q 539 970 312 970 q 894 840 766 970 q 1022 482 1022 709 m 818 482 q 745 725 818 637 q 539 812 671 812 q 332 725 405 812 q 258 482 258 638 q 333 234 258 325 q 538 144 408 144 q 745 232 672 144 q 818 482 818 320 m 626 1038 l 626 1186 l 760 1186 l 760 1038 l 626 1038 m 318 1038 l 318 1186 l 450 1186 l 450 1038 l 318 1038 z "},"×":{"ha":811,"x_min":58,"x_max":753,"o":"m 58 221 l 300 464 l 61 703 l 168 808 l 407 571 l 646 810 l 753 703 l 514 463 l 753 225 l 646 117 l 407 357 l 165 114 l 58 221 z "},"Ø":{"ha":1080,"x_min":57,"x_max":1023,"o":"m 100 -50 l 204 98 q 57 482 57 232 q 184 841 57 712 q 539 970 312 970 q 779 920 673 970 l 835 999 l 966 999 l 869 861 q 984 701 945 798 q 1023 482 1023 604 q 964 220 1023 333 q 795 46 905 106 q 538 -14 686 -14 q 294 39 394 -14 l 232 -49 l 100 -50 m 819 482 q 760 704 819 620 l 393 180 q 538 143 455 143 q 746 232 673 143 q 819 482 819 320 m 258 482 q 315 257 258 343 l 681 778 q 539 812 618 812 q 332 725 405 812 q 258 482 258 638 z "},"Ù":{"ha":1003,"x_min":83,"x_max":918,"o":"m 490 -14 q 188 83 293 -14 q 83 358 83 179 l 83 956 l 283 956 l 283 374 q 337 202 283 260 q 496 143 391 143 q 661 204 603 143 q 718 380 718 266 l 718 956 l 918 956 l 918 368 q 806 86 918 186 q 490 -14 694 -14 m 513 1038 l 282 1202 l 282 1231 l 457 1231 l 627 1059 l 627 1038 l 513 1038 z "},"Ú":{"ha":1003,"x_min":83,"x_max":918,"o":"m 490 -14 q 188 83 293 -14 q 83 358 83 179 l 83 956 l 283 956 l 283 374 q 337 202 283 260 q 496 143 391 143 q 661 204 603 143 q 718 380 718 266 l 718 956 l 918 956 l 918 368 q 806 86 918 186 q 490 -14 694 -14 m 401 1038 l 401 1059 l 572 1231 l 747 1231 l 747 1202 l 517 1038 l 401 1038 z "},"Û":{"ha":1003,"x_min":83,"x_max":918,"o":"m 490 -14 q 188 83 293 -14 q 83 358 83 179 l 83 956 l 283 956 l 283 374 q 337 202 283 260 q 496 143 391 143 q 661 204 603 143 q 718 380 718 266 l 718 956 l 918 956 l 918 368 q 806 86 918 186 q 490 -14 694 -14 m 749 1057 l 749 1038 l 642 1038 l 504 1140 l 501 1140 l 358 1038 l 250 1038 l 250 1057 l 425 1244 l 580 1244 l 749 1057 z "},"Ü":{"ha":1003,"x_min":83,"x_max":918,"o":"m 490 -14 q 188 83 293 -14 q 83 358 83 179 l 83 956 l 283 956 l 283 374 q 337 202 283 260 q 496 143 391 143 q 661 204 603 143 q 718 380 718 266 l 718 956 l 918 956 l 918 368 q 806 86 918 186 q 490 -14 694 -14 m 588 1038 l 588 1186 l 722 1186 l 722 1038 l 588 1038 m 280 1038 l 280 1186 l 412 1186 l 412 1038 l 280 1038 z "},"Ý":{"ha":926,"x_min":24,"x_max":904,"o":"m 564 392 l 564 0 l 364 0 l 364 392 l 24 956 l 233 956 l 463 551 l 694 956 l 904 956 l 564 392 m 355 1038 l 355 1059 l 526 1231 l 701 1231 l 701 1202 l 471 1038 l 355 1038 z "},"Þ":{"ha":926,"x_min":93,"x_max":879,"o":"m 879 500 q 838 339 879 409 q 718 231 797 269 q 530 192 639 192 l 293 192 l 293 0 l 93 0 l 93 956 l 293 956 l 293 798 l 522 798 q 787 721 694 798 q 879 500 879 644 m 677 497 q 633 614 677 572 q 500 656 589 656 l 293 656 l 293 334 l 505 334 q 632 377 587 334 q 677 497 677 420 z "},"ß":{"ha":848,"x_min":97,"x_max":809,"o":"m 809 212 q 741 44 809 102 q 547 -14 673 -14 q 369 16 448 -14 l 369 155 q 449 127 403 140 q 526 115 494 115 q 606 139 581 115 q 631 201 631 162 q 606 266 631 236 q 517 338 580 296 q 402 515 402 412 q 421 584 402 552 q 478 650 439 616 q 536 714 519 686 q 553 772 553 741 q 522 842 553 816 q 431 869 490 869 q 324 826 361 869 q 288 687 288 783 l 288 0 l 97 0 l 97 683 q 183 924 97 842 q 433 1006 270 1006 q 653 945 572 1006 q 734 779 734 884 q 723 714 734 743 q 694 662 711 685 q 657 621 677 639 q 621 587 637 602 q 592 558 604 572 q 581 530 581 544 q 595 498 581 513 q 695 419 609 483 q 809 212 809 334 z "},"à":{"ha":772,"x_min":35,"x_max":776,"o":"m 261 -14 q 95 44 155 -14 q 35 208 35 102 q 110 381 35 321 q 325 442 184 441 l 483 445 l 483 482 q 458 589 483 554 q 376 624 433 624 q 298 600 323 624 q 267 520 273 576 l 68 530 q 166 692 87 637 q 384 747 246 747 q 598 679 523 747 q 673 484 673 610 l 673 217 q 687 132 673 155 q 734 109 701 109 q 776 113 755 109 l 776 9 q 745 2 759 5 q 718 -3 732 -1 q 689 -7 705 -5 q 654 -8 674 -8 q 548 27 582 -8 q 507 131 513 62 l 503 131 q 261 -14 422 -14 m 483 340 l 385 338 q 291 324 319 336 q 249 288 263 312 q 234 222 234 263 q 258 145 234 170 q 322 119 282 119 q 404 144 367 119 q 462 211 441 168 q 483 302 483 254 l 483 340 m 393 802 l 163 989 l 163 1019 l 338 1019 l 508 823 l 508 802 l 393 802 z "},"á":{"ha":772,"x_min":35,"x_max":776,"o":"m 261 -14 q 95 44 155 -14 q 35 208 35 102 q 110 381 35 321 q 325 442 184 441 l 483 445 l 483 482 q 458 589 483 554 q 376 624 433 624 q 298 600 323 624 q 267 520 273 576 l 68 530 q 166 692 87 637 q 384 747 246 747 q 598 679 523 747 q 673 484 673 610 l 673 217 q 687 132 673 155 q 734 109 701 109 q 776 113 755 109 l 776 9 q 745 2 759 5 q 718 -3 732 -1 q 689 -7 705 -5 q 654 -8 674 -8 q 548 27 582 -8 q 507 131 513 62 l 503 131 q 261 -14 422 -14 m 483 340 l 385 338 q 291 324 319 336 q 249 288 263 312 q 234 222 234 263 q 258 145 234 170 q 322 119 282 119 q 404 144 367 119 q 462 211 441 168 q 483 302 483 254 l 483 340 m 254 802 l 254 823 l 425 1019 l 600 1019 l 600 989 l 370 802 l 254 802 z "},"â":{"ha":772,"x_min":35,"x_max":776,"o":"m 261 -14 q 95 44 155 -14 q 35 208 35 102 q 110 381 35 321 q 325 442 184 441 l 483 445 l 483 482 q 458 589 483 554 q 376 624 433 624 q 298 600 323 624 q 267 520 273 576 l 68 530 q 166 692 87 637 q 384 747 246 747 q 598 679 523 747 q 673 484 673 610 l 673 217 q 687 132 673 155 q 734 109 701 109 q 776 113 755 109 l 776 9 q 745 2 759 5 q 718 -3 732 -1 q 689 -7 705 -5 q 654 -8 674 -8 q 548 27 582 -8 q 507 131 513 62 l 503 131 q 261 -14 422 -14 m 483 340 l 385 338 q 291 324 319 336 q 249 288 263 312 q 234 222 234 263 q 258 145 234 170 q 322 119 282 119 q 404 144 367 119 q 462 211 441 168 q 483 302 483 254 l 483 340 m 635 821 l 635 802 l 527 802 l 389 932 l 387 932 l 243 802 l 135 802 l 135 821 l 310 1037 l 465 1037 l 635 821 z "},"ã":{"ha":772,"x_min":35,"x_max":776,"o":"m 261 -14 q 95 44 155 -14 q 35 208 35 102 q 110 381 35 321 q 325 442 184 441 l 483 445 l 483 482 q 458 589 483 554 q 376 624 433 624 q 298 600 323 624 q 267 520 273 576 l 68 530 q 166 692 87 637 q 384 747 246 747 q 598 679 523 747 q 673 484 673 610 l 673 217 q 687 132 673 155 q 734 109 701 109 q 776 113 755 109 l 776 9 q 745 2 759 5 q 718 -3 732 -1 q 689 -7 705 -5 q 654 -8 674 -8 q 548 27 582 -8 q 507 131 513 62 l 503 131 q 261 -14 422 -14 m 483 340 l 385 338 q 291 324 319 336 q 249 288 263 312 q 234 222 234 263 q 258 145 234 170 q 322 119 282 119 q 404 144 367 119 q 462 211 441 168 q 483 302 483 254 l 483 340 m 488 802 q 428 815 458 802 q 369 844 397 828 q 315 873 340 860 q 269 886 290 886 q 227 870 241 886 q 203 802 212 854 l 110 802 q 132 917 115 879 q 180 978 149 956 q 262 1001 211 1001 q 323 988 293 1001 q 382 959 354 975 q 436 930 411 943 q 480 918 460 918 q 523 934 507 918 q 547 1001 538 951 l 639 1001 q 596 848 634 895 q 488 802 557 802 z "},"ä":{"ha":772,"x_min":35,"x_max":776,"o":"m 261 -14 q 95 44 155 -14 q 35 208 35 102 q 110 381 35 321 q 325 442 184 441 l 483 445 l 483 482 q 458 589 483 554 q 376 624 433 624 q 298 600 323 624 q 267 520 273 576 l 68 530 q 166 692 87 637 q 384 747 246 747 q 598 679 523 747 q 673 484 673 610 l 673 217 q 687 132 673 155 q 734 109 701 109 q 776 113 755 109 l 776 9 q 745 2 759 5 q 718 -3 732 -1 q 689 -7 705 -5 q 654 -8 674 -8 q 548 27 582 -8 q 507 131 513 62 l 503 131 q 261 -14 422 -14 m 483 340 l 385 338 q 291 324 319 336 q 249 288 263 312 q 234 222 234 263 q 258 145 234 170 q 322 119 282 119 q 404 144 367 119 q 462 211 441 168 q 483 302 483 254 l 483 340 m 451 813 l 451 962 l 598 962 l 598 813 l 451 813 m 157 813 l 157 962 l 302 962 l 302 813 l 157 813 z "},"å":{"ha":772,"x_min":35,"x_max":776,"o":"m 261 -14 q 95 44 155 -14 q 35 208 35 102 q 110 381 35 321 q 325 442 184 441 l 483 445 l 483 482 q 458 589 483 554 q 376 624 433 624 q 298 600 323 624 q 267 520 273 576 l 68 530 q 166 692 87 637 q 384 747 246 747 q 598 679 523 747 q 673 484 673 610 l 673 217 q 687 132 673 155 q 734 109 701 109 q 776 113 755 109 l 776 9 q 745 2 759 5 q 718 -3 732 -1 q 689 -7 705 -5 q 654 -8 674 -8 q 548 27 582 -8 q 507 131 513 62 l 503 131 q 261 -14 422 -14 m 483 340 l 385 338 q 291 324 319 336 q 249 288 263 312 q 234 222 234 263 q 258 145 234 170 q 322 119 282 119 q 404 144 367 119 q 462 211 441 168 q 483 302 483 254 l 483 340 m 551 970 q 502 849 551 899 q 379 798 452 798 q 257 849 307 798 q 207 970 207 899 q 257 1092 207 1042 q 379 1143 308 1143 q 501 1092 450 1143 q 551 970 551 1042 m 465 970 q 440 1030 465 1005 q 379 1055 416 1055 q 319 1031 345 1055 q 294 970 294 1006 q 319 908 294 932 q 379 884 345 884 q 440 909 415 884 q 465 970 465 934 z "},"æ":{"ha":1235,"x_min":45,"x_max":1177,"o":"m 850 -14 q 555 142 640 -14 q 275 -14 465 -14 q 105 45 166 -14 q 45 208 45 103 q 120 379 45 320 q 343 442 195 439 l 506 445 l 506 482 q 479 590 506 555 q 392 624 452 624 q 309 599 334 624 q 277 520 283 574 l 78 530 q 176 692 96 636 q 397 747 256 747 q 623 675 545 747 q 852 747 711 747 q 1094 643 1010 747 q 1177 336 1177 538 l 1177 323 l 707 323 q 747 169 707 224 q 859 114 787 114 q 987 201 960 114 l 1166 186 q 850 -14 1088 -14 m 336 119 q 422 146 383 119 q 484 216 462 172 q 506 309 506 260 l 506 340 l 403 338 q 303 324 332 336 q 259 288 274 312 q 243 222 243 263 q 269 145 243 170 q 336 119 294 119 m 850 627 q 746 581 783 627 q 708 450 710 534 l 993 450 q 950 583 987 538 q 850 627 913 627 z "},"ç":{"ha":772,"x_min":54,"x_max":732,"o":"m 403 -14 q 145 86 236 -14 q 54 363 54 185 q 146 646 54 545 q 406 747 237 747 q 620 682 535 747 q 726 503 705 617 l 534 493 q 494 583 526 549 q 401 616 461 616 q 254 370 254 616 q 404 117 254 117 q 495 151 458 117 q 541 253 532 185 l 732 244 q 678 110 722 169 q 563 19 634 51 q 403 -14 492 -14 m 536 -159 q 484 -256 536 -223 q 331 -288 431 -288 q 262 -284 300 -288 l 262 -204 q 319 -209 286 -209 q 412 -162 412 -209 q 393 -127 412 -138 q 330 -115 374 -115 q 294 -117 304 -115 l 336 0 l 433 0 l 411 -56 q 506 -87 475 -59 q 536 -159 536 -115 z "},"è":{"ha":772,"x_min":54,"x_max":725,"o":"m 397 -14 q 143 84 232 -14 q 54 370 54 182 q 144 650 54 552 q 400 747 235 747 q 642 643 558 747 q 725 336 725 538 l 725 330 l 254 330 q 294 169 254 223 q 407 114 334 114 q 534 201 508 114 l 714 186 q 397 -14 636 -14 m 397 627 q 294 581 330 627 q 256 450 258 534 l 541 450 q 498 583 535 538 q 397 627 460 627 m 425 802 l 195 989 l 195 1019 l 370 1019 l 540 823 l 540 802 l 425 802 z "},"é":{"ha":772,"x_min":54,"x_max":725,"o":"m 397 -14 q 143 84 232 -14 q 54 370 54 182 q 144 650 54 552 q 400 747 235 747 q 642 643 558 747 q 725 336 725 538 l 725 330 l 254 330 q 294 169 254 223 q 407 114 334 114 q 534 201 508 114 l 714 186 q 397 -14 636 -14 m 397 627 q 294 581 330 627 q 256 450 258 534 l 541 450 q 498 583 535 538 q 397 627 460 627 m 283 802 l 283 823 l 454 1019 l 629 1019 l 629 989 l 399 802 l 283 802 z "},"ê":{"ha":772,"x_min":54,"x_max":725,"o":"m 397 -14 q 143 84 232 -14 q 54 370 54 182 q 144 650 54 552 q 400 747 235 747 q 642 643 558 747 q 725 336 725 538 l 725 330 l 254 330 q 294 169 254 223 q 407 114 334 114 q 534 201 508 114 l 714 186 q 397 -14 636 -14 m 397 627 q 294 581 330 627 q 256 450 258 534 l 541 450 q 498 583 535 538 q 397 627 460 627 m 651 821 l 651 802 l 543 802 l 406 932 l 403 932 l 260 802 l 151 802 l 151 821 l 326 1037 l 481 1037 l 651 821 z "},"ë":{"ha":772,"x_min":54,"x_max":725,"o":"m 397 -14 q 143 84 232 -14 q 54 370 54 182 q 144 650 54 552 q 400 747 235 747 q 642 643 558 747 q 725 336 725 538 l 725 330 l 254 330 q 294 169 254 223 q 407 114 334 114 q 534 201 508 114 l 714 186 q 397 -14 636 -14 m 397 627 q 294 581 330 627 q 256 450 258 534 l 541 450 q 498 583 535 538 q 397 627 460 627 m 471 813 l 471 962 l 618 962 l 618 813 l 471 813 m 176 813 l 176 962 l 321 962 l 321 813 l 176 813 z "},"ì":{"ha":386,"x_min":-43,"x_max":302,"o":"m 98 0 l 98 734 l 289 734 l 289 0 l 98 0 m 187 802 l -43 989 l -43 1019 l 132 1019 l 302 823 l 302 802 l 187 802 z "},"í":{"ha":386,"x_min":77,"x_max":423,"o":"m 98 0 l 98 734 l 289 734 l 289 0 l 98 0 m 77 802 l 77 823 l 248 1019 l 423 1019 l 423 989 l 193 802 l 77 802 z "},"î":{"ha":386,"x_min":-56,"x_max":444,"o":"m 98 0 l 98 734 l 289 734 l 289 0 l 98 0 m 444 821 l 444 802 l 336 802 l 198 932 l 195 932 l 52 802 l -56 802 l -56 821 l 119 1037 l 274 1037 l 444 821 z "},"ï":{"ha":386,"x_min":-27,"x_max":414,"o":"m 98 0 l 98 734 l 289 734 l 289 0 l 98 0 m 267 813 l 267 962 l 414 962 l 414 813 l 267 813 m -27 813 l -27 962 l 118 962 l 118 813 l -27 813 z "},"ð":{"ha":848,"x_min":54,"x_max":794,"o":"m 581 859 q 794 367 794 642 l 794 364 q 696 87 794 187 q 422 -12 598 -12 q 153 78 252 -12 q 54 325 54 168 q 152 571 54 482 q 425 660 250 660 q 536 638 496 660 q 434 798 492 730 l 236 715 l 236 840 l 349 887 q 174 1006 289 935 l 372 1006 q 481 943 437 974 l 663 1019 l 663 892 l 581 859 m 595 323 q 552 480 595 432 q 428 529 509 529 q 254 323 254 529 q 296 170 254 223 q 419 117 338 117 q 549 165 504 117 q 595 323 595 214 z "},"ñ":{"ha":848,"x_min":92,"x_max":762,"o":"m 572 0 l 572 412 q 441 605 572 605 q 330 546 372 605 q 288 393 288 486 l 288 0 l 97 0 l 97 570 q 95 666 97 629 q 92 734 94 704 l 273 734 q 279 665 275 721 q 282 588 282 609 l 285 588 q 382 710 323 672 q 521 748 440 748 q 700 676 637 748 q 762 466 762 604 l 762 0 l 572 0 m 549 802 q 489 815 519 802 q 430 844 458 828 q 376 873 401 860 q 330 886 351 886 q 288 870 302 886 q 264 802 273 854 l 171 802 q 193 917 176 879 q 241 978 210 956 q 323 1001 272 1001 q 385 988 354 1001 q 444 959 415 975 q 497 930 472 943 q 541 918 522 918 q 584 934 568 918 q 608 1001 599 951 l 700 1001 q 657 848 695 895 q 549 802 618 802 z "},"ò":{"ha":848,"x_min":54,"x_max":794,"o":"m 794 368 q 695 88 794 189 q 421 -14 596 -14 q 152 88 250 -14 q 54 368 54 190 q 152 646 54 545 q 425 747 250 747 q 700 649 605 747 q 794 368 794 551 m 595 368 q 552 557 595 498 q 428 616 509 616 q 254 368 254 616 q 297 181 254 245 q 419 117 339 117 q 595 368 595 117 m 453 802 l 222 989 l 222 1019 l 397 1019 l 568 823 l 568 802 l 453 802 z "},"ó":{"ha":848,"x_min":54,"x_max":794,"o":"m 794 368 q 695 88 794 189 q 421 -14 596 -14 q 152 88 250 -14 q 54 368 54 190 q 152 646 54 545 q 425 747 250 747 q 700 649 605 747 q 794 368 794 551 m 595 368 q 552 557 595 498 q 428 616 509 616 q 254 368 254 616 q 297 181 254 245 q 419 117 339 117 q 595 368 595 117 m 315 802 l 315 823 l 486 1019 l 661 1019 l 661 989 l 431 802 l 315 802 z "},"ô":{"ha":848,"x_min":54,"x_max":794,"o":"m 794 368 q 695 88 794 189 q 421 -14 596 -14 q 152 88 250 -14 q 54 368 54 190 q 152 646 54 545 q 425 747 250 747 q 700 649 605 747 q 794 368 794 551 m 595 368 q 552 557 595 498 q 428 616 509 616 q 254 368 254 616 q 297 181 254 245 q 419 117 339 117 q 595 368 595 117 m 673 821 l 673 802 l 566 802 l 428 932 l 425 932 l 282 802 l 174 802 l 174 821 l 349 1037 l 504 1037 l 673 821 z "},"õ":{"ha":848,"x_min":54,"x_max":794,"o":"m 794 368 q 695 88 794 189 q 421 -14 596 -14 q 152 88 250 -14 q 54 368 54 190 q 152 646 54 545 q 425 747 250 747 q 700 649 605 747 q 794 368 794 551 m 595 368 q 552 557 595 498 q 428 616 509 616 q 254 368 254 616 q 297 181 254 245 q 419 117 339 117 q 595 368 595 117 m 536 802 q 476 815 507 802 q 418 844 446 828 q 364 873 389 860 q 318 886 338 886 q 276 870 290 886 q 252 802 261 854 l 159 802 q 181 917 164 879 q 229 978 197 956 q 311 1001 260 1001 q 372 988 342 1001 q 431 959 403 975 q 485 930 460 943 q 529 918 509 918 q 571 934 556 918 q 596 1001 587 951 l 688 1001 q 645 848 683 895 q 536 802 606 802 z "},"ö":{"ha":848,"x_min":54,"x_max":794,"o":"m 794 368 q 695 88 794 189 q 421 -14 596 -14 q 152 88 250 -14 q 54 368 54 190 q 152 646 54 545 q 425 747 250 747 q 700 649 605 747 q 794 368 794 551 m 595 368 q 552 557 595 498 q 428 616 509 616 q 254 368 254 616 q 297 181 254 245 q 419 117 339 117 q 595 368 595 117 m 498 813 l 498 962 l 645 962 l 645 813 l 498 813 m 203 813 l 203 962 l 349 962 l 349 813 l 203 813 z "},"÷":{"ha":762,"x_min":33,"x_max":730,"o":"m 300 652 l 300 810 l 461 810 l 461 652 l 300 652 m 33 386 l 33 538 l 730 538 l 730 386 l 33 386 m 300 115 l 300 273 l 461 273 l 461 115 l 300 115 z "},"ø":{"ha":848,"x_min":1,"x_max":842,"o":"m 794 368 q 695 88 794 189 q 421 -14 596 -14 q 201 47 291 -14 l 125 -37 l 1 -37 l 134 109 q 54 368 54 208 q 152 646 54 545 q 425 747 250 747 q 649 691 560 747 l 718 768 l 842 768 l 718 629 q 794 368 794 532 m 254 368 q 266 257 254 305 l 542 570 q 428 616 501 616 q 254 368 254 616 m 595 368 q 584 477 595 431 l 308 165 q 419 117 350 117 q 595 368 595 117 z "},"ù":{"ha":848,"x_min":86,"x_max":757,"o":"m 277 734 l 277 322 q 407 129 277 129 q 518 188 476 129 q 561 340 561 248 l 561 734 l 751 734 l 751 164 q 757 0 751 71 l 575 0 q 567 146 567 98 l 564 146 q 467 24 526 62 q 328 -14 408 -14 q 149 58 211 -14 q 86 268 86 130 l 86 734 l 277 734 m 422 802 l 192 989 l 192 1019 l 367 1019 l 537 823 l 537 802 l 422 802 z "},"ú":{"ha":848,"x_min":86,"x_max":757,"o":"m 277 734 l 277 322 q 407 129 277 129 q 518 188 476 129 q 561 340 561 248 l 561 734 l 751 734 l 751 164 q 757 0 751 71 l 575 0 q 567 146 567 98 l 564 146 q 467 24 526 62 q 328 -14 408 -14 q 149 58 211 -14 q 86 268 86 130 l 86 734 l 277 734 m 314 802 l 314 823 l 485 1019 l 660 1019 l 660 989 l 429 802 l 314 802 z "},"û":{"ha":848,"x_min":86,"x_max":757,"o":"m 277 734 l 277 322 q 407 129 277 129 q 518 188 476 129 q 561 340 561 248 l 561 734 l 751 734 l 751 164 q 757 0 751 71 l 575 0 q 567 146 567 98 l 564 146 q 467 24 526 62 q 328 -14 408 -14 q 149 58 211 -14 q 86 268 86 130 l 86 734 l 277 734 m 671 821 l 671 802 l 563 802 l 425 932 l 422 932 l 279 802 l 171 802 l 171 821 l 346 1037 l 501 1037 l 671 821 z "},"ü":{"ha":848,"x_min":86,"x_max":757,"o":"m 277 734 l 277 322 q 407 129 277 129 q 518 188 476 129 q 561 340 561 248 l 561 734 l 751 734 l 751 164 q 757 0 751 71 l 575 0 q 567 146 567 98 l 564 146 q 467 24 526 62 q 328 -14 408 -14 q 149 58 211 -14 q 86 268 86 130 l 86 734 l 277 734 m 496 813 l 496 962 l 644 962 l 644 813 l 496 813 m 202 813 l 202 962 l 347 962 l 347 813 l 202 813 z "},"ý":{"ha":772,"x_min":11,"x_max":765,"o":"m 192 -288 q 72 -279 123 -288 l 72 -144 q 138 -149 108 -149 q 205 -136 178 -149 q 253 -94 232 -123 q 301 7 275 -64 l 11 734 l 212 734 l 328 390 q 396 163 355 316 l 413 228 l 457 387 l 566 734 l 765 734 l 475 -39 q 354 -234 416 -180 q 192 -288 291 -288 m 280 802 l 280 823 l 451 1019 l 626 1019 l 626 989 l 395 802 l 280 802 z "},"þ":{"ha":848,"x_min":97,"x_max":791,"o":"m 97 1006 l 288 1006 l 288 693 l 285 579 l 288 579 q 522 714 352 714 q 722 619 652 714 q 791 353 791 524 q 718 82 791 178 q 510 -14 644 -14 q 375 20 433 -14 q 288 117 318 54 l 283 117 q 288 -7 288 96 l 288 -288 l 97 -288 l 97 1006 m 593 353 q 555 526 593 469 q 441 582 517 582 q 325 520 365 582 q 285 347 285 458 q 325 177 285 237 q 440 117 366 117 q 593 353 593 117 z "},"ÿ":{"ha":772,"x_min":11,"x_max":765,"o":"m 192 -288 q 72 -279 123 -288 l 72 -144 q 138 -149 108 -149 q 205 -136 178 -149 q 253 -94 232 -123 q 301 7 275 -64 l 11 734 l 212 734 l 328 390 q 396 163 355 316 l 413 228 l 457 387 l 566 734 l 765 734 l 475 -39 q 354 -234 416 -180 q 192 -288 291 -288 m 469 813 l 469 962 l 616 962 l 616 813 l 469 813 m 174 813 l 174 962 l 319 962 l 319 813 l 174 813 z "},"Ā":{"ha":1003,"x_min":35,"x_max":966,"o":"m 768 0 l 684 244 l 319 244 l 235 0 l 35 0 l 383 956 l 619 956 l 966 0 l 768 0 m 501 808 l 497 793 q 481 738 490 769 q 364 395 471 707 l 639 395 l 545 669 l 515 762 l 501 808 m 293 1156 l 708 1156 l 708 1042 l 293 1042 l 293 1156 z "},"ā":{"ha":772,"x_min":41,"x_max":781,"o":"m 267 -14 q 100 44 160 -14 q 41 208 41 102 q 115 381 41 321 q 330 442 189 441 l 488 445 l 488 482 q 463 589 488 554 q 381 624 438 624 q 303 600 328 624 q 273 520 279 576 l 74 530 q 172 692 92 637 q 389 747 252 747 q 604 679 528 747 q 679 484 679 610 l 679 217 q 693 132 679 155 q 739 109 707 109 q 781 113 761 109 l 781 9 q 751 2 764 5 q 724 -3 737 -1 q 695 -7 710 -5 q 659 -8 680 -8 q 553 27 587 -8 q 512 131 519 62 l 508 131 q 267 -14 428 -14 m 488 340 l 391 338 q 296 324 324 336 q 254 288 269 312 q 239 222 239 263 q 263 145 239 170 q 328 119 288 119 q 409 144 372 119 q 467 211 446 168 q 488 302 488 254 l 488 340 m 189 930 l 604 930 l 604 816 l 189 816 l 189 930 z "},"Ă":{"ha":1003,"x_min":35,"x_max":966,"o":"m 768 0 l 684 244 l 319 244 l 235 0 l 35 0 l 383 956 l 619 956 l 966 0 l 768 0 m 501 808 l 497 793 q 481 738 490 769 q 364 395 471 707 l 639 395 l 545 669 l 515 762 l 501 808 m 500 1031 q 335 1086 401 1031 q 261 1226 269 1141 l 372 1226 q 418 1159 382 1184 q 501 1134 454 1134 q 585 1159 550 1134 q 630 1226 621 1183 l 741 1226 q 664 1083 728 1136 q 500 1031 599 1031 z "},"ă":{"ha":772,"x_min":41,"x_max":781,"o":"m 267 -14 q 100 44 160 -14 q 41 208 41 102 q 115 381 41 321 q 330 442 189 441 l 488 445 l 488 482 q 463 589 488 554 q 381 624 438 624 q 303 600 328 624 q 273 520 279 576 l 74 530 q 172 692 92 637 q 389 747 252 747 q 604 679 528 747 q 679 484 679 610 l 679 217 q 693 132 679 155 q 739 109 707 109 q 781 113 761 109 l 781 9 q 751 2 764 5 q 724 -3 737 -1 q 695 -7 710 -5 q 659 -8 680 -8 q 553 27 587 -8 q 512 131 519 62 l 508 131 q 267 -14 428 -14 m 488 340 l 391 338 q 296 324 324 336 q 254 288 269 312 q 239 222 239 263 q 263 145 239 170 q 328 119 288 119 q 409 144 372 119 q 467 211 446 168 q 488 302 488 254 l 488 340 m 392 802 q 225 864 290 802 q 153 1021 161 926 l 264 1021 q 310 939 275 969 q 393 909 345 909 q 477 938 441 909 q 522 1021 513 968 l 633 1021 q 558 862 621 921 q 392 802 496 802 z "},"Ą":{"ha":1003,"x_min":35,"x_max":966,"o":"m 768 0 l 684 244 l 319 244 l 235 0 l 35 0 l 383 956 l 619 956 l 966 0 l 768 0 m 501 808 l 497 793 q 481 738 490 769 q 364 395 471 707 l 639 395 l 545 669 l 515 762 l 501 808 m 856 -281 q 738 -244 781 -281 q 695 -145 695 -208 q 725 -49 695 -94 q 802 22 754 -3 l 906 22 q 841 -46 863 -7 q 819 -121 819 -85 q 835 -166 819 -149 q 882 -184 852 -184 q 958 -165 919 -184 l 958 -258 q 856 -281 916 -281 z "},"ą":{"ha":772,"x_min":41,"x_max":781,"o":"m 267 -14 q 100 44 160 -14 q 41 208 41 102 q 115 381 41 321 q 330 442 189 441 l 488 445 l 488 482 q 463 589 488 554 q 381 624 438 624 q 303 600 328 624 q 273 520 279 576 l 74 530 q 172 692 92 637 q 389 747 252 747 q 604 679 528 747 q 679 484 679 610 l 679 217 q 693 132 679 155 q 739 109 707 109 q 781 113 761 109 l 781 9 q 751 2 764 5 q 724 -3 737 -1 q 695 -7 710 -5 q 659 -8 680 -8 q 553 27 587 -8 q 512 131 519 62 l 508 131 q 267 -14 428 -14 m 488 340 l 391 338 q 296 324 324 336 q 254 288 269 312 q 239 222 239 263 q 263 145 239 170 q 328 119 288 119 q 409 144 372 119 q 467 211 446 168 q 488 302 488 254 l 488 340 m 625 -288 q 507 -252 550 -288 q 465 -153 465 -215 q 494 -56 465 -102 q 572 14 524 -11 l 675 14 q 610 -53 633 -14 q 588 -128 588 -92 q 605 -174 588 -157 q 652 -191 621 -191 q 728 -173 688 -191 l 728 -266 q 625 -288 685 -288 z "},"Ć":{"ha":1003,"x_min":57,"x_max":965,"o":"m 539 144 q 791 326 720 144 l 965 260 q 800 54 909 121 q 539 -14 691 -14 q 183 117 309 -14 q 57 482 57 248 q 178 844 57 718 q 530 970 300 970 q 804 902 699 970 q 953 704 910 835 l 777 656 q 689 770 754 728 q 534 812 623 812 q 329 728 399 812 q 258 482 258 644 q 331 231 258 317 q 539 144 403 144 m 442 1038 l 442 1059 l 613 1231 l 788 1231 l 788 1202 l 557 1038 l 442 1038 z "},"ć":{"ha":772,"x_min":54,"x_max":732,"o":"m 403 -14 q 145 86 236 -14 q 54 363 54 185 q 146 646 54 545 q 406 747 237 747 q 620 682 535 747 q 726 503 705 617 l 534 493 q 494 583 526 549 q 401 616 461 616 q 254 370 254 616 q 404 117 254 117 q 495 151 458 117 q 541 253 532 185 l 732 244 q 678 110 722 169 q 563 19 634 51 q 403 -14 492 -14 m 302 802 l 302 823 l 473 1019 l 648 1019 l 648 989 l 418 802 l 302 802 z "},"Ĉ":{"ha":1003,"x_min":57,"x_max":965,"o":"m 539 144 q 791 326 720 144 l 965 260 q 800 54 909 121 q 539 -14 691 -14 q 183 117 309 -14 q 57 482 57 248 q 178 844 57 718 q 530 970 300 970 q 804 902 699 970 q 953 704 910 835 l 777 656 q 689 770 754 728 q 534 812 623 812 q 329 728 399 812 q 258 482 258 644 q 331 231 258 317 q 539 144 403 144 m 793 1057 l 793 1038 l 686 1038 l 548 1140 l 545 1140 l 402 1038 l 294 1038 l 294 1057 l 469 1244 l 624 1244 l 793 1057 z "},"ĉ":{"ha":772,"x_min":54,"x_max":732,"o":"m 403 -14 q 145 86 236 -14 q 54 363 54 185 q 146 646 54 545 q 406 747 237 747 q 620 682 535 747 q 726 503 705 617 l 534 493 q 494 583 526 549 q 401 616 461 616 q 254 370 254 616 q 404 117 254 117 q 495 151 458 117 q 541 253 532 185 l 732 244 q 678 110 722 169 q 563 19 634 51 q 403 -14 492 -14 m 656 821 l 656 802 l 548 802 l 410 932 l 408 932 l 264 802 l 156 802 l 156 821 l 331 1037 l 486 1037 l 656 821 z "},"Ċ":{"ha":1003,"x_min":57,"x_max":965,"o":"m 539 144 q 791 326 720 144 l 965 260 q 800 54 909 121 q 539 -14 691 -14 q 183 117 309 -14 q 57 482 57 248 q 178 844 57 718 q 530 970 300 970 q 804 902 699 970 q 953 704 910 835 l 777 656 q 689 770 754 728 q 534 812 623 812 q 329 728 399 812 q 258 482 258 644 q 331 231 258 317 q 539 144 403 144 m 438 1049 l 438 1190 l 629 1190 l 629 1049 l 438 1049 z "},"ċ":{"ha":772,"x_min":54,"x_max":732,"o":"m 403 -14 q 145 86 236 -14 q 54 363 54 185 q 146 646 54 545 q 406 747 237 747 q 620 682 535 747 q 726 503 705 617 l 534 493 q 494 583 526 549 q 401 616 461 616 q 254 370 254 616 q 404 117 254 117 q 495 151 458 117 q 541 253 532 185 l 732 244 q 678 110 722 169 q 563 19 634 51 q 403 -14 492 -14 m 312 866 l 312 1006 l 503 1006 l 503 866 l 312 866 z "},"Č":{"ha":1003,"x_min":57,"x_max":965,"o":"m 539 144 q 791 326 720 144 l 965 260 q 800 54 909 121 q 539 -14 691 -14 q 183 117 309 -14 q 57 482 57 248 q 178 844 57 718 q 530 970 300 970 q 804 902 699 970 q 953 704 910 835 l 777 656 q 689 770 754 728 q 534 812 623 812 q 329 728 399 812 q 258 482 258 644 q 331 231 258 317 q 539 144 403 144 m 610 1038 l 455 1038 l 280 1225 l 280 1244 l 389 1244 l 532 1141 l 534 1141 l 672 1244 l 780 1244 l 780 1225 l 610 1038 z "},"č":{"ha":772,"x_min":54,"x_max":732,"o":"m 403 -14 q 145 86 236 -14 q 54 363 54 185 q 146 646 54 545 q 406 747 237 747 q 620 682 535 747 q 726 503 705 617 l 534 493 q 494 583 526 549 q 401 616 461 616 q 254 370 254 616 q 404 117 254 117 q 495 151 458 117 q 541 253 532 185 l 732 244 q 678 110 722 169 q 563 19 634 51 q 403 -14 492 -14 m 475 802 l 320 802 l 145 1017 l 145 1037 l 254 1037 l 397 906 l 399 906 l 537 1037 l 645 1037 l 645 1017 l 475 802 z "},"Ď":{"ha":1003,"x_min":93,"x_max":945,"o":"m 945 485 q 887 227 945 337 q 723 58 829 117 q 479 0 616 0 l 93 0 l 93 956 l 439 956 q 812 834 680 956 q 945 485 945 712 m 743 485 q 663 720 743 639 q 435 801 583 801 l 293 801 l 293 155 l 463 155 q 667 243 591 155 q 743 485 743 332 m 555 1038 l 399 1038 l 224 1225 l 224 1244 l 333 1244 l 476 1141 l 479 1141 l 616 1244 l 724 1244 l 724 1225 l 555 1038 z "},"ď":{"ha":998,"x_min":57,"x_max":999,"o":"m 572 0 q 566 51 570 10 q 562 119 562 92 l 559 119 q 325 -14 498 -14 q 127 86 197 -14 q 57 366 57 186 q 131 648 57 549 q 339 747 204 747 q 474 715 417 747 q 561 618 530 682 l 562 618 l 561 739 l 561 1006 l 751 1006 l 751 160 q 757 0 751 92 l 572 0 m 564 371 q 524 554 564 490 q 407 618 484 618 q 293 556 330 618 q 256 366 256 494 q 406 117 256 117 q 522 183 481 117 q 564 371 564 249 m 999 907 q 984 818 999 858 q 935 737 970 778 l 842 737 q 906 866 906 805 l 833 866 l 833 1006 l 999 1006 l 999 907 z "},"Đ":{"ha":1003,"x_min":5,"x_max":945,"o":"m 945 485 q 887 227 945 337 q 723 58 829 117 q 479 0 616 0 l 93 0 l 93 403 l 5 403 l 5 551 l 93 551 l 93 956 l 439 956 q 812 834 680 956 q 945 485 945 712 m 743 485 q 664 718 743 637 q 435 799 585 799 l 293 799 l 293 551 l 534 551 l 534 403 l 293 403 l 293 157 l 463 157 q 668 244 592 157 q 743 485 743 332 z "},"đ":{"ha":848,"x_min":57,"x_max":842,"o":"m 561 912 l 561 1006 l 752 1006 l 752 912 l 842 912 l 842 797 l 752 797 l 752 160 q 758 0 752 92 l 573 0 q 567 51 570 10 q 563 119 563 92 l 560 119 q 325 -14 498 -14 q 127 82 197 -14 q 57 353 57 178 q 130 625 57 530 q 339 720 203 720 q 474 688 417 720 q 561 591 530 655 l 562 591 l 561 711 l 561 797 l 367 797 l 367 912 l 561 912 m 564 359 q 524 532 564 472 q 407 593 485 593 q 293 535 330 593 q 256 354 256 477 q 406 117 256 117 q 523 180 482 117 q 564 359 564 243 z "},"Ē":{"ha":926,"x_min":93,"x_max":872,"o":"m 93 0 l 93 956 l 844 956 l 844 801 l 293 801 l 293 561 l 803 561 l 803 406 l 293 406 l 293 155 l 872 155 l 872 0 l 93 0 m 262 1156 l 677 1156 l 677 1042 l 262 1042 l 262 1156 z "},"ē":{"ha":772,"x_min":54,"x_max":725,"o":"m 397 -14 q 143 84 232 -14 q 54 370 54 182 q 144 650 54 552 q 400 747 235 747 q 642 643 558 747 q 725 336 725 538 l 725 330 l 254 330 q 294 169 254 223 q 407 114 334 114 q 534 201 508 114 l 714 186 q 397 -14 636 -14 m 397 627 q 294 581 330 627 q 256 450 258 534 l 541 450 q 498 583 535 538 q 397 627 460 627 m 191 930 l 606 930 l 606 816 l 191 816 l 191 930 z "},"Ĕ":{"ha":926,"x_min":93,"x_max":872,"o":"m 93 0 l 93 956 l 844 956 l 844 801 l 293 801 l 293 561 l 803 561 l 803 406 l 293 406 l 293 155 l 872 155 l 872 0 l 93 0 m 475 1031 q 310 1086 376 1031 q 236 1226 243 1141 l 347 1226 q 393 1159 357 1184 q 476 1134 429 1134 q 560 1159 525 1134 q 605 1226 595 1183 l 716 1226 q 638 1083 703 1136 q 475 1031 574 1031 z "},"ĕ":{"ha":772,"x_min":54,"x_max":725,"o":"m 397 -14 q 143 84 232 -14 q 54 370 54 182 q 144 650 54 552 q 400 747 235 747 q 642 643 558 747 q 725 336 725 538 l 725 330 l 254 330 q 294 169 254 223 q 407 114 334 114 q 534 201 508 114 l 714 186 q 397 -14 636 -14 m 397 627 q 294 581 330 627 q 256 450 258 534 l 541 450 q 498 583 535 538 q 397 627 460 627 m 385 802 q 218 864 282 802 q 146 1021 153 926 l 256 1021 q 302 939 267 969 q 386 909 338 909 q 470 938 434 909 q 515 1021 505 968 l 626 1021 q 551 862 614 921 q 385 802 488 802 z "},"Ė":{"ha":926,"x_min":93,"x_max":872,"o":"m 93 0 l 93 956 l 844 956 l 844 801 l 293 801 l 293 561 l 803 561 l 803 406 l 293 406 l 293 155 l 872 155 l 872 0 l 93 0 m 383 1049 l 383 1190 l 574 1190 l 574 1049 l 383 1049 z "},"ė":{"ha":772,"x_min":54,"x_max":725,"o":"m 397 -14 q 143 84 232 -14 q 54 370 54 182 q 144 650 54 552 q 400 747 235 747 q 642 643 558 747 q 725 336 725 538 l 725 330 l 254 330 q 294 169 254 223 q 407 114 334 114 q 534 201 508 114 l 714 186 q 397 -14 636 -14 m 397 627 q 294 581 330 627 q 256 450 258 534 l 541 450 q 498 583 535 538 q 397 627 460 627 m 299 866 l 299 1006 l 490 1006 l 490 866 l 299 866 z "},"Ę":{"ha":926,"x_min":93,"x_max":872,"o":"m 93 0 l 93 956 l 844 956 l 844 801 l 293 801 l 293 561 l 803 561 l 803 406 l 293 406 l 293 155 l 872 155 l 872 0 l 93 0 m 720 -288 q 602 -252 645 -288 q 559 -153 559 -215 q 589 -56 559 -102 q 667 14 618 -11 l 770 14 q 705 -53 728 -14 q 683 -128 683 -92 q 700 -174 683 -157 q 747 -191 716 -191 q 823 -173 783 -191 l 823 -266 q 720 -288 780 -288 z "},"ę":{"ha":772,"x_min":54,"x_max":725,"o":"m 397 -14 q 143 84 232 -14 q 54 370 54 182 q 144 650 54 552 q 400 747 235 747 q 642 643 558 747 q 725 336 725 538 l 725 330 l 254 330 q 294 169 254 223 q 407 114 334 114 q 534 201 508 114 l 714 186 q 397 -14 636 -14 m 397 627 q 294 581 330 627 q 256 450 258 534 l 541 450 q 498 583 535 538 q 397 627 460 627 m 526 -277 q 408 -240 451 -277 q 366 -141 366 -203 q 395 -45 366 -90 q 473 26 425 1 l 576 26 q 511 -42 534 -3 q 489 -117 489 -81 q 506 -162 489 -145 q 553 -180 522 -180 q 629 -161 589 -180 l 629 -254 q 526 -277 586 -277 z "},"Ě":{"ha":926,"x_min":93,"x_max":872,"o":"m 93 0 l 93 956 l 844 956 l 844 801 l 293 801 l 293 561 l 803 561 l 803 406 l 293 406 l 293 155 l 872 155 l 872 0 l 93 0 m 561 1038 l 406 1038 l 231 1225 l 231 1244 l 339 1244 l 482 1141 l 485 1141 l 623 1244 l 730 1244 l 730 1225 l 561 1038 z "},"ě":{"ha":772,"x_min":54,"x_max":725,"o":"m 397 -14 q 143 84 232 -14 q 54 370 54 182 q 144 650 54 552 q 400 747 235 747 q 642 643 558 747 q 725 336 725 538 l 725 330 l 254 330 q 294 169 254 223 q 407 114 334 114 q 534 201 508 114 l 714 186 q 397 -14 636 -14 m 397 627 q 294 581 330 627 q 256 450 258 534 l 541 450 q 498 583 535 538 q 397 627 460 627 m 477 802 l 321 802 l 146 1017 l 146 1037 l 255 1037 l 398 906 l 401 906 l 538 1037 l 646 1037 l 646 1017 l 477 802 z "},"Ĝ":{"ha":1080,"x_min":57,"x_max":994,"o":"m 547 143 q 698 166 625 143 q 811 224 771 189 l 811 356 l 578 356 l 578 504 l 994 504 l 994 153 q 797 31 918 75 q 541 -14 675 -14 q 182 116 308 -14 q 57 482 57 245 q 183 844 57 718 q 546 970 309 970 q 974 721 882 970 l 789 665 q 696 775 760 738 q 546 812 632 812 q 332 727 405 812 q 258 482 258 642 q 334 232 258 320 q 547 143 410 143 m 790 1057 l 790 1038 l 682 1038 l 545 1140 l 542 1140 l 399 1038 l 290 1038 l 290 1057 l 465 1244 l 621 1244 l 790 1057 z "},"ĝ":{"ha":848,"x_min":57,"x_max":755,"o":"m 404 -294 q 188 -243 270 -294 q 87 -97 106 -192 l 278 -75 q 322 -144 288 -119 q 410 -169 355 -169 q 526 -120 489 -169 q 562 25 562 -71 l 562 64 l 564 136 l 562 136 q 326 1 499 1 q 127 98 198 1 q 57 373 57 194 q 130 650 57 553 q 340 748 202 748 q 562 616 500 748 l 566 616 q 569 680 566 640 q 575 734 572 721 l 755 734 q 751 564 751 661 l 751 22 q 663 -214 751 -134 q 404 -294 574 -294 m 564 377 q 523 554 564 490 q 408 617 483 617 q 256 373 256 617 q 407 134 256 134 q 523 197 483 134 q 564 377 564 260 m 658 821 l 658 802 l 550 802 l 412 932 l 410 932 l 267 802 l 158 802 l 158 821 l 333 1037 l 488 1037 l 658 821 z "},"Ğ":{"ha":1080,"x_min":57,"x_max":994,"o":"m 547 143 q 698 166 625 143 q 811 224 771 189 l 811 356 l 578 356 l 578 504 l 994 504 l 994 153 q 797 31 918 75 q 541 -14 675 -14 q 182 116 308 -14 q 57 482 57 245 q 183 844 57 718 q 546 970 309 970 q 974 721 882 970 l 789 665 q 696 775 760 738 q 546 812 632 812 q 332 727 405 812 q 258 482 258 642 q 334 232 258 320 q 547 143 410 143 m 548 1031 q 383 1086 450 1031 q 309 1226 317 1141 l 420 1226 q 466 1159 430 1184 q 549 1134 502 1134 q 633 1159 598 1134 q 678 1226 669 1183 l 789 1226 q 712 1083 777 1136 q 548 1031 647 1031 z "},"ğ":{"ha":848,"x_min":57,"x_max":755,"o":"m 404 -294 q 188 -243 270 -294 q 87 -97 106 -192 l 278 -75 q 322 -144 288 -119 q 410 -169 355 -169 q 526 -120 489 -169 q 562 25 562 -71 l 562 64 l 564 136 l 562 136 q 326 1 499 1 q 127 98 198 1 q 57 373 57 194 q 130 650 57 553 q 340 748 202 748 q 562 616 500 748 l 566 616 q 569 680 566 640 q 575 734 572 721 l 755 734 q 751 564 751 661 l 751 22 q 663 -214 751 -134 q 404 -294 574 -294 m 564 377 q 523 554 564 490 q 408 617 483 617 q 256 373 256 617 q 407 134 256 134 q 523 197 483 134 q 564 377 564 260 m 410 802 q 243 864 308 802 q 172 1021 179 926 l 282 1021 q 328 939 293 969 q 412 909 363 909 q 495 938 460 909 q 541 1021 531 968 l 652 1021 q 577 862 640 921 q 410 802 514 802 z "},"Ġ":{"ha":1080,"x_min":57,"x_max":994,"o":"m 547 143 q 698 166 625 143 q 811 224 771 189 l 811 356 l 578 356 l 578 504 l 994 504 l 994 153 q 797 31 918 75 q 541 -14 675 -14 q 182 116 308 -14 q 57 482 57 245 q 183 844 57 718 q 546 970 309 970 q 974 721 882 970 l 789 665 q 696 775 760 738 q 546 812 632 812 q 332 727 405 812 q 258 482 258 642 q 334 232 258 320 q 547 143 410 143 m 452 1049 l 452 1190 l 643 1190 l 643 1049 l 452 1049 z "},"ġ":{"ha":848,"x_min":57,"x_max":755,"o":"m 404 -294 q 188 -243 270 -294 q 87 -97 106 -192 l 278 -75 q 322 -144 288 -119 q 410 -169 355 -169 q 526 -120 489 -169 q 562 25 562 -71 l 562 64 l 564 136 l 562 136 q 326 1 499 1 q 127 98 198 1 q 57 373 57 194 q 130 650 57 553 q 340 748 202 748 q 562 616 500 748 l 566 616 q 569 680 566 640 q 575 734 572 721 l 755 734 q 751 564 751 661 l 751 22 q 663 -214 751 -134 q 404 -294 574 -294 m 564 377 q 523 554 564 490 q 408 617 483 617 q 256 373 256 617 q 407 134 256 134 q 523 197 483 134 q 564 377 564 260 m 329 866 l 329 1006 l 519 1006 l 519 866 l 329 866 z "},"Ģ":{"ha":1080,"x_min":57,"x_max":994,"o":"m 547 143 q 698 166 625 143 q 811 224 771 189 l 811 356 l 578 356 l 578 504 l 994 504 l 994 153 q 797 31 918 75 q 541 -14 675 -14 q 182 116 308 -14 q 57 482 57 245 q 183 844 57 718 q 546 970 309 970 q 974 721 882 970 l 789 665 q 696 775 760 738 q 546 812 632 812 q 332 727 405 812 q 258 482 258 642 q 334 232 258 320 q 547 143 410 143 m 636 -138 q 622 -228 636 -188 q 572 -309 607 -267 l 479 -309 q 543 -193 543 -241 l 470 -193 l 470 -53 l 636 -53 l 636 -138 z "},"ģ":{"ha":848,"x_min":57,"x_max":755,"o":"m 404 -294 q 188 -243 270 -294 q 87 -97 106 -192 l 278 -75 q 322 -144 288 -119 q 410 -169 355 -169 q 526 -120 489 -169 q 562 25 562 -71 l 562 64 l 564 136 l 562 136 q 326 1 499 1 q 127 98 198 1 q 57 373 57 194 q 130 650 57 553 q 340 748 202 748 q 562 616 500 748 l 566 616 q 569 680 566 640 q 575 734 572 721 l 755 734 q 751 564 751 661 l 751 22 q 663 -214 751 -134 q 404 -294 574 -294 m 564 377 q 523 554 564 490 q 408 617 483 617 q 256 373 256 617 q 407 134 256 134 q 523 197 483 134 q 564 377 564 260 m 336 921 q 351 1020 336 980 q 393 1091 366 1059 l 493 1091 q 429 962 429 1023 l 503 962 l 503 822 l 336 822 l 336 921 z "},"Ĥ":{"ha":1003,"x_min":93,"x_max":909,"o":"m 709 0 l 709 410 l 293 410 l 293 0 l 93 0 l 93 956 l 293 956 l 293 575 l 709 575 l 709 956 l 909 956 l 909 0 l 709 0 m 755 1057 l 755 1038 l 647 1038 l 509 1140 l 507 1140 l 363 1038 l 255 1038 l 255 1057 l 430 1244 l 585 1244 l 755 1057 z "},"ĥ":{"ha":848,"x_min":97,"x_max":762,"o":"m 285 587 q 382 709 323 671 q 521 747 440 747 q 700 675 637 747 q 762 465 762 604 l 762 0 l 572 0 l 572 411 q 441 604 572 604 q 330 545 372 604 q 288 393 288 486 l 288 0 l 97 0 l 97 1006 l 288 1006 l 288 732 q 282 587 288 658 l 285 587 m 686 1111 l 686 1091 l 578 1091 l 441 1194 l 438 1194 l 295 1091 l 186 1091 l 186 1111 l 361 1298 l 517 1298 l 686 1111 z "},"Ħ":{"ha":1003,"x_min":9,"x_max":994,"o":"m 717 0 l 717 410 l 293 410 l 293 0 l 93 0 l 93 709 l 9 709 l 9 824 l 93 824 l 93 956 l 293 956 l 293 824 l 717 824 l 717 956 l 909 956 l 909 824 l 994 824 l 994 709 l 909 709 l 909 0 l 717 0 m 717 575 l 717 709 l 293 709 l 293 575 l 717 575 z "},"ħ":{"ha":848,"x_min":7,"x_max":762,"o":"m 285 560 q 382 682 323 644 q 521 720 440 720 q 700 648 637 720 q 762 438 762 576 l 762 0 l 572 0 l 572 384 q 441 577 572 577 q 330 518 372 577 q 288 366 288 458 l 288 0 l 97 0 l 97 797 l 7 797 l 7 912 l 97 912 l 97 1006 l 288 1006 l 288 912 l 495 912 l 495 797 l 288 797 l 288 705 q 282 560 288 631 l 285 560 z "},"Ĩ":{"ha":386,"x_min":-70,"x_max":459,"o":"m 93 0 l 93 956 l 293 956 l 293 0 l 93 0 m 308 1038 q 248 1050 278 1038 q 189 1079 218 1063 q 135 1108 161 1095 q 90 1121 110 1121 q 47 1105 62 1121 q 23 1038 33 1090 l -70 1038 q -48 1153 -64 1114 q 0 1214 -31 1191 q 83 1236 31 1236 q 144 1223 113 1236 q 203 1195 174 1211 q 256 1166 231 1179 q 300 1153 281 1153 q 343 1170 328 1153 q 368 1236 358 1186 l 459 1236 q 416 1084 454 1130 q 308 1038 378 1038 z "},"ĩ":{"ha":386,"x_min":-70,"x_max":459,"o":"m 98 0 l 98 734 l 289 734 l 289 0 l 98 0 m 308 802 q 248 815 278 802 q 189 844 218 828 q 135 873 161 860 q 90 886 110 886 q 47 870 62 886 q 23 802 33 854 l -70 802 q -48 917 -64 879 q 0 978 -31 956 q 83 1001 31 1001 q 144 988 113 1001 q 203 959 174 975 q 256 930 231 943 q 300 918 281 918 q 343 934 328 918 q 368 1001 358 951 l 459 1001 q 416 848 454 895 q 308 802 378 802 z "},"Ī":{"ha":386,"x_min":-14,"x_max":401,"o":"m 93 0 l 93 956 l 293 956 l 293 0 l 93 0 m -14 1156 l 401 1156 l 401 1042 l -14 1042 l -14 1156 z "},"ī":{"ha":386,"x_min":-14,"x_max":401,"o":"m 98 0 l 98 734 l 289 734 l 289 0 l 98 0 m -14 930 l 401 930 l 401 816 l -14 816 l -14 930 z "},"Ĭ":{"ha":386,"x_min":-46,"x_max":434,"o":"m 93 0 l 93 956 l 293 956 l 293 0 l 93 0 m 193 1031 q 28 1086 94 1031 q -46 1226 -39 1141 l 64 1226 q 111 1159 75 1184 q 194 1134 146 1134 q 278 1159 243 1134 q 323 1226 313 1183 l 434 1226 q 356 1083 421 1136 q 193 1031 292 1031 z "},"ĭ":{"ha":386,"x_min":-45,"x_max":435,"o":"m 98 0 l 98 734 l 289 734 l 289 0 l 98 0 m 193 802 q 26 864 91 802 q -45 1021 -38 926 l 65 1021 q 111 939 76 969 q 195 909 146 909 q 278 938 243 909 q 323 1021 314 968 l 435 1021 q 360 862 422 921 q 193 802 297 802 z "},"Į":{"ha":386,"x_min":60,"x_max":323,"o":"m 93 0 l 93 956 l 293 956 l 293 0 l 93 0 m 220 -288 q 102 -252 145 -288 q 60 -153 60 -215 q 89 -56 60 -102 q 167 14 119 -11 l 271 14 q 205 -53 228 -14 q 183 -128 183 -92 q 200 -174 183 -157 q 247 -191 216 -191 q 323 -173 283 -191 l 323 -266 q 220 -288 280 -288 z "},"į":{"ha":386,"x_min":47,"x_max":310,"o":"m 97 866 l 97 1006 l 288 1006 l 288 866 l 97 866 m 97 0 l 97 734 l 288 734 l 288 0 l 97 0 m 208 -288 q 90 -252 132 -288 q 47 -153 47 -215 q 76 -56 47 -102 q 154 14 106 -11 l 258 14 q 193 -53 215 -14 q 170 -128 170 -92 q 187 -174 170 -157 q 234 -191 203 -191 q 310 -173 271 -191 l 310 -266 q 208 -288 267 -288 z "},"İ":{"ha":386,"x_min":93,"x_max":293,"o":"m 93 0 l 93 956 l 293 956 l 293 0 l 93 0 m 99 1049 l 99 1190 l 290 1190 l 290 1049 l 99 1049 z "},"ı":{"ha":386,"x_min":98,"x_max":289,"o":"m 98 0 l 98 734 l 289 734 l 289 0 l 98 0 z "},"Ĳ":{"ha":1090,"x_min":93,"x_max":995,"o":"m 93 0 l 93 956 l 293 956 l 293 0 l 93 0 m 673 -14 q 445 51 524 -14 q 338 259 365 115 l 537 288 q 583 179 549 214 q 674 143 616 143 q 765 183 734 143 q 795 298 795 223 l 795 799 l 605 799 l 605 956 l 995 956 l 995 302 q 910 70 995 153 q 673 -14 825 -14 z "},"ĳ":{"ha":772,"x_min":97,"x_max":674,"o":"m 97 866 l 97 1006 l 288 1006 l 288 866 l 97 866 m 97 0 l 97 734 l 288 734 l 288 0 l 97 0 m 484 866 l 484 1006 l 674 1006 l 674 866 l 484 866 m 479 -288 q 364 -282 412 -288 l 364 -148 l 399 -151 q 466 -129 448 -151 q 484 -41 484 -108 l 484 734 l 674 734 l 674 -87 q 625 -236 674 -184 q 479 -288 576 -288 z "},"Ĵ":{"ha":772,"x_min":21,"x_max":718,"o":"m 355 -14 q 127 51 207 -14 q 21 259 47 115 l 220 288 q 265 179 232 214 q 357 143 298 143 q 447 183 416 143 q 478 298 478 223 l 478 799 l 288 799 l 288 956 l 677 956 l 677 302 q 593 70 677 153 q 355 -14 508 -14 m 718 1057 l 718 1038 l 610 1038 l 472 1140 l 469 1140 l 326 1038 l 218 1038 l 218 1057 l 393 1244 l 548 1244 l 718 1057 z "},"ĵ":{"ha":386,"x_min":-61,"x_max":439,"o":"m 439 821 l 439 802 l 331 802 l 193 932 l 191 932 l 47 802 l -61 802 l -61 821 l 114 1037 l 269 1037 l 439 821 m 94 -288 q -22 -282 26 -288 l -22 -148 l 13 -151 q 80 -129 62 -151 q 98 -41 98 -108 l 98 734 l 288 734 l 288 -87 q 239 -236 288 -184 q 94 -288 190 -288 z "},"Ķ":{"ha":1003,"x_min":93,"x_max":990,"o":"m 754 0 l 411 439 l 293 349 l 293 0 l 93 0 l 93 956 l 293 956 l 293 522 l 724 956 l 957 956 l 549 551 l 990 0 l 754 0 m 593 -138 q 579 -228 593 -188 q 530 -309 564 -267 l 437 -309 q 500 -193 500 -241 l 427 -193 l 427 -53 l 593 -53 l 593 -138 z "},"ķ":{"ha":772,"x_min":97,"x_max":774,"o":"m 566 0 l 370 332 l 288 275 l 288 0 l 97 0 l 97 1006 l 288 1006 l 288 430 l 549 734 l 754 734 l 496 448 l 774 0 l 566 0 m 492 -138 q 477 -228 492 -188 q 428 -309 463 -267 l 335 -309 q 399 -193 399 -241 l 326 -193 l 326 -53 l 492 -53 l 492 -138 z "},"ĸ":{"ha":772,"x_min":97,"x_max":774,"o":"m 566 0 l 370 332 l 288 275 l 288 0 l 97 0 l 97 734 l 288 734 l 288 430 l 549 734 l 754 734 l 496 448 l 774 0 l 566 0 z "},"Ĺ":{"ha":848,"x_min":93,"x_max":806,"o":"m 93 0 l 93 956 l 293 956 l 293 155 l 806 155 l 806 0 l 93 0 m 176 1038 l 176 1059 l 347 1231 l 522 1231 l 522 1202 l 292 1038 l 176 1038 z "},"ĺ":{"ha":386,"x_min":72,"x_max":418,"o":"m 97 0 l 97 1006 l 288 1006 l 288 0 l 97 0 m 72 1091 l 72 1112 l 243 1284 l 418 1284 l 418 1255 l 187 1091 l 72 1091 z "},"Ļ":{"ha":848,"x_min":93,"x_max":806,"o":"m 93 0 l 93 956 l 293 956 l 293 155 l 806 155 l 806 0 l 93 0 m 513 -138 q 499 -228 513 -188 q 450 -309 484 -267 l 357 -309 q 420 -193 420 -241 l 347 -193 l 347 -53 l 513 -53 l 513 -138 z "},"ļ":{"ha":386,"x_min":97,"x_max":288,"o":"m 97 0 l 97 1006 l 288 1006 l 288 0 l 97 0 m 275 -138 q 261 -228 275 -188 q 212 -309 246 -267 l 119 -309 q 182 -193 182 -241 l 109 -193 l 109 -53 l 275 -53 l 275 -138 z "},"Ľ":{"ha":848,"x_min":93,"x_max":806,"o":"m 93 0 l 93 956 l 293 956 l 293 155 l 806 155 l 806 0 l 93 0 m 667 857 q 653 767 667 807 q 604 686 638 727 l 511 686 q 574 815 574 754 l 501 815 l 501 956 l 667 956 l 667 857 z "},"ľ":{"ha":535,"x_min":97,"x_max":536,"o":"m 97 0 l 97 1006 l 288 1006 l 288 0 l 97 0 m 536 907 q 521 818 536 858 q 472 737 507 778 l 379 737 q 443 866 443 805 l 370 866 l 370 1006 l 536 1006 l 536 907 z "},"Ŀ":{"ha":848,"x_min":93,"x_max":806,"o":"m 93 0 l 93 956 l 293 956 l 293 155 l 806 155 l 806 0 l 93 0 m 454 441 l 454 582 l 644 582 l 644 441 l 454 441 z "},"ŀ":{"ha":665,"x_min":97,"x_max":597,"o":"m 97 0 l 97 1006 l 288 1006 l 288 0 l 97 0 m 407 441 l 407 582 l 597 582 l 597 441 l 407 441 z "},"Ł":{"ha":848,"x_min":0,"x_max":806,"o":"m 93 0 l 93 328 l 0 283 l 0 436 l 93 481 l 93 956 l 293 956 l 293 576 l 501 676 l 501 525 l 293 425 l 293 157 l 806 157 l 806 0 l 93 0 z "},"ł":{"ha":386,"x_min":12,"x_max":375,"o":"m 288 486 l 288 0 l 97 0 l 97 380 l 12 334 l 12 479 l 97 526 l 97 1006 l 288 1006 l 288 632 l 375 682 l 375 538 l 288 486 z "},"Ń":{"ha":1003,"x_min":93,"x_max":909,"o":"m 675 0 l 258 736 q 271 564 271 629 l 271 0 l 93 0 l 93 956 l 321 956 l 744 214 q 732 400 732 316 l 732 956 l 909 956 l 909 0 l 675 0 m 389 1038 l 389 1059 l 560 1231 l 735 1231 l 735 1202 l 505 1038 l 389 1038 z "},"ń":{"ha":848,"x_min":92,"x_max":762,"o":"m 572 0 l 572 412 q 441 605 572 605 q 330 546 372 605 q 288 393 288 486 l 288 0 l 97 0 l 97 570 q 95 666 97 629 q 92 734 94 704 l 273 734 q 279 665 275 721 q 282 588 282 609 l 285 588 q 382 710 323 672 q 521 748 440 748 q 700 676 637 748 q 762 466 762 604 l 762 0 l 572 0 m 322 802 l 322 823 l 493 1019 l 668 1019 l 668 989 l 437 802 l 322 802 z "},"Ņ":{"ha":1003,"x_min":93,"x_max":909,"o":"m 675 0 l 258 736 q 271 564 271 629 l 271 0 l 93 0 l 93 956 l 321 956 l 744 214 q 732 400 732 316 l 732 956 l 909 956 l 909 0 l 675 0 m 581 -138 q 566 -228 581 -188 q 517 -309 551 -267 l 424 -309 q 488 -193 488 -241 l 414 -193 l 414 -53 l 581 -53 l 581 -138 z "},"ņ":{"ha":848,"x_min":92,"x_max":762,"o":"m 572 0 l 572 412 q 441 605 572 605 q 330 546 372 605 q 288 393 288 486 l 288 0 l 97 0 l 97 570 q 95 666 97 629 q 92 734 94 704 l 273 734 q 279 665 275 721 q 282 588 282 609 l 285 588 q 382 710 323 672 q 521 748 440 748 q 700 676 637 748 q 762 466 762 604 l 762 0 l 572 0 m 515 -138 q 500 -228 515 -188 q 451 -309 486 -267 l 358 -309 q 422 -193 422 -241 l 349 -193 l 349 -53 l 515 -53 l 515 -138 z "},"Ň":{"ha":1003,"x_min":93,"x_max":909,"o":"m 675 0 l 258 736 q 271 564 271 629 l 271 0 l 93 0 l 93 956 l 321 956 l 744 214 q 732 400 732 316 l 732 956 l 909 956 l 909 0 l 675 0 m 578 1038 l 422 1038 l 248 1225 l 248 1244 l 356 1244 l 499 1141 l 502 1141 l 640 1244 l 747 1244 l 747 1225 l 578 1038 z "},"ň":{"ha":848,"x_min":92,"x_max":762,"o":"m 572 0 l 572 412 q 441 605 572 605 q 330 546 372 605 q 288 393 288 486 l 288 0 l 97 0 l 97 570 q 95 666 97 629 q 92 734 94 704 l 273 734 q 279 665 275 721 q 282 588 282 609 l 285 588 q 382 710 323 672 q 521 748 440 748 q 700 676 637 748 q 762 466 762 604 l 762 0 l 572 0 m 494 802 l 339 802 l 164 1017 l 164 1037 l 273 1037 l 416 906 l 418 906 l 556 1037 l 664 1037 l 664 1017 l 494 802 z "},"ŉ":{"ha":984,"x_min":-15,"x_max":898,"o":"m 708 0 l 708 412 q 577 605 708 605 q 466 546 508 605 q 423 393 423 486 l 423 0 l 233 0 l 233 570 q 231 666 233 629 q 227 734 229 704 l 409 734 q 414 665 411 721 q 418 588 418 609 l 420 588 q 517 710 459 672 q 656 748 576 748 q 836 676 773 748 q 898 466 898 604 l 898 0 l 708 0 m 182 823 q 166 681 182 741 q 109 564 149 621 l -15 564 q 74 779 74 677 l -12 779 l -12 956 l 182 956 l 182 823 z "},"Ŋ":{"ha":1004,"x_min":90,"x_max":919,"o":"m 613 -14 q 463 13 524 -14 q 352 107 402 40 l 489 223 q 552 160 524 177 q 612 144 580 144 q 680 166 654 144 q 715 234 705 188 q 726 375 726 280 l 726 575 q 683 758 726 701 q 541 814 640 814 q 418 781 475 814 q 327 690 360 747 q 293 569 293 633 l 293 0 l 93 0 l 93 741 l 90 956 l 286 956 q 293 785 293 873 l 296 785 q 427 920 340 871 q 620 969 514 969 q 848 882 778 969 q 919 603 919 794 l 919 368 q 845 75 919 164 q 613 -14 772 -14 z "},"ŋ":{"ha":848,"x_min":92,"x_max":762,"o":"m 568 -288 q 452 -282 500 -288 l 452 -148 l 487 -151 q 555 -129 537 -151 q 572 -41 572 -106 l 572 412 q 441 605 572 605 q 330 546 372 605 q 288 393 288 486 l 288 0 l 97 0 l 97 570 q 95 666 97 629 q 92 734 94 704 l 273 734 q 279 665 275 721 q 282 588 282 609 l 285 588 q 382 710 323 672 q 521 748 440 748 q 700 676 637 748 q 762 466 762 604 l 762 -87 q 713 -236 762 -184 q 568 -288 664 -288 z "},"Ō":{"ha":1080,"x_min":57,"x_max":1022,"o":"m 1022 482 q 963 220 1022 333 q 794 46 904 106 q 538 -14 684 -14 q 185 119 313 -14 q 57 482 57 252 q 184 841 57 712 q 539 970 312 970 q 894 840 766 970 q 1022 482 1022 709 m 818 482 q 745 725 818 637 q 539 812 671 812 q 332 725 405 812 q 258 482 258 638 q 333 234 258 325 q 538 144 408 144 q 745 232 672 144 q 818 482 818 320 m 332 1156 l 747 1156 l 747 1042 l 332 1042 l 332 1156 z "},"ō":{"ha":848,"x_min":54,"x_max":794,"o":"m 794 368 q 695 88 794 189 q 421 -14 596 -14 q 152 88 250 -14 q 54 368 54 190 q 152 646 54 545 q 425 747 250 747 q 700 649 605 747 q 794 368 794 551 m 595 368 q 552 557 595 498 q 428 616 509 616 q 254 368 254 616 q 297 181 254 245 q 419 117 339 117 q 595 368 595 117 m 220 930 l 635 930 l 635 816 l 220 816 l 220 930 z "},"Ŏ":{"ha":1080,"x_min":57,"x_max":1022,"o":"m 1022 482 q 963 220 1022 333 q 794 46 904 106 q 538 -14 684 -14 q 185 119 313 -14 q 57 482 57 252 q 184 841 57 712 q 539 970 312 970 q 894 840 766 970 q 1022 482 1022 709 m 818 482 q 745 725 818 637 q 539 812 671 812 q 332 725 405 812 q 258 482 258 638 q 333 234 258 325 q 538 144 408 144 q 745 232 672 144 q 818 482 818 320 m 532 1031 q 367 1086 433 1031 q 293 1226 300 1141 l 404 1226 q 450 1159 414 1184 q 533 1134 486 1134 q 617 1159 582 1134 q 662 1226 652 1183 l 773 1226 q 695 1083 760 1136 q 532 1031 631 1031 z "},"ŏ":{"ha":848,"x_min":54,"x_max":794,"o":"m 794 368 q 695 88 794 189 q 421 -14 596 -14 q 152 88 250 -14 q 54 368 54 190 q 152 646 54 545 q 425 747 250 747 q 700 649 605 747 q 794 368 794 551 m 595 368 q 552 557 595 498 q 428 616 509 616 q 254 368 254 616 q 297 181 254 245 q 419 117 339 117 q 595 368 595 117 m 428 802 q 261 864 326 802 q 189 1021 197 926 l 300 1021 q 346 939 311 969 q 429 909 381 909 q 513 938 477 909 q 558 1021 549 968 l 669 1021 q 594 862 657 921 q 428 802 532 802 z "},"Ő":{"ha":1080,"x_min":57,"x_max":1022,"o":"m 1022 482 q 963 220 1022 333 q 794 46 904 106 q 538 -14 684 -14 q 185 119 313 -14 q 57 482 57 252 q 184 841 57 712 q 539 970 312 970 q 894 840 766 970 q 1022 482 1022 709 m 818 482 q 745 725 818 637 q 539 812 671 812 q 332 725 405 812 q 258 482 258 638 q 333 234 258 325 q 538 144 408 144 q 745 232 672 144 q 818 482 818 320 m 414 1038 l 325 1038 l 325 1061 l 471 1232 l 630 1232 l 630 1202 l 414 1038 m 690 1038 l 600 1038 l 600 1061 l 746 1232 l 905 1232 l 905 1202 l 690 1038 z "},"ő":{"ha":848,"x_min":54,"x_max":794,"o":"m 794 368 q 695 88 794 189 q 421 -14 596 -14 q 152 88 250 -14 q 54 368 54 190 q 152 646 54 545 q 425 747 250 747 q 700 649 605 747 q 794 368 794 551 m 595 368 q 552 557 595 498 q 428 616 509 616 q 254 368 254 616 q 297 181 254 245 q 419 117 339 117 q 595 368 595 117 m 295 803 l 199 803 l 199 826 l 351 1006 l 511 1006 l 511 977 l 295 803 m 570 803 l 474 803 l 474 826 l 627 1006 l 786 1006 l 786 977 l 570 803 z "},"Œ":{"ha":1389,"x_min":57,"x_max":1335,"o":"m 673 0 q 611 -4 647 -1 q 538 -7 574 -7 q 184 123 311 -7 q 57 482 57 253 q 184 837 57 711 q 539 963 311 963 q 677 956 587 963 l 1307 956 l 1307 802 l 854 802 l 854 561 l 1265 561 l 1265 411 l 854 411 l 854 154 l 1335 154 l 1335 0 l 673 0 m 653 793 q 539 806 605 806 q 331 721 404 806 q 258 482 258 637 q 333 239 258 327 q 538 151 407 151 q 653 164 616 151 l 653 793 z "},"œ":{"ha":1311,"x_min":54,"x_max":1266,"o":"m 939 -14 q 688 94 777 -14 q 421 -14 591 -14 q 152 88 250 -14 q 54 368 54 190 q 152 646 54 545 q 425 747 250 747 q 692 644 599 747 q 941 747 783 747 q 1183 643 1099 747 q 1266 336 1266 538 l 1266 323 l 795 323 q 836 169 795 224 q 948 114 876 114 q 1076 201 1049 114 l 1255 186 q 939 -14 1177 -14 m 595 368 q 552 557 595 498 q 428 616 509 616 q 254 368 254 616 q 297 181 254 245 q 419 117 339 117 q 595 368 595 117 m 939 627 q 835 581 871 627 q 797 450 799 534 l 1082 450 q 1039 583 1076 538 q 939 627 1002 627 z "},"Ŕ":{"ha":1003,"x_min":93,"x_max":975,"o":"m 749 0 l 528 363 l 293 363 l 293 0 l 93 0 l 93 956 l 570 956 q 834 882 741 956 q 927 671 927 808 q 870 497 927 570 q 716 401 813 425 l 975 0 l 749 0 m 726 663 q 549 800 726 800 l 293 800 l 293 518 l 555 518 q 682 556 639 518 q 726 663 726 594 m 372 1038 l 372 1059 l 543 1231 l 718 1231 l 718 1202 l 487 1038 l 372 1038 z "},"ŕ":{"ha":541,"x_min":92,"x_max":528,"o":"m 97 0 l 97 562 q 95 662 97 622 q 92 734 94 703 l 273 734 q 279 660 275 722 q 282 577 282 597 l 285 577 q 334 686 313 654 q 386 733 356 718 q 460 748 416 748 q 519 738 497 748 l 519 578 q 438 589 473 589 q 327 531 367 589 q 288 360 288 473 l 288 0 l 97 0 m 182 802 l 182 823 l 353 1019 l 528 1019 l 528 989 l 298 802 l 182 802 z "},"Ŗ":{"ha":1003,"x_min":93,"x_max":975,"o":"m 749 0 l 528 363 l 293 363 l 293 0 l 93 0 l 93 956 l 570 956 q 834 882 741 956 q 927 671 927 808 q 870 497 927 570 q 716 401 813 425 l 975 0 l 749 0 m 726 663 q 549 800 726 800 l 293 800 l 293 518 l 555 518 q 682 556 639 518 q 726 663 726 594 m 587 -138 q 572 -228 587 -188 q 523 -309 557 -267 l 430 -309 q 494 -193 494 -241 l 420 -193 l 420 -53 l 587 -53 l 587 -138 z "},"ŗ":{"ha":541,"x_min":92,"x_max":519,"o":"m 97 0 l 97 562 q 95 662 97 622 q 92 734 94 703 l 273 734 q 279 660 275 722 q 282 577 282 597 l 285 577 q 334 686 313 654 q 386 733 356 718 q 460 748 416 748 q 519 738 497 748 l 519 578 q 438 589 473 589 q 327 531 367 589 q 288 360 288 473 l 288 0 l 97 0 m 275 -138 q 260 -228 275 -188 q 211 -309 245 -267 l 118 -309 q 182 -193 182 -241 l 109 -193 l 109 -53 l 275 -53 l 275 -138 z "},"Ř":{"ha":1003,"x_min":93,"x_max":975,"o":"m 749 0 l 528 363 l 293 363 l 293 0 l 93 0 l 93 956 l 570 956 q 834 882 741 956 q 927 671 927 808 q 870 497 927 570 q 716 401 813 425 l 975 0 l 749 0 m 726 663 q 549 800 726 800 l 293 800 l 293 518 l 555 518 q 682 556 639 518 q 726 663 726 594 m 555 1038 l 399 1038 l 224 1225 l 224 1244 l 333 1244 l 476 1141 l 479 1141 l 616 1244 l 724 1244 l 724 1225 l 555 1038 z "},"ř":{"ha":541,"x_min":38,"x_max":538,"o":"m 97 0 l 97 562 q 95 662 97 622 q 92 734 94 703 l 273 734 q 279 660 275 722 q 282 577 282 597 l 285 577 q 334 686 313 654 q 386 733 356 718 q 460 748 416 748 q 519 738 497 748 l 519 578 q 438 589 473 589 q 327 531 367 589 q 288 360 288 473 l 288 0 l 97 0 m 368 802 l 213 802 l 38 1017 l 38 1037 l 146 1037 l 290 906 l 292 906 l 430 1037 l 538 1037 l 538 1017 l 368 802 z "},"Ś":{"ha":926,"x_min":40,"x_max":872,"o":"m 872 275 q 768 61 872 135 q 463 -14 664 -14 q 174 52 279 -14 q 40 249 70 117 l 233 281 q 310 171 253 205 q 468 136 367 136 q 677 264 677 136 q 653 331 677 304 q 586 375 629 357 q 418 418 542 393 q 269 458 311 443 q 193 494 227 473 q 135 544 159 515 q 98 612 111 573 q 85 703 85 652 q 182 901 85 832 q 465 970 279 970 q 732 914 643 970 q 847 730 821 859 l 653 704 q 592 797 638 766 q 461 828 547 828 q 279 714 279 828 q 299 653 279 677 q 356 613 318 629 q 510 571 394 596 q 707 517 648 542 q 801 459 766 492 q 854 381 836 427 q 872 275 872 335 m 376 1038 l 376 1059 l 547 1231 l 722 1231 l 722 1202 l 492 1038 l 376 1038 z "},"ś":{"ha":772,"x_min":49,"x_max":715,"o":"m 715 214 q 628 47 715 108 q 387 -14 541 -14 q 156 34 236 -14 q 49 183 75 82 l 216 208 q 266 134 231 156 q 387 113 300 113 q 504 133 467 113 q 541 197 541 153 q 511 253 541 232 q 411 288 481 273 q 193 347 250 319 q 107 418 137 374 q 78 526 78 462 q 159 689 78 631 q 389 748 240 748 q 599 697 519 748 q 699 550 679 646 l 530 532 q 490 599 522 577 q 389 621 458 621 q 287 604 321 621 q 253 546 253 587 q 279 495 253 514 q 367 465 305 477 q 520 428 453 447 q 627 384 587 410 q 691 318 667 358 q 715 214 715 277 m 271 802 l 271 823 l 442 1019 l 617 1019 l 617 989 l 387 802 l 271 802 z "},"Ŝ":{"ha":926,"x_min":40,"x_max":872,"o":"m 872 275 q 768 61 872 135 q 463 -14 664 -14 q 174 52 279 -14 q 40 249 70 117 l 233 281 q 310 171 253 205 q 468 136 367 136 q 677 264 677 136 q 653 331 677 304 q 586 375 629 357 q 418 418 542 393 q 269 458 311 443 q 193 494 227 473 q 135 544 159 515 q 98 612 111 573 q 85 703 85 652 q 182 901 85 832 q 465 970 279 970 q 732 914 643 970 q 847 730 821 859 l 653 704 q 592 797 638 766 q 461 828 547 828 q 279 714 279 828 q 299 653 279 677 q 356 613 318 629 q 510 571 394 596 q 707 517 648 542 q 801 459 766 492 q 854 381 836 427 q 872 275 872 335 m 732 1057 l 732 1038 l 624 1038 l 486 1140 l 484 1140 l 340 1038 l 232 1038 l 232 1057 l 407 1244 l 562 1244 l 732 1057 z "},"ŝ":{"ha":772,"x_min":49,"x_max":715,"o":"m 715 214 q 628 47 715 108 q 387 -14 541 -14 q 156 34 236 -14 q 49 183 75 82 l 216 208 q 266 134 231 156 q 387 113 300 113 q 504 133 467 113 q 541 197 541 153 q 511 253 541 232 q 411 288 481 273 q 193 347 250 319 q 107 418 137 374 q 78 526 78 462 q 159 689 78 631 q 389 748 240 748 q 599 697 519 748 q 699 550 679 646 l 530 532 q 490 599 522 577 q 389 621 458 621 q 287 604 321 621 q 253 546 253 587 q 279 495 253 514 q 367 465 305 477 q 520 428 453 447 q 627 384 587 410 q 691 318 667 358 q 715 214 715 277 m 634 821 l 634 802 l 526 802 l 389 932 l 386 932 l 243 802 l 134 802 l 134 821 l 309 1037 l 465 1037 l 634 821 z "},"Ş":{"ha":926,"x_min":40,"x_max":872,"o":"m 872 275 q 768 61 872 135 q 463 -14 664 -14 q 174 52 279 -14 q 40 249 70 117 l 233 281 q 310 171 253 205 q 468 136 367 136 q 677 264 677 136 q 653 331 677 304 q 586 375 629 357 q 418 418 542 393 q 269 458 311 443 q 193 494 227 473 q 135 544 159 515 q 98 612 111 573 q 85 703 85 652 q 182 901 85 832 q 465 970 279 970 q 732 914 643 970 q 847 730 821 859 l 653 704 q 592 797 638 766 q 461 828 547 828 q 279 714 279 828 q 299 653 279 677 q 356 613 318 629 q 510 571 394 596 q 707 517 648 542 q 801 459 766 492 q 854 381 836 427 q 872 275 872 335 m 625 -159 q 572 -256 625 -223 q 420 -288 519 -288 q 351 -284 389 -288 l 351 -204 q 408 -209 375 -209 q 501 -162 501 -209 q 482 -127 501 -138 q 418 -115 463 -115 q 383 -117 393 -115 l 425 0 l 522 0 l 500 -56 q 594 -87 564 -59 q 625 -159 625 -115 z "},"ş":{"ha":772,"x_min":49,"x_max":715,"o":"m 715 214 q 628 47 715 108 q 387 -14 541 -14 q 156 34 236 -14 q 49 183 75 82 l 216 208 q 266 134 231 156 q 387 113 300 113 q 504 133 467 113 q 541 197 541 153 q 511 253 541 232 q 411 288 481 273 q 193 347 250 319 q 107 418 137 374 q 78 526 78 462 q 159 689 78 631 q 389 748 240 748 q 599 697 519 748 q 699 550 679 646 l 530 532 q 490 599 522 577 q 389 621 458 621 q 287 604 321 621 q 253 546 253 587 q 279 495 253 514 q 367 465 305 477 q 520 428 453 447 q 627 384 587 410 q 691 318 667 358 q 715 214 715 277 m 533 -159 q 480 -256 533 -223 q 328 -288 427 -288 q 259 -284 297 -288 l 259 -204 q 316 -209 283 -209 q 409 -162 409 -209 q 390 -127 409 -138 q 326 -115 371 -115 q 291 -117 300 -115 l 333 0 l 430 0 l 408 -56 q 502 -87 471 -59 q 533 -159 533 -115 z "},"Š":{"ha":926,"x_min":40,"x_max":872,"o":"m 872 275 q 768 61 872 135 q 463 -14 664 -14 q 174 52 279 -14 q 40 249 70 117 l 233 281 q 310 171 253 205 q 468 136 367 136 q 677 264 677 136 q 653 331 677 304 q 586 375 629 357 q 418 418 542 393 q 269 458 311 443 q 193 494 227 473 q 135 544 159 515 q 98 612 111 573 q 85 703 85 652 q 182 901 85 832 q 465 970 279 970 q 732 914 643 970 q 847 730 821 859 l 653 704 q 592 797 638 766 q 461 828 547 828 q 279 714 279 828 q 299 653 279 677 q 356 613 318 629 q 510 571 394 596 q 707 517 648 542 q 801 459 766 492 q 854 381 836 427 q 872 275 872 335 m 547 1038 l 391 1038 l 216 1225 l 216 1244 l 325 1244 l 468 1141 l 471 1141 l 608 1244 l 716 1244 l 716 1225 l 547 1038 z "},"š":{"ha":772,"x_min":49,"x_max":715,"o":"m 715 214 q 628 47 715 108 q 387 -14 541 -14 q 156 34 236 -14 q 49 183 75 82 l 216 208 q 266 134 231 156 q 387 113 300 113 q 504 133 467 113 q 541 197 541 153 q 511 253 541 232 q 411 288 481 273 q 193 347 250 319 q 107 418 137 374 q 78 526 78 462 q 159 689 78 631 q 389 748 240 748 q 599 697 519 748 q 699 550 679 646 l 530 532 q 490 599 522 577 q 389 621 458 621 q 287 604 321 621 q 253 546 253 587 q 279 495 253 514 q 367 465 305 477 q 520 428 453 447 q 627 384 587 410 q 691 318 667 358 q 715 214 715 277 m 469 802 l 314 802 l 139 1017 l 139 1037 l 248 1037 l 391 906 l 393 906 l 531 1037 l 639 1037 l 639 1017 l 469 802 z "},"Ţ":{"ha":848,"x_min":16,"x_max":833,"o":"m 524 801 l 524 0 l 324 0 l 324 801 l 16 801 l 16 956 l 833 956 l 833 801 l 524 801 m 576 -159 q 524 -256 576 -223 q 371 -288 471 -288 q 302 -284 340 -288 l 302 -204 q 359 -209 326 -209 q 452 -162 452 -209 q 433 -127 452 -138 q 370 -115 414 -115 q 334 -117 344 -115 l 376 0 l 473 0 l 451 -56 q 546 -87 515 -59 q 576 -159 576 -115 z "},"ţ":{"ha":463,"x_min":17,"x_max":446,"o":"m 285 -12 q 155 34 201 -12 q 110 172 110 79 l 110 605 l 17 605 l 17 734 l 119 734 l 179 906 l 298 906 l 298 734 l 437 734 l 437 605 l 298 605 l 298 224 q 319 145 298 170 q 382 119 339 119 q 446 129 404 119 l 446 11 q 285 -12 375 -12 m 433 -159 q 380 -256 433 -223 q 227 -288 327 -288 q 159 -284 197 -288 l 159 -204 q 216 -209 182 -209 q 309 -162 309 -209 q 290 -127 309 -138 q 226 -115 271 -115 q 191 -117 200 -115 l 233 0 l 330 0 l 307 -56 q 402 -87 371 -59 q 433 -159 433 -115 z "},"Ť":{"ha":848,"x_min":16,"x_max":833,"o":"m 524 801 l 524 0 l 324 0 l 324 801 l 16 801 l 16 956 l 833 956 l 833 801 l 524 801 m 508 1038 l 353 1038 l 178 1225 l 178 1244 l 286 1244 l 429 1141 l 432 1141 l 570 1244 l 677 1244 l 677 1225 l 508 1038 z "},"ť":{"ha":665,"x_min":17,"x_max":665,"o":"m 285 -12 q 155 34 201 -12 q 110 172 110 79 l 110 605 l 17 605 l 17 734 l 119 734 l 179 906 l 298 906 l 298 734 l 437 734 l 437 605 l 298 605 l 298 224 q 319 145 298 170 q 382 119 339 119 q 446 129 404 119 l 446 11 q 285 -12 375 -12 m 665 907 q 651 818 665 858 q 602 737 636 778 l 509 737 q 572 866 572 805 l 499 866 l 499 1006 l 665 1006 l 665 907 z "},"Ŧ":{"ha":848,"x_min":16,"x_max":833,"o":"m 524 801 l 524 553 l 679 553 l 679 425 l 524 425 l 524 0 l 324 0 l 324 425 l 170 425 l 170 553 l 324 553 l 324 801 l 16 801 l 16 956 l 833 956 l 833 801 l 524 801 z "},"ŧ":{"ha":463,"x_min":17,"x_max":446,"o":"m 285 -12 q 155 34 201 -12 q 110 172 110 79 l 110 321 l 24 321 l 24 450 l 110 450 l 110 605 l 17 605 l 17 734 l 119 734 l 179 906 l 298 906 l 298 734 l 437 734 l 437 605 l 298 605 l 298 450 l 424 450 l 424 321 l 298 321 l 298 224 q 319 145 298 170 q 382 119 339 119 q 446 129 404 119 l 446 11 q 285 -12 375 -12 z "},"Ũ":{"ha":1003,"x_min":83,"x_max":918,"o":"m 490 -14 q 188 83 293 -14 q 83 358 83 179 l 83 956 l 283 956 l 283 374 q 337 202 283 260 q 496 143 391 143 q 661 204 603 143 q 718 380 718 266 l 718 956 l 918 956 l 918 368 q 806 86 918 186 q 490 -14 694 -14 m 614 1038 q 554 1050 584 1038 q 495 1079 524 1063 q 441 1108 467 1095 q 395 1121 416 1121 q 353 1105 368 1121 q 329 1038 338 1090 l 236 1038 q 258 1153 241 1114 q 306 1214 275 1191 q 389 1236 337 1236 q 450 1223 419 1236 q 509 1195 480 1211 q 562 1166 537 1179 q 606 1153 587 1153 q 649 1170 633 1153 q 673 1236 664 1186 l 765 1236 q 722 1084 760 1130 q 614 1038 684 1038 z "},"ũ":{"ha":848,"x_min":86,"x_max":757,"o":"m 277 734 l 277 322 q 407 129 277 129 q 518 188 476 129 q 561 340 561 248 l 561 734 l 751 734 l 751 164 q 757 0 751 71 l 575 0 q 567 146 567 98 l 564 146 q 467 24 526 62 q 328 -14 408 -14 q 149 58 211 -14 q 86 268 86 130 l 86 734 l 277 734 m 533 802 q 473 815 503 802 q 414 844 443 828 q 360 873 386 860 q 315 886 335 886 q 272 870 287 886 q 248 802 258 854 l 155 802 q 177 917 161 879 q 225 978 194 956 q 308 1001 256 1001 q 369 988 338 1001 q 428 959 399 975 q 481 930 456 943 q 526 918 506 918 q 568 934 553 918 q 593 1001 583 951 l 684 1001 q 641 848 680 895 q 533 802 603 802 z "},"Ū":{"ha":1003,"x_min":83,"x_max":918,"o":"m 490 -14 q 188 83 293 -14 q 83 358 83 179 l 83 956 l 283 956 l 283 374 q 337 202 283 260 q 496 143 391 143 q 661 204 603 143 q 718 380 718 266 l 718 956 l 918 956 l 918 368 q 806 86 918 186 q 490 -14 694 -14 m 294 1153 l 709 1153 l 709 1039 l 294 1039 l 294 1153 z "},"ū":{"ha":848,"x_min":86,"x_max":757,"o":"m 277 734 l 277 322 q 407 129 277 129 q 518 188 476 129 q 561 340 561 248 l 561 734 l 751 734 l 751 164 q 757 0 751 71 l 575 0 q 567 146 567 98 l 564 146 q 467 24 526 62 q 328 -14 408 -14 q 149 58 211 -14 q 86 268 86 130 l 86 734 l 277 734 m 212 930 l 627 930 l 627 816 l 212 816 l 212 930 z "},"Ŭ":{"ha":1003,"x_min":83,"x_max":918,"o":"m 490 -14 q 188 83 293 -14 q 83 358 83 179 l 83 956 l 283 956 l 283 374 q 337 202 283 260 q 496 143 391 143 q 661 204 603 143 q 718 380 718 266 l 718 956 l 918 956 l 918 368 q 806 86 918 186 q 490 -14 694 -14 m 500 1031 q 335 1086 401 1031 q 261 1226 269 1141 l 372 1226 q 418 1159 382 1184 q 501 1134 454 1134 q 585 1159 550 1134 q 630 1226 621 1183 l 741 1226 q 664 1083 728 1136 q 500 1031 599 1031 z "},"ŭ":{"ha":848,"x_min":86,"x_max":757,"o":"m 277 734 l 277 322 q 407 129 277 129 q 518 188 476 129 q 561 340 561 248 l 561 734 l 751 734 l 751 164 q 757 0 751 71 l 575 0 q 567 146 567 98 l 564 146 q 467 24 526 62 q 328 -14 408 -14 q 149 58 211 -14 q 86 268 86 130 l 86 734 l 277 734 m 422 802 q 255 864 319 802 q 183 1021 191 926 l 294 1021 q 340 939 304 969 q 423 909 375 909 q 507 938 471 909 q 552 1021 543 968 l 663 1021 q 588 862 651 921 q 422 802 526 802 z "},"Ů":{"ha":1003,"x_min":83,"x_max":918,"o":"m 490 -14 q 188 83 293 -14 q 83 358 83 179 l 83 956 l 283 956 l 283 374 q 337 202 283 260 q 496 143 391 143 q 661 204 603 143 q 718 380 718 266 l 718 956 l 918 956 l 918 368 q 806 86 918 186 q 490 -14 694 -14 m 674 1169 q 624 1047 674 1098 q 502 997 574 997 q 379 1047 429 997 q 330 1169 330 1098 q 380 1291 330 1240 q 502 1341 431 1341 q 624 1291 573 1341 q 674 1169 674 1240 m 588 1169 q 563 1229 588 1204 q 502 1254 538 1254 q 442 1230 467 1254 q 417 1169 417 1205 q 442 1107 417 1131 q 502 1082 467 1082 q 563 1107 538 1082 q 588 1169 588 1133 z "},"ů":{"ha":848,"x_min":86,"x_max":757,"o":"m 277 734 l 277 322 q 407 129 277 129 q 518 188 476 129 q 561 340 561 248 l 561 734 l 751 734 l 751 164 q 757 0 751 71 l 575 0 q 567 146 567 98 l 564 146 q 467 24 526 62 q 328 -14 408 -14 q 149 58 211 -14 q 86 268 86 130 l 86 734 l 277 734 m 593 943 q 544 821 593 871 q 421 770 494 770 q 299 821 349 770 q 249 943 249 871 q 299 1064 249 1014 q 421 1115 350 1115 q 543 1064 492 1115 q 593 943 593 1014 m 507 943 q 483 1002 507 977 q 421 1027 458 1027 q 361 1003 387 1027 q 336 943 336 979 q 361 880 336 905 q 421 856 387 856 q 482 881 457 856 q 507 943 507 906 z "},"Ű":{"ha":1003,"x_min":83,"x_max":918,"o":"m 490 -14 q 188 83 293 -14 q 83 358 83 179 l 83 956 l 283 956 l 283 374 q 337 202 283 260 q 496 143 391 143 q 661 204 603 143 q 718 380 718 266 l 718 956 l 918 956 l 918 368 q 806 86 918 186 q 490 -14 694 -14 m 356 1038 l 267 1038 l 267 1061 l 412 1232 l 572 1232 l 572 1202 l 356 1038 m 631 1038 l 542 1038 l 542 1061 l 688 1232 l 847 1232 l 847 1202 l 631 1038 z "},"ű":{"ha":848,"x_min":86,"x_max":762,"o":"m 277 734 l 277 322 q 407 129 277 129 q 518 188 476 129 q 561 340 561 248 l 561 734 l 751 734 l 751 164 q 757 0 751 71 l 575 0 q 567 146 567 98 l 564 146 q 467 24 526 62 q 328 -14 408 -14 q 149 58 211 -14 q 86 268 86 130 l 86 734 l 277 734 m 271 803 l 174 803 l 174 826 l 327 1006 l 486 1006 l 486 977 l 271 803 m 546 803 l 450 803 l 450 826 l 602 1006 l 762 1006 l 762 977 l 546 803 z "},"Ų":{"ha":1003,"x_min":83,"x_max":918,"o":"m 490 -14 q 188 83 293 -14 q 83 358 83 179 l 83 956 l 283 956 l 283 374 q 337 202 283 260 q 496 143 391 143 q 661 204 603 143 q 718 380 718 266 l 718 956 l 918 956 l 918 368 q 806 86 918 186 q 490 -14 694 -14 m 581 -288 q 463 -252 506 -288 q 420 -153 420 -215 q 450 -56 420 -102 q 528 14 479 -11 l 631 14 q 566 -53 589 -14 q 544 -128 544 -92 q 561 -174 544 -157 q 608 -191 577 -191 q 684 -173 644 -191 l 684 -266 q 581 -288 641 -288 z "},"ų":{"ha":848,"x_min":86,"x_max":757,"o":"m 277 734 l 277 322 q 407 129 277 129 q 518 188 476 129 q 561 340 561 248 l 561 734 l 751 734 l 751 164 q 757 0 751 71 l 575 0 q 567 146 567 98 l 564 146 q 467 24 526 62 q 328 -14 408 -14 q 149 58 211 -14 q 86 268 86 130 l 86 734 l 277 734 m 650 -288 q 532 -252 574 -288 q 489 -153 489 -215 q 518 -56 489 -102 q 596 14 548 -11 l 700 14 q 635 -53 657 -14 q 612 -128 612 -92 q 629 -174 612 -157 q 676 -191 646 -191 q 752 -173 713 -191 l 752 -266 q 650 -288 709 -288 z "},"Ŵ":{"ha":1311,"x_min":1,"x_max":1310,"o":"m 1063 0 l 825 0 l 696 553 q 656 757 672 650 q 629 622 640 668 q 485 0 619 575 l 248 0 l 1 956 l 204 956 l 342 338 l 374 189 q 411 369 393 283 q 546 956 429 455 l 770 956 l 890 447 q 939 189 905 390 l 956 268 l 991 424 l 1107 956 l 1310 956 l 1063 0 m 907 1057 l 907 1038 l 799 1038 l 661 1140 l 659 1140 l 515 1038 l 407 1038 l 407 1057 l 582 1244 l 737 1244 l 907 1057 z "},"ŵ":{"ha":1080,"x_min":-4,"x_max":1083,"o":"m 890 0 l 689 0 l 572 448 q 541 598 564 478 l 505 446 l 387 0 l 186 0 l -4 734 l 175 734 l 296 173 l 305 223 l 322 302 l 437 734 l 642 734 l 754 302 q 782 173 764 267 l 801 262 l 907 734 l 1083 734 l 890 0 m 791 821 l 791 802 l 683 802 l 545 932 l 543 932 l 399 802 l 291 802 l 291 821 l 466 1037 l 621 1037 l 791 821 z "},"Ŷ":{"ha":926,"x_min":24,"x_max":904,"o":"m 564 392 l 564 0 l 364 0 l 364 392 l 24 956 l 233 956 l 463 551 l 694 956 l 904 956 l 564 392 m 714 1057 l 714 1038 l 606 1038 l 469 1140 l 466 1140 l 323 1038 l 214 1038 l 214 1057 l 389 1244 l 545 1244 l 714 1057 z "},"ŷ":{"ha":772,"x_min":11,"x_max":765,"o":"m 192 -288 q 72 -279 123 -288 l 72 -144 q 138 -149 108 -149 q 205 -136 178 -149 q 253 -94 232 -123 q 301 7 275 -64 l 11 734 l 212 734 l 328 390 q 396 163 355 316 l 413 228 l 457 387 l 566 734 l 765 734 l 475 -39 q 354 -234 416 -180 q 192 -288 291 -288 m 644 821 l 644 802 l 536 802 l 398 932 l 395 932 l 252 802 l 144 802 l 144 821 l 319 1037 l 474 1037 l 644 821 z "},"Ÿ":{"ha":926,"x_min":24,"x_max":904,"o":"m 564 392 l 564 0 l 364 0 l 364 392 l 24 956 l 233 956 l 463 551 l 694 956 l 904 956 l 564 392 m 547 1038 l 547 1186 l 681 1186 l 681 1038 l 547 1038 m 239 1038 l 239 1186 l 371 1186 l 371 1038 l 239 1038 z "},"Ź":{"ha":848,"x_min":41,"x_max":808,"o":"m 808 0 l 41 0 l 41 142 l 558 799 l 93 799 l 93 956 l 781 956 l 781 817 l 264 157 l 808 157 l 808 0 m 321 1038 l 321 1059 l 492 1231 l 667 1231 l 667 1202 l 436 1038 l 321 1038 z "},"ź":{"ha":694,"x_min":56,"x_max":644,"o":"m 56 0 l 56 135 l 401 596 l 83 596 l 83 734 l 611 734 l 611 597 l 268 139 l 644 139 l 644 0 l 56 0 m 228 802 l 228 823 l 399 1019 l 574 1019 l 574 989 l 343 802 l 228 802 z "},"Ż":{"ha":848,"x_min":41,"x_max":808,"o":"m 808 0 l 41 0 l 41 142 l 558 799 l 93 799 l 93 956 l 781 956 l 781 817 l 264 157 l 808 157 l 808 0 m 336 1049 l 336 1190 l 527 1190 l 527 1049 l 336 1049 z "},"ż":{"ha":694,"x_min":56,"x_max":644,"o":"m 56 0 l 56 135 l 401 596 l 83 596 l 83 734 l 611 734 l 611 597 l 268 139 l 644 139 l 644 0 l 56 0 m 264 866 l 264 1006 l 454 1006 l 454 866 l 264 866 z "},"Ž":{"ha":848,"x_min":41,"x_max":808,"o":"m 808 0 l 41 0 l 41 142 l 558 799 l 93 799 l 93 956 l 781 956 l 781 817 l 264 157 l 808 157 l 808 0 m 516 1038 l 361 1038 l 186 1225 l 186 1244 l 294 1244 l 437 1141 l 440 1141 l 578 1244 l 686 1244 l 686 1225 l 516 1038 z "},"ž":{"ha":694,"x_min":56,"x_max":644,"o":"m 56 0 l 56 135 l 401 596 l 83 596 l 83 734 l 611 734 l 611 597 l 268 139 l 644 139 l 644 0 l 56 0 m 427 802 l 272 802 l 97 1017 l 97 1037 l 205 1037 l 349 906 l 351 906 l 489 1037 l 597 1037 l 597 1017 l 427 802 z "},"ſ":{"ha":386,"x_min":96,"x_max":431,"o":"m 96 810 q 149 958 96 910 q 310 1006 202 1006 q 431 996 363 1006 l 431 873 q 375 879 403 879 q 306 860 326 879 q 286 791 286 840 l 286 0 l 96 0 l 96 810 z "},"ƀ":{"ha":848,"x_min":7,"x_max":791,"o":"m 7 912 l 97 912 l 97 1006 l 288 1006 l 288 912 l 498 912 l 498 797 l 288 797 l 288 699 l 285 579 l 288 579 q 522 720 352 720 q 723 627 654 720 q 791 356 791 534 q 719 82 791 177 q 510 -14 647 -14 q 374 21 431 -14 q 288 118 317 55 l 286 118 q 283 53 286 94 q 277 0 280 12 l 92 0 q 97 168 97 63 l 97 797 l 7 797 l 7 912 m 593 356 q 557 532 593 477 q 443 588 521 588 q 323 527 361 588 q 285 350 285 467 q 322 177 285 237 q 441 117 360 117 q 556 175 520 117 q 593 356 593 233 z "},"Ɓ":{"ha":1162,"x_min":0,"x_max":1101,"o":"m 691 956 q 956 895 867 956 q 1046 715 1046 833 q 1001 578 1046 634 q 863 503 956 522 q 1040 430 979 489 q 1101 273 1101 370 q 1003 71 1101 142 q 732 0 905 0 l 254 0 l 254 810 l 235 810 q 144 736 144 810 q 165 645 144 701 l 20 633 q 0 770 0 705 q 62 906 0 856 q 227 956 124 956 l 691 956 m 900 288 q 707 422 900 422 l 454 422 l 454 149 l 715 149 q 855 183 810 149 q 900 288 900 218 m 844 688 q 803 780 844 753 q 682 807 762 807 l 454 807 l 454 570 l 683 570 q 806 600 768 570 q 844 688 844 629 z "},"Ƃ":{"ha":998,"x_min":93,"x_max":943,"o":"m 943 292 q 901 139 943 205 q 779 37 859 73 q 589 0 699 0 l 93 0 l 93 956 l 812 956 l 812 802 l 293 802 l 293 570 l 611 570 q 857 497 772 570 q 943 292 943 425 m 740 288 q 693 387 740 351 q 553 422 646 422 l 293 422 l 293 149 l 557 149 q 740 288 740 149 z "},"ƃ":{"ha":848,"x_min":92,"x_max":791,"o":"m 791 356 q 717 84 791 181 q 510 -14 643 -14 q 374 21 431 -14 q 288 118 317 55 l 286 118 q 283 53 286 94 q 277 0 280 12 l 92 0 q 97 168 97 63 l 97 1006 l 600 1006 l 600 862 l 288 862 l 288 699 l 285 579 l 288 579 q 522 720 352 720 q 721 625 650 720 q 791 356 791 530 m 593 356 q 443 588 593 588 q 326 527 368 588 q 285 350 285 465 q 325 178 285 239 q 441 117 366 117 q 593 356 593 117 z "},"Ƅ":{"ha":998,"x_min":0,"x_max":943,"o":"m 943 292 q 901 139 943 205 q 779 37 859 73 q 589 0 699 0 l 93 0 l 93 680 l 0 777 l 0 802 l 242 956 l 293 956 l 293 570 l 611 570 q 857 497 772 570 q 943 292 943 425 m 740 288 q 693 387 740 351 q 553 422 646 422 l 293 422 l 293 149 l 557 149 q 740 288 740 149 z "},"ƅ":{"ha":848,"x_min":0,"x_max":791,"o":"m 288 726 l 285 606 l 288 606 q 522 747 352 747 q 722 649 652 747 q 791 370 791 550 q 719 87 791 188 q 510 -14 646 -14 q 374 21 431 -14 q 288 118 317 55 l 286 118 q 283 53 286 94 q 277 0 280 12 l 92 0 q 97 168 97 63 l 97 744 l 0 841 l 0 865 l 237 1006 l 288 1006 l 288 726 m 593 370 q 556 555 593 494 q 443 615 519 615 q 325 550 366 615 q 285 363 285 486 q 325 182 285 247 q 441 117 364 117 q 593 370 593 117 z "},"Ɔ":{"ha":1003,"x_min":38,"x_max":946,"o":"m 464 812 q 212 631 283 812 l 38 696 q 203 902 94 835 q 464 970 312 970 q 820 839 694 970 q 946 474 946 709 q 825 113 946 239 q 473 -14 703 -14 q 199 54 304 -14 q 50 252 93 121 l 227 300 q 314 186 249 229 q 469 144 380 144 q 674 228 604 144 q 745 474 745 312 q 672 726 745 639 q 464 812 600 812 z "},"Ƈ":{"ha":1003,"x_min":57,"x_max":1088,"o":"m 777 656 q 689 770 754 728 q 534 812 623 812 q 329 728 399 812 q 258 482 258 644 q 331 231 258 317 q 539 144 403 144 q 688 186 625 144 q 791 326 751 229 l 965 260 q 801 55 910 123 q 539 -14 692 -14 q 183 117 309 -14 q 57 482 57 248 q 178 844 57 718 q 530 970 300 970 q 772 920 673 970 l 772 961 q 829 1107 772 1057 q 985 1158 885 1158 q 1088 1146 1036 1158 l 1088 1008 q 1029 1016 1049 1016 q 971 992 989 1016 q 953 920 953 969 l 953 704 l 777 656 z "},"ƈ":{"ha":772,"x_min":54,"x_max":862,"o":"m 534 493 q 494 583 526 549 q 401 616 461 616 q 254 370 254 616 q 404 117 254 117 q 495 151 458 117 q 541 253 532 185 l 732 244 q 678 110 722 169 q 564 19 635 51 q 403 -14 494 -14 q 145 86 236 -14 q 54 363 54 185 q 146 646 54 545 q 406 747 237 747 q 551 722 485 747 q 609 856 556 810 q 759 901 663 901 q 862 889 810 901 l 862 753 q 802 761 823 761 q 744 738 762 761 q 726 665 726 714 l 726 503 l 534 493 z "},"Ɖ":{"ha":1003,"x_min":5,"x_max":945,"o":"m 945 485 q 887 227 945 337 q 723 58 829 117 q 479 0 616 0 l 93 0 l 93 403 l 5 403 l 5 551 l 93 551 l 93 956 l 439 956 q 812 834 680 956 q 945 485 945 712 m 743 485 q 664 718 743 637 q 435 799 585 799 l 293 799 l 293 551 l 534 551 l 534 403 l 293 403 l 293 157 l 463 157 q 668 244 592 157 q 743 485 743 332 z "},"Ɗ":{"ha":1163,"x_min":0,"x_max":1105,"o":"m 1105 485 q 1047 227 1105 337 q 883 58 989 117 q 640 0 777 0 l 254 0 l 254 810 l 235 810 q 144 736 144 810 q 165 645 144 701 l 20 633 q 0 770 0 705 q 62 906 0 856 q 227 956 124 956 l 600 956 q 973 833 841 956 q 1105 485 1105 711 m 904 485 q 824 720 904 639 q 595 801 744 801 l 454 801 l 454 155 l 623 155 q 828 243 752 155 q 904 485 904 332 z "},"Ƌ":{"ha":998,"x_min":60,"x_max":909,"o":"m 60 292 q 145 497 60 425 q 391 570 231 570 l 709 570 l 709 802 l 190 802 l 190 956 l 909 956 l 909 0 l 413 0 q 155 79 251 0 q 60 292 60 157 m 262 288 q 446 149 262 149 l 709 149 l 709 422 l 450 422 q 309 387 356 422 q 262 288 262 351 z "},"ƌ":{"ha":848,"x_min":57,"x_max":757,"o":"m 57 356 q 128 625 57 529 q 326 720 199 720 q 561 579 496 720 l 564 579 l 561 699 l 561 862 l 248 862 l 248 1006 l 751 1006 l 751 168 q 757 0 751 63 l 572 0 q 565 52 568 11 q 562 118 562 94 l 561 118 q 473 20 530 54 q 338 -14 416 -14 q 132 84 206 -14 q 57 356 57 181 m 256 356 q 407 117 256 117 q 523 178 483 117 q 564 350 564 240 q 523 526 564 465 q 406 588 481 588 q 256 356 256 588 z "},"ƍ":{"ha":842,"x_min":54,"x_max":794,"o":"m 794 374 q 719 127 794 224 q 503 6 643 30 l 739 -165 l 739 -288 l 113 -288 l 113 -150 l 477 -150 l 195 53 q 92 180 130 100 q 54 374 54 260 q 98 572 54 488 q 226 702 142 656 q 425 747 310 747 q 699 651 604 747 q 794 374 794 555 m 595 374 q 428 616 595 616 q 254 374 254 616 q 297 193 254 255 q 419 130 340 130 q 595 374 595 130 z "},"Ǝ":{"ha":926,"x_min":54,"x_max":833,"o":"m 54 0 l 54 155 l 633 155 l 633 406 l 123 406 l 123 561 l 633 561 l 633 801 l 82 801 l 82 956 l 833 956 l 833 0 l 54 0 z "},"Ə":{"ha":1008,"x_min":57,"x_max":951,"o":"m 503 140 q 673 211 612 140 q 743 416 735 281 l 262 416 q 334 212 270 283 q 503 140 397 140 m 109 726 q 504 970 198 970 q 833 841 714 970 q 951 482 951 711 q 897 219 951 332 q 741 46 843 106 q 503 -14 640 -14 q 263 46 363 -14 q 110 217 163 105 q 57 482 57 330 q 63 575 57 534 l 740 575 q 667 753 727 689 q 503 817 608 817 q 369 783 420 817 q 288 676 318 748 l 109 726 z "},"Ɛ":{"ha":870,"x_min":64,"x_max":839,"o":"m 431 -14 q 161 63 258 -14 q 64 271 64 140 q 121 419 64 361 q 278 492 178 477 q 88 712 88 541 q 183 898 88 826 q 435 969 278 969 q 675 904 583 969 q 814 703 768 839 l 633 661 q 438 822 583 822 q 323 789 365 822 q 281 695 281 757 q 330 595 281 627 q 481 562 379 562 l 522 562 l 522 408 l 481 408 q 313 378 367 408 q 259 279 259 348 q 304 177 259 214 q 437 141 350 141 q 660 313 597 141 l 839 250 q 692 51 793 116 q 431 -14 591 -14 z "},"Ƒ":{"ha":848,"x_min":-52,"x_max":798,"o":"m 293 801 l 293 505 l 782 505 l 782 351 l 293 351 l 293 -22 q 60 -288 293 -288 q -52 -275 10 -288 l -52 -125 q 13 -134 -5 -134 q 75 -108 57 -134 q 93 -28 93 -82 l 93 956 l 798 956 l 798 801 l 293 801 z "},"ƒ":{"ha":772,"x_min":114,"x_max":701,"o":"m 673 846 q 641 853 663 849 q 604 857 619 857 q 541 835 560 857 q 513 771 522 812 l 500 699 l 644 699 l 619 570 l 475 570 l 304 -288 l 114 -288 l 284 570 l 177 570 l 202 699 l 309 699 l 328 790 q 407 938 345 890 q 577 986 469 986 q 642 980 606 986 q 701 966 677 975 l 673 846 z "},"Ɠ":{"ha":1080,"x_min":57,"x_max":1109,"o":"m 547 143 q 698 166 625 143 q 811 224 771 189 l 811 356 l 578 356 l 578 504 l 994 504 l 994 153 q 797 31 918 75 q 541 -14 675 -14 q 182 116 308 -14 q 57 482 57 245 q 183 844 57 718 q 546 970 309 970 q 793 921 693 970 l 793 961 q 850 1107 793 1057 q 1006 1158 906 1158 q 1109 1146 1057 1158 l 1109 1008 q 1050 1016 1070 1016 q 992 992 1010 1016 q 974 920 974 969 l 974 721 l 789 665 q 696 775 760 738 q 546 812 632 812 q 332 727 405 812 q 258 482 258 642 q 334 232 258 320 q 547 143 410 143 z "},"Ɣ":{"ha":884,"x_min":9,"x_max":876,"o":"m 9 956 l 218 956 l 445 368 l 669 956 l 876 956 l 545 183 q 636 -3 614 58 q 659 -102 659 -63 q 603 -240 659 -193 q 445 -288 547 -288 q 288 -239 345 -288 q 232 -102 232 -190 q 252 -2 232 -59 q 342 183 272 55 l 9 956 m 498 -82 q 488 -27 498 -57 q 445 64 478 3 q 407 -11 414 9 q 396 -46 400 -30 q 393 -81 393 -63 q 407 -129 393 -114 q 445 -144 422 -144 q 483 -130 468 -144 q 498 -82 498 -115 z "},"ƕ":{"ha":1293,"x_min":97,"x_max":1211,"o":"m 891 -14 q 650 65 728 -14 q 572 309 572 144 l 572 411 q 441 604 572 604 q 330 545 372 604 q 288 393 288 486 l 288 0 l 97 0 l 97 1006 l 288 1006 l 288 732 q 282 587 288 658 l 285 587 q 382 709 323 671 q 521 747 440 747 q 700 675 637 747 q 762 465 762 604 l 762 304 q 794 172 762 214 q 891 130 827 130 q 1021 304 1021 130 l 1021 734 l 1211 734 l 1211 309 q 891 -14 1211 -14 z "},"Ɩ":{"ha":386,"x_min":93,"x_max":293,"o":"m 93 0 l 93 956 l 293 956 l 293 0 l 93 0 z "},"Ɨ":{"ha":386,"x_min":0,"x_max":386,"o":"m 0 561 l 93 561 l 93 956 l 293 956 l 293 561 l 386 561 l 386 406 l 293 406 l 293 0 l 93 0 l 93 406 l 0 406 l 0 561 z "},"Ƙ":{"ha":1003,"x_min":93,"x_max":990,"o":"m 754 0 l 411 439 l 293 349 l 293 0 l 93 0 l 93 703 q 318 970 93 970 q 427 956 366 970 l 427 807 q 363 816 381 816 q 311 798 328 816 q 293 732 293 781 l 293 522 l 724 956 l 957 956 l 549 551 l 990 0 l 754 0 z "},"ƙ":{"ha":772,"x_min":97,"x_max":774,"o":"m 566 0 l 370 332 l 288 275 l 288 0 l 97 0 l 97 816 q 156 961 97 909 q 320 1013 216 1013 q 444 1001 386 1013 l 444 865 q 406 870 431 868 q 366 873 380 873 q 306 849 325 873 q 288 777 288 825 l 288 430 l 549 734 l 754 734 l 496 448 l 774 0 l 566 0 z "},"ƚ":{"ha":386,"x_min":14,"x_max":372,"o":"m 14 560 l 97 560 l 97 1006 l 288 1006 l 288 560 l 372 560 l 372 433 l 288 433 l 288 0 l 97 0 l 97 433 l 14 433 l 14 560 z "},"ƛ":{"ha":772,"x_min":11,"x_max":765,"o":"m 37 786 l 229 868 l 174 1006 l 376 1006 l 401 941 l 524 994 l 574 877 l 447 823 l 765 0 l 566 0 l 386 541 l 212 0 l 11 0 l 288 726 l 277 750 l 87 669 l 37 786 z "},"Ɯ":{"ha":1377,"x_min":93,"x_max":1284,"o":"m 789 956 l 789 323 q 822 176 789 222 q 924 130 855 130 q 1041 189 998 130 q 1084 341 1084 248 l 1084 956 l 1284 956 l 1284 1 l 1080 1 l 1072 115 l 1069 115 q 975 16 1030 46 q 843 -14 919 -14 q 700 20 755 -14 q 616 123 644 53 l 612 123 q 504 17 564 48 q 350 -14 444 -14 q 160 59 227 -14 q 93 269 93 132 l 93 956 l 293 956 l 293 323 q 327 176 293 222 q 429 130 361 130 q 545 186 500 130 q 589 332 589 242 l 589 956 l 789 956 z "},"Ɲ":{"ha":1003,"x_min":-52,"x_max":909,"o":"m 321 956 l 744 214 q 732 400 732 316 l 732 956 l 909 956 l 909 0 l 675 0 l 258 736 q 271 564 271 629 l 271 -35 q 222 -229 271 -170 q 60 -288 174 -288 q -52 -275 10 -288 l -52 -119 q 13 -127 -5 -127 q 75 -101 57 -127 q 93 -22 93 -75 l 93 956 l 321 956 z "},"ƞ":{"ha":848,"x_min":92,"x_max":762,"o":"m 572 -288 l 572 412 q 441 605 572 605 q 330 546 372 605 q 288 393 288 486 l 288 0 l 97 0 l 97 570 q 92 734 97 663 l 273 734 q 279 665 275 721 q 282 588 282 609 l 285 588 q 382 710 323 672 q 521 748 440 748 q 700 676 637 748 q 762 466 762 604 l 762 -288 l 572 -288 z "},"Ɵ":{"ha":1080,"x_min":57,"x_max":1022,"o":"m 1022 482 q 963 220 1022 333 q 794 46 904 106 q 538 -14 684 -14 q 185 119 313 -14 q 57 482 57 252 q 184 841 57 712 q 539 970 312 970 q 798 911 689 970 q 965 742 907 852 q 1022 482 1022 631 m 538 144 q 728 215 656 144 q 813 414 800 286 l 262 414 q 350 217 277 290 q 538 144 422 144 m 539 812 q 355 750 427 812 q 266 572 284 687 l 810 572 q 721 748 791 684 q 539 812 650 812 z "},"Ơ":{"ha":1185,"x_min":57,"x_max":1183,"o":"m 1183 813 q 1019 536 1183 597 l 1022 482 q 963 220 1022 333 q 794 46 904 106 q 538 -14 684 -14 q 185 119 313 -14 q 57 482 57 252 q 184 841 57 712 q 539 970 312 970 q 846 881 724 970 q 1006 629 968 792 q 1089 779 1089 671 l 1004 779 l 1004 956 l 1183 956 l 1183 813 m 818 482 q 745 725 818 637 q 539 812 671 812 q 332 725 405 812 q 258 482 258 638 q 333 234 258 325 q 538 144 408 144 q 745 232 672 144 q 818 482 818 320 z "},"ơ":{"ha":987,"x_min":54,"x_max":987,"o":"m 987 591 q 940 405 987 475 q 791 308 892 334 q 677 71 775 155 q 421 -14 580 -14 q 152 88 250 -14 q 54 368 54 190 q 152 646 54 545 q 425 747 250 747 q 692 657 598 747 q 793 398 786 568 q 894 557 894 436 l 809 557 l 809 734 l 987 734 l 987 591 m 595 368 q 552 557 595 498 q 428 616 509 616 q 254 368 254 616 q 297 181 254 245 q 419 117 339 117 q 552 179 509 117 q 595 368 595 241 z "},"Ƣ":{"ha":1232,"x_min":57,"x_max":1130,"o":"m 939 -288 l 939 801 l 808 801 l 808 56 q 682 6 761 26 q 527 -14 603 -14 q 179 117 300 -14 q 57 482 57 247 q 178 844 57 718 q 530 970 300 970 q 778 913 665 970 l 1080 966 l 1130 966 l 1130 -288 l 939 -288 m 539 140 q 617 150 581 140 l 617 806 q 534 816 576 816 q 329 730 399 816 q 258 482 258 645 q 331 229 258 317 q 539 140 403 140 z "},"ƣ":{"ha":1033,"x_min":54,"x_max":935,"o":"m 650 45 q 545 2 606 17 q 414 -14 483 -14 q 150 87 245 -14 q 54 368 54 188 q 149 647 54 547 q 418 747 243 747 q 641 688 547 747 l 883 747 l 935 747 l 935 -288 l 764 -288 l 764 595 l 650 595 l 650 45 m 414 117 q 475 125 446 117 l 475 610 q 423 616 452 616 q 295 556 336 616 q 255 368 255 496 q 295 180 255 244 q 414 117 336 117 z "},"Ƥ":{"ha":1086,"x_min":0,"x_max":1040,"o":"m 235 810 q 144 736 144 810 q 165 645 144 701 l 20 633 q 0 770 0 705 q 62 906 0 856 q 227 956 124 956 l 683 956 q 947 877 854 956 q 1040 653 1040 798 q 997 488 1040 560 q 877 376 955 415 q 691 336 798 336 l 454 336 l 454 0 l 254 0 l 254 810 l 235 810 m 838 650 q 661 800 838 800 l 454 800 l 454 490 l 666 490 q 793 531 749 490 q 838 650 838 572 z "},"ƥ":{"ha":848,"x_min":97,"x_max":791,"o":"m 791 370 q 718 86 791 186 q 510 -14 644 -14 q 373 21 431 -14 q 288 117 315 56 l 283 117 q 288 -7 288 96 l 288 -288 l 97 -288 l 97 816 q 156 961 97 909 q 321 1013 216 1013 q 396 1008 355 1013 q 453 1001 437 1004 l 453 858 q 415 864 441 861 q 376 866 390 866 q 285 776 285 866 l 285 612 l 288 612 q 522 747 352 747 q 721 649 650 747 q 791 370 791 551 m 593 370 q 441 617 593 617 q 325 551 366 617 q 285 365 285 484 q 325 181 285 246 q 440 117 365 117 q 593 370 593 117 z "},"Ʀ":{"ha":926,"x_min":93,"x_max":908,"o":"m 692 -224 l 468 243 l 293 243 l 293 0 l 93 0 l 93 956 l 293 956 l 293 836 l 504 836 q 768 763 675 836 q 861 551 861 689 q 804 378 861 451 q 650 282 747 305 l 908 -224 l 692 -224 m 659 543 q 483 681 659 681 l 293 681 l 293 399 l 488 399 q 616 437 572 399 q 659 543 659 475 z "},"Ƨ":{"ha":926,"x_min":54,"x_max":886,"o":"m 54 275 q 69 372 54 331 q 109 442 83 412 q 169 492 134 471 q 243 526 203 512 q 328 551 283 541 q 416 571 372 561 q 570 612 532 595 q 628 653 608 629 q 647 714 647 677 q 465 828 647 828 q 334 797 380 828 q 273 704 288 766 l 79 730 q 196 914 105 858 q 466 970 286 970 q 746 902 650 970 q 842 703 842 834 q 828 611 842 650 q 790 543 814 572 q 731 493 766 514 q 654 457 697 473 q 509 418 610 441 l 412 395 q 289 345 329 376 q 249 264 249 313 q 458 136 249 136 q 616 170 559 136 q 693 281 673 204 l 886 249 q 458 -14 828 -14 q 156 60 258 -14 q 54 275 54 134 z "},"ƨ":{"ha":772,"x_min":57,"x_max":724,"o":"m 57 214 q 87 327 57 282 q 175 399 117 371 q 406 464 233 428 q 494 495 468 476 q 519 546 519 514 q 486 604 519 587 q 384 621 452 621 q 283 599 315 621 q 243 532 251 576 l 74 550 q 175 697 94 646 q 388 748 256 748 q 615 690 535 748 q 694 526 694 632 q 664 416 694 460 q 574 345 633 372 q 362 288 515 318 q 261 253 291 273 q 232 197 232 232 q 269 133 232 153 q 385 113 306 113 q 507 134 471 113 q 556 208 542 155 l 724 183 q 616 35 698 83 q 382 -14 535 -14 q 144 46 231 -14 q 57 214 57 106 z "},"Ʃ":{"ha":833,"x_min":61,"x_max":791,"o":"m 61 0 l 61 159 l 365 503 l 73 798 l 73 956 l 750 956 l 750 801 l 277 801 l 529 548 l 529 457 l 262 155 l 791 155 l 791 0 l 61 0 z "},"ƪ":{"ha":500,"x_min":16,"x_max":559,"o":"m 16 872 q 59 973 16 936 q 174 1010 102 1010 q 344 945 288 1010 q 401 750 401 879 l 401 -46 q 481 -142 401 -142 q 520 -139 494 -142 q 559 -134 547 -137 l 559 -277 q 435 -288 513 -288 q 212 -65 212 -288 l 212 749 q 147 734 182 734 q 52 772 87 734 q 16 872 16 810 m 98 872 q 115 829 98 845 q 157 813 132 813 q 198 829 181 813 q 215 872 215 845 q 198 915 215 899 q 157 931 181 931 q 115 915 132 931 q 98 872 98 899 z "},"ƫ":{"ha":463,"x_min":17,"x_max":446,"o":"m 198 -149 q 278 -53 278 -149 l 278 -12 q 154 36 197 -10 q 110 172 110 81 l 110 605 l 17 605 l 17 734 l 119 734 l 179 906 l 298 906 l 298 734 l 437 734 l 437 605 l 298 605 l 298 224 q 319 145 298 170 q 382 119 339 119 q 446 129 404 119 l 446 -83 q 394 -234 446 -180 q 237 -288 342 -288 q 123 -275 185 -288 l 123 -138 q 198 -149 172 -149 z "},"Ƭ":{"ha":848,"x_min":0,"x_max":833,"o":"m 235 801 q 144 736 144 801 q 165 645 144 701 l 20 633 q 0 770 0 705 q 57 905 0 855 q 214 956 113 956 l 833 956 l 833 801 l 524 801 l 524 0 l 324 0 l 324 801 l 235 801 z "},"ƭ":{"ha":463,"x_min":17,"x_max":454,"o":"m 285 -12 q 155 34 201 -12 q 110 172 110 79 l 110 605 l 17 605 l 17 734 l 108 734 l 108 816 q 167 961 108 909 q 331 1013 227 1013 q 454 1001 397 1013 l 454 865 q 417 870 442 868 q 377 873 391 873 q 317 849 336 873 q 298 777 298 825 l 298 734 l 437 734 l 437 605 l 298 605 l 298 224 q 319 145 298 170 q 382 119 339 119 q 446 129 404 119 l 446 11 q 285 -12 375 -12 z "},"Ʈ":{"ha":848,"x_min":16,"x_max":833,"o":"m 16 801 l 16 956 l 833 956 l 833 801 l 524 801 l 524 -28 q 543 -108 524 -82 q 604 -134 561 -134 q 669 -125 623 -134 l 669 -275 q 557 -288 607 -288 q 382 -224 439 -288 q 324 -24 324 -161 l 324 801 l 16 801 z "},"Ư":{"ha":1152,"x_min":83,"x_max":1152,"o":"m 485 -14 q 186 81 290 -14 q 83 358 83 176 l 83 956 l 283 956 l 283 374 q 490 143 283 143 q 652 204 597 143 q 708 380 708 266 l 708 956 l 908 956 l 908 608 q 1020 662 981 618 q 1059 779 1059 707 l 974 779 l 974 956 l 1152 956 l 1152 813 q 1094 611 1152 686 q 908 516 1036 536 l 908 368 q 798 86 908 186 q 485 -14 687 -14 z "},"ư":{"ha":1006,"x_min":86,"x_max":1006,"o":"m 277 734 l 277 322 q 407 129 277 129 q 518 188 476 129 q 561 340 561 248 l 561 734 l 751 734 l 751 380 q 869 436 826 389 q 912 557 912 483 l 827 557 l 827 734 l 1006 734 l 1006 591 q 943 385 1006 458 q 751 293 880 311 l 751 164 q 753 67 751 105 q 757 0 755 30 l 575 0 q 570 66 572 17 q 567 146 568 115 l 564 146 q 328 -14 491 -14 q 149 58 211 -14 q 86 268 86 130 l 86 734 l 277 734 z "},"Ʊ":{"ha":1114,"x_min":71,"x_max":1042,"o":"m 557 -15 q 310 36 416 -15 q 147 180 204 86 q 90 399 90 274 q 161 637 90 537 q 382 808 232 738 q 254 800 295 800 l 71 800 l 71 955 l 512 955 l 512 745 q 346 615 401 691 q 290 430 290 538 q 361 218 290 294 q 557 142 433 142 q 754 218 682 142 q 825 430 825 294 q 771 614 825 537 q 606 745 716 691 l 606 955 l 1042 955 l 1042 800 l 861 800 q 734 808 821 800 q 952 638 882 738 q 1023 400 1023 538 q 966 181 1023 276 q 803 36 909 87 q 557 -15 697 -15 z "},"Ʋ":{"ha":1003,"x_min":83,"x_max":914,"o":"m 914 646 q 801 153 914 320 q 463 -14 688 -14 q 181 81 279 -14 q 83 358 83 176 l 83 956 l 283 956 l 283 374 q 329 202 283 262 q 463 143 374 143 q 609 194 555 143 q 689 352 663 245 q 715 635 715 459 q 685 770 715 726 q 593 814 656 814 q 518 806 564 814 l 518 955 q 675 968 579 968 q 853 886 791 968 q 914 646 914 804 z "},"Ƴ":{"ha":1069,"x_min":24,"x_max":1008,"o":"m 463 551 l 626 840 q 706 939 664 908 q 806 970 749 970 q 1008 882 913 970 l 935 757 q 848 799 887 799 q 805 785 823 799 q 770 742 788 772 l 564 392 l 564 0 l 364 0 l 364 392 l 24 956 l 233 956 l 463 551 z "},"ƴ":{"ha":772,"x_min":11,"x_max":968,"o":"m 801 1013 q 968 962 886 1013 l 903 829 q 829 854 865 854 q 782 834 799 854 q 753 782 764 814 l 475 -39 q 358 -233 422 -178 q 192 -288 294 -288 q 72 -279 123 -288 l 72 -144 q 138 -149 108 -149 q 231 -121 197 -149 q 289 -25 264 -93 l 301 7 l 11 734 l 212 734 l 328 390 q 362 279 336 367 q 396 163 389 191 l 402 189 l 457 387 l 600 833 q 680 970 629 928 q 801 1013 730 1013 z "},"Ƶ":{"ha":848,"x_min":35,"x_max":808,"o":"m 35 566 l 375 566 l 558 799 l 93 799 l 93 956 l 781 956 l 781 817 l 585 566 l 785 566 l 785 433 l 479 433 l 264 157 l 808 157 l 808 0 l 41 0 l 41 142 l 270 433 l 35 433 l 35 566 z "},"ƶ":{"ha":694,"x_min":43,"x_max":656,"o":"m 43 429 l 279 429 l 412 596 l 74 596 l 74 734 l 623 734 l 623 597 l 485 429 l 632 429 l 632 309 l 393 309 l 258 139 l 656 139 l 656 0 l 46 0 l 46 135 l 191 309 l 43 309 l 43 429 z "},"Ʒ":{"ha":848,"x_min":18,"x_max":800,"o":"m 402 -294 q 162 -233 256 -294 q 18 -40 68 -171 l 193 28 q 278 -99 229 -60 q 396 -137 326 -137 q 550 -71 496 -137 q 604 119 604 -5 q 535 295 604 234 q 330 355 466 355 l 243 355 l 243 512 l 526 799 l 58 799 l 58 956 l 770 956 l 770 817 l 449 500 q 707 393 614 492 q 800 126 800 294 q 751 -96 800 -1 q 612 -243 703 -192 q 402 -294 521 -294 z "},"Ƹ":{"ha":848,"x_min":49,"x_max":831,"o":"m 446 -294 q 155 -184 260 -294 q 49 115 49 -75 q 92 314 49 229 q 215 447 136 399 q 399 500 294 495 l 78 817 l 78 956 l 790 956 l 790 799 l 322 799 l 605 512 l 605 355 l 518 355 q 313 295 382 355 q 245 119 245 234 q 299 -71 245 -5 q 452 -137 353 -137 q 571 -98 522 -137 q 656 28 620 -60 l 831 -40 q 686 -233 780 -171 q 446 -294 592 -294 z "},"ƹ":{"ha":731,"x_min":27,"x_max":718,"o":"m 386 -163 q 484 -131 445 -163 q 530 -27 523 -99 l 718 -36 q 613 -227 701 -159 q 385 -294 526 -294 q 123 -205 219 -294 q 27 35 27 -117 q 102 252 27 170 q 315 348 178 334 l 68 602 l 68 734 l 680 734 l 680 596 l 296 596 l 524 355 l 524 227 l 455 227 q 276 177 331 227 q 221 23 221 128 q 386 -163 221 -163 z "},"ƺ":{"ha":731,"x_min":37,"x_max":705,"o":"m 705 -67 q 585 -234 682 -173 q 341 -294 488 -294 q 185 -269 254 -294 q 76 -194 115 -243 q 37 -78 37 -146 q 70 24 37 -19 q 163 94 102 67 q 350 150 224 121 q 459 187 425 166 q 494 237 494 208 q 477 284 494 268 q 425 307 460 300 q 276 313 389 313 l 207 313 l 207 411 l 412 596 l 47 596 l 47 734 l 659 734 l 659 623 l 425 423 q 627 374 566 420 q 688 235 688 329 q 658 139 688 180 q 568 71 628 99 q 368 8 509 42 q 254 -32 288 -12 q 220 -81 220 -53 q 257 -141 220 -119 q 362 -163 294 -163 q 470 -132 429 -163 q 519 -41 511 -101 l 705 -67 z "},"ƻ":{"ha":772,"x_min":48,"x_max":717,"o":"m 58 518 l 401 518 q 509 693 509 614 q 383 818 509 818 q 290 785 322 818 q 248 686 258 752 l 56 697 q 156 900 73 830 q 382 970 239 970 q 619 899 536 970 q 702 701 702 829 q 633 518 702 607 l 707 518 l 707 389 l 503 389 l 432 331 q 273 157 304 231 l 717 157 l 717 0 l 48 0 l 48 132 q 123 255 77 195 q 250 389 170 316 l 58 389 l 58 518 z "},"Ƽ":{"ha":772,"x_min":41,"x_max":730,"o":"m 47 956 l 713 956 l 713 801 l 353 801 l 353 640 l 377 640 q 641 561 551 640 q 730 330 730 482 q 641 74 730 161 q 376 -14 551 -14 q 147 55 235 -14 q 41 247 58 123 l 233 256 q 382 138 260 138 q 499 181 463 138 q 535 313 535 224 q 494 439 535 398 q 359 480 454 480 l 165 480 l 165 801 l 47 801 l 47 956 z "},"ƽ":{"ha":690,"x_min":12,"x_max":641,"o":"m 20 734 l 598 734 l 598 596 l 295 596 l 295 471 l 329 471 q 641 227 641 471 q 560 50 641 113 q 329 -14 479 -14 q 120 45 203 -14 q 12 213 37 104 l 195 225 q 242 143 208 169 q 336 117 277 117 q 427 143 397 117 q 458 227 458 170 q 421 318 458 291 q 303 346 385 346 l 128 346 l 128 596 l 20 596 l 20 734 z "},"ƾ":{"ha":804,"x_min":21,"x_max":752,"o":"m 114 605 l 21 605 l 21 734 l 123 734 l 183 906 l 302 906 l 302 734 l 441 734 l 441 605 l 302 605 l 302 553 q 316 509 302 526 q 356 480 329 492 q 479 447 384 469 q 648 392 597 420 q 725 321 698 364 q 752 214 752 279 q 665 47 752 108 q 424 -14 578 -14 q 192 34 273 -14 q 85 183 112 82 l 253 208 q 302 134 267 156 q 424 113 337 113 q 540 133 503 113 q 577 197 577 153 q 548 253 577 232 q 448 288 518 273 q 231 348 288 319 q 144 427 174 378 q 114 548 114 475 l 114 605 z "},"ƿ":{"ha":848,"x_min":97,"x_max":789,"o":"m 789 453 q 671 99 789 239 q 288 -149 552 -42 l 288 -288 l 97 -288 l 97 734 l 277 734 q 285 623 281 698 l 288 623 q 379 717 322 684 q 513 749 437 749 q 663 712 602 749 q 757 607 725 675 q 789 453 789 540 m 595 433 q 448 617 595 617 q 330 558 372 617 q 288 404 288 498 l 288 0 q 521 188 446 81 q 595 433 595 294 z "},"ǀ":{"ha":389,"x_min":111,"x_max":277,"o":"m 111 0 l 111 1006 l 277 1006 l 277 0 l 111 0 z "},"ǁ":{"ha":691,"x_min":118,"x_max":573,"o":"m 118 0 l 118 1006 l 281 1006 l 281 0 l 118 0 m 410 0 l 410 1006 l 573 1006 l 573 0 l 410 0 z "},"ǂ":{"ha":812,"x_min":56,"x_max":756,"o":"m 56 734 l 323 734 l 323 1006 l 489 1006 l 489 734 l 756 734 l 756 593 l 489 593 l 489 412 l 756 412 l 756 271 l 489 271 l 489 0 l 323 0 l 323 271 l 56 271 l 56 412 l 323 412 l 323 593 l 56 593 l 56 734 z "},"ǃ":{"ha":463,"x_min":131,"x_max":330,"o":"m 309 289 l 153 289 l 131 956 l 330 956 l 309 289 m 131 0 l 131 183 l 326 183 l 326 0 l 131 0 z "},"Ǆ":{"ha":1851,"x_min":93,"x_max":1811,"o":"m 945 485 q 887 227 945 337 q 723 58 829 117 q 479 0 616 0 l 93 0 l 93 956 l 439 956 q 812 834 680 956 q 945 485 945 712 m 743 485 q 663 720 743 639 q 435 801 583 801 l 293 801 l 293 155 l 463 155 q 667 243 591 155 q 743 485 743 332 m 1811 0 l 1044 0 l 1044 142 l 1561 799 l 1096 799 l 1096 956 l 1784 956 l 1784 817 l 1267 157 l 1811 157 l 1811 0 m 1537 1038 l 1382 1038 l 1207 1225 l 1207 1244 l 1316 1244 l 1459 1141 l 1461 1141 l 1599 1244 l 1707 1244 l 1707 1225 l 1537 1038 z "},"ǅ":{"ha":1697,"x_min":93,"x_max":1647,"o":"m 945 485 q 887 227 945 337 q 723 58 829 117 q 479 0 616 0 l 93 0 l 93 956 l 439 956 q 812 834 680 956 q 945 485 945 712 m 743 485 q 663 720 743 639 q 435 801 583 801 l 293 801 l 293 155 l 463 155 q 667 243 591 155 q 743 485 743 332 m 1059 0 l 1059 135 l 1404 596 l 1086 596 l 1086 734 l 1614 734 l 1614 597 l 1271 139 l 1647 139 l 1647 0 l 1059 0 m 1461 802 l 1306 802 l 1131 1017 l 1131 1037 l 1240 1037 l 1383 906 l 1385 906 l 1523 1037 l 1631 1037 l 1631 1017 l 1461 802 z "},"ǆ":{"ha":1543,"x_min":57,"x_max":1493,"o":"m 572 0 q 566 51 570 10 q 562 119 562 92 l 559 119 q 325 -14 498 -14 q 127 86 197 -14 q 57 366 57 186 q 131 648 57 549 q 339 747 204 747 q 474 715 417 747 q 561 618 530 682 l 562 618 l 561 739 l 561 1006 l 751 1006 l 751 160 q 757 0 751 92 l 572 0 m 564 371 q 524 554 564 490 q 407 618 484 618 q 293 556 330 618 q 256 366 256 494 q 406 117 256 117 q 522 183 481 117 q 564 371 564 249 m 904 0 l 904 135 l 1249 596 l 932 596 l 932 734 l 1459 734 l 1459 597 l 1116 139 l 1493 139 l 1493 0 l 904 0 m 1302 802 l 1147 802 l 972 1017 l 972 1037 l 1080 1037 l 1223 906 l 1226 906 l 1364 1037 l 1472 1037 l 1472 1017 l 1302 802 z "},"Ǉ":{"ha":1621,"x_min":93,"x_max":1526,"o":"m 93 0 l 93 956 l 293 956 l 293 155 l 806 155 l 806 0 l 93 0 m 1204 -14 q 976 51 1055 -14 q 869 259 896 115 l 1068 288 q 1114 179 1080 214 q 1205 143 1147 143 q 1296 183 1265 143 q 1326 298 1326 223 l 1326 799 l 1136 799 l 1136 956 l 1526 956 l 1526 302 q 1441 70 1526 153 q 1204 -14 1356 -14 z "},"ǈ":{"ha":1234,"x_min":93,"x_max":1137,"o":"m 93 0 l 93 956 l 293 956 l 293 155 l 806 155 l 806 0 l 93 0 m 946 866 l 946 1006 l 1137 1006 l 1137 866 l 946 866 m 942 -288 q 827 -282 874 -288 l 827 -148 l 861 -151 q 928 -129 910 -151 q 946 -41 946 -108 l 946 734 l 1137 734 l 1137 -87 q 1087 -236 1137 -184 q 942 -288 1038 -288 z "},"ǉ":{"ha":772,"x_min":97,"x_max":674,"o":"m 97 0 l 97 1006 l 288 1006 l 288 0 l 97 0 m 484 866 l 484 1006 l 674 1006 l 674 866 l 484 866 m 479 -288 q 364 -282 412 -288 l 364 -148 l 399 -151 q 466 -129 448 -151 q 484 -41 484 -108 l 484 734 l 674 734 l 674 -87 q 625 -236 674 -184 q 479 -288 576 -288 z "},"Ǌ":{"ha":1775,"x_min":93,"x_max":1681,"o":"m 675 0 l 258 736 q 271 564 271 629 l 271 0 l 93 0 l 93 956 l 321 956 l 744 214 q 732 400 732 316 l 732 956 l 909 956 l 909 0 l 675 0 m 1358 -14 q 1130 51 1210 -14 q 1024 259 1050 115 l 1223 288 q 1268 179 1235 214 q 1360 143 1301 143 q 1450 183 1419 143 q 1481 298 1481 223 l 1481 799 l 1291 799 l 1291 956 l 1681 956 l 1681 302 q 1596 70 1681 153 q 1358 -14 1511 -14 z "},"ǋ":{"ha":1389,"x_min":93,"x_max":1291,"o":"m 675 0 l 258 736 q 271 564 271 629 l 271 0 l 93 0 l 93 956 l 321 956 l 744 214 q 732 400 732 316 l 732 956 l 909 956 l 909 0 l 675 0 m 1101 866 l 1101 1006 l 1291 1006 l 1291 866 l 1101 866 m 1097 -288 q 981 -282 1029 -288 l 981 -148 l 1016 -151 q 1083 -129 1065 -151 q 1101 -41 1101 -108 l 1101 734 l 1291 734 l 1291 -87 q 1242 -236 1291 -184 q 1097 -288 1193 -288 z "},"ǌ":{"ha":1234,"x_min":92,"x_max":1137,"o":"m 572 0 l 572 412 q 441 605 572 605 q 330 546 372 605 q 288 393 288 486 l 288 0 l 97 0 l 97 570 q 95 666 97 629 q 92 734 94 704 l 273 734 q 279 665 275 721 q 282 588 282 609 l 285 588 q 382 710 323 672 q 521 748 440 748 q 700 676 637 748 q 762 466 762 604 l 762 0 l 572 0 m 946 866 l 946 1006 l 1137 1006 l 1137 866 l 946 866 m 942 -288 q 827 -282 874 -288 l 827 -148 l 861 -151 q 928 -129 910 -151 q 946 -41 946 -108 l 946 734 l 1137 734 l 1137 -87 q 1087 -236 1137 -184 q 942 -288 1038 -288 z "},"Ǎ":{"ha":1003,"x_min":35,"x_max":966,"o":"m 768 0 l 684 244 l 319 244 l 235 0 l 35 0 l 383 956 l 619 956 l 966 0 l 768 0 m 501 808 l 497 793 q 481 738 490 769 q 364 395 471 707 l 639 395 l 545 669 l 515 762 l 501 808 m 584 1038 l 429 1038 l 254 1225 l 254 1244 l 362 1244 l 505 1141 l 508 1141 l 646 1244 l 753 1244 l 753 1225 l 584 1038 z "},"ǎ":{"ha":772,"x_min":41,"x_max":781,"o":"m 267 -14 q 100 44 160 -14 q 41 208 41 102 q 115 381 41 321 q 330 442 189 441 l 488 445 l 488 482 q 463 589 488 554 q 381 624 438 624 q 303 600 328 624 q 273 520 279 576 l 74 530 q 172 692 92 637 q 389 747 252 747 q 604 679 528 747 q 679 484 679 610 l 679 217 q 693 132 679 155 q 739 109 707 109 q 781 113 761 109 l 781 9 q 751 2 764 5 q 724 -3 737 -1 q 695 -7 710 -5 q 659 -8 680 -8 q 553 27 587 -8 q 512 131 519 62 l 508 131 q 267 -14 428 -14 m 488 340 l 391 338 q 296 324 324 336 q 254 288 269 312 q 239 222 239 263 q 263 145 239 170 q 328 119 288 119 q 409 144 372 119 q 467 211 446 168 q 488 302 488 254 l 488 340 m 467 802 l 311 802 l 136 1017 l 136 1037 l 245 1037 l 388 906 l 391 906 l 528 1037 l 636 1037 l 636 1017 l 467 802 z "},"Ǐ":{"ha":386,"x_min":-58,"x_max":442,"o":"m 93 0 l 93 956 l 293 956 l 293 0 l 93 0 m 273 1038 l 117 1038 l -58 1225 l -58 1244 l 51 1244 l 194 1141 l 197 1141 l 334 1244 l 442 1244 l 442 1225 l 273 1038 z "},"ǐ":{"ha":386,"x_min":-56,"x_max":444,"o":"m 98 0 l 98 734 l 289 734 l 289 0 l 98 0 m 275 802 l 119 802 l -56 1017 l -56 1037 l 53 1037 l 196 906 l 199 906 l 336 1037 l 444 1037 l 444 1017 l 275 802 z "},"Ǒ":{"ha":1080,"x_min":57,"x_max":1022,"o":"m 1022 482 q 963 220 1022 333 q 794 46 904 106 q 538 -14 684 -14 q 185 119 313 -14 q 57 482 57 252 q 184 841 57 712 q 539 970 312 970 q 894 840 766 970 q 1022 482 1022 709 m 818 482 q 745 725 818 637 q 539 812 671 812 q 332 725 405 812 q 258 482 258 638 q 333 234 258 325 q 538 144 408 144 q 745 232 672 144 q 818 482 818 320 m 620 1038 l 465 1038 l 290 1225 l 290 1244 l 398 1244 l 541 1141 l 544 1141 l 682 1244 l 789 1244 l 789 1225 l 620 1038 z "},"ǒ":{"ha":848,"x_min":54,"x_max":794,"o":"m 794 368 q 695 88 794 189 q 421 -14 596 -14 q 152 88 250 -14 q 54 368 54 190 q 152 646 54 545 q 425 747 250 747 q 700 649 605 747 q 794 368 794 551 m 595 368 q 552 557 595 498 q 428 616 509 616 q 254 368 254 616 q 297 181 254 245 q 419 117 339 117 q 595 368 595 117 m 505 802 l 349 802 l 174 1017 l 174 1037 l 283 1037 l 426 906 l 429 906 l 566 1037 l 674 1037 l 674 1017 l 505 802 z "},"Ǔ":{"ha":1003,"x_min":83,"x_max":918,"o":"m 490 -14 q 188 83 293 -14 q 83 358 83 179 l 83 956 l 283 956 l 283 374 q 337 202 283 260 q 496 143 391 143 q 661 204 603 143 q 718 380 718 266 l 718 956 l 918 956 l 918 368 q 806 86 918 186 q 490 -14 694 -14 m 579 1038 l 424 1038 l 249 1225 l 249 1244 l 357 1244 l 500 1141 l 503 1141 l 641 1244 l 749 1244 l 749 1225 l 579 1038 z "},"ǔ":{"ha":848,"x_min":86,"x_max":757,"o":"m 277 734 l 277 322 q 407 129 277 129 q 518 188 476 129 q 561 340 561 248 l 561 734 l 751 734 l 751 164 q 757 0 751 71 l 575 0 q 567 146 567 98 l 564 146 q 467 24 526 62 q 328 -14 408 -14 q 149 58 211 -14 q 86 268 86 130 l 86 734 l 277 734 m 495 802 l 340 802 l 165 1017 l 165 1037 l 273 1037 l 416 906 l 419 906 l 557 1037 l 665 1037 l 665 1017 l 495 802 z "},"Ǖ":{"ha":1003,"x_min":83,"x_max":918,"o":"m 490 -14 q 188 83 293 -14 q 83 358 83 179 l 83 956 l 283 956 l 283 374 q 337 202 283 260 q 496 143 391 143 q 661 204 603 143 q 718 380 718 266 l 718 956 l 918 956 l 918 368 q 806 86 918 186 q 490 -14 694 -14 m 675 994 l 566 994 l 566 1097 l 675 1097 l 675 994 m 427 994 l 318 994 l 318 1097 l 427 1097 l 427 994 m 289 1244 l 704 1244 l 704 1151 l 289 1151 l 289 1244 z "},"ǖ":{"ha":848,"x_min":86,"x_max":757,"o":"m 277 734 l 277 322 q 407 129 277 129 q 518 188 476 129 q 561 340 561 248 l 561 734 l 751 734 l 751 164 q 757 0 751 71 l 575 0 q 567 146 567 98 l 564 146 q 467 24 526 62 q 328 -14 408 -14 q 149 58 211 -14 q 86 268 86 130 l 86 734 l 277 734 m 495 813 l 495 962 l 642 962 l 642 813 l 495 813 m 201 813 l 201 962 l 346 962 l 346 813 l 201 813 m 213 1139 l 628 1139 l 628 1025 l 213 1025 l 213 1139 z "},"Ǘ":{"ha":1003,"x_min":83,"x_max":918,"o":"m 490 -14 q 188 83 293 -14 q 83 358 83 179 l 83 956 l 283 956 l 283 374 q 337 202 283 260 q 496 143 391 143 q 661 204 603 143 q 718 380 718 266 l 718 956 l 918 956 l 918 368 q 806 86 918 186 q 490 -14 694 -14 m 688 1244 l 688 1234 l 532 1130 l 430 1130 l 430 1139 l 522 1244 l 688 1244 m 682 994 l 573 994 l 573 1097 l 682 1097 l 682 994 m 433 994 l 325 994 l 325 1097 l 433 1097 l 433 994 z "},"ǘ":{"ha":848,"x_min":86,"x_max":757,"o":"m 277 734 l 277 322 q 407 129 277 129 q 518 188 476 129 q 561 340 561 248 l 561 734 l 751 734 l 751 164 q 757 0 751 71 l 575 0 q 567 146 567 98 l 564 146 q 467 24 526 62 q 328 -14 408 -14 q 149 58 211 -14 q 86 268 86 130 l 86 734 l 277 734 m 495 813 l 495 962 l 642 962 l 642 813 l 495 813 m 201 813 l 201 962 l 346 962 l 346 813 l 201 813 m 307 1018 l 307 1039 l 477 1211 l 652 1211 l 652 1182 l 422 1018 l 307 1018 z "},"Ǚ":{"ha":1003,"x_min":83,"x_max":918,"o":"m 490 -14 q 188 83 293 -14 q 83 358 83 179 l 83 956 l 283 956 l 283 374 q 337 202 283 260 q 496 143 391 143 q 661 204 603 143 q 718 380 718 266 l 718 956 l 918 956 l 918 368 q 806 86 918 186 q 490 -14 694 -14 m 679 994 l 570 994 l 570 1097 l 679 1097 l 679 994 m 431 994 l 322 994 l 322 1097 l 431 1097 l 431 994 m 603 1244 l 708 1244 l 708 1238 l 567 1141 l 435 1141 l 293 1236 l 293 1244 l 398 1244 l 500 1199 l 603 1244 z "},"ǚ":{"ha":848,"x_min":86,"x_max":757,"o":"m 277 734 l 277 322 q 407 129 277 129 q 518 188 476 129 q 561 340 561 248 l 561 734 l 751 734 l 751 164 q 757 0 751 71 l 575 0 q 567 146 567 98 l 564 146 q 467 24 526 62 q 328 -14 408 -14 q 149 58 211 -14 q 86 268 86 130 l 86 734 l 277 734 m 495 813 l 495 962 l 642 962 l 642 813 l 495 813 m 201 813 l 201 962 l 346 962 l 346 813 l 201 813 m 494 1018 l 339 1018 l 164 1205 l 164 1225 l 273 1225 l 416 1122 l 418 1122 l 556 1225 l 664 1225 l 664 1205 l 494 1018 z "},"Ǜ":{"ha":1003,"x_min":83,"x_max":918,"o":"m 490 -14 q 188 83 293 -14 q 83 358 83 179 l 83 956 l 283 956 l 283 374 q 337 202 283 260 q 496 143 391 143 q 661 204 603 143 q 718 380 718 266 l 718 956 l 918 956 l 918 368 q 806 86 918 186 q 490 -14 694 -14 m 485 1244 l 576 1139 l 576 1130 l 475 1130 l 318 1234 l 318 1244 l 485 1244 m 325 1097 l 433 1097 l 433 994 l 325 994 l 325 1097 m 573 1097 l 682 1097 l 682 994 l 573 994 l 573 1097 z "},"ǜ":{"ha":848,"x_min":86,"x_max":757,"o":"m 277 734 l 277 322 q 407 129 277 129 q 518 188 476 129 q 561 340 561 248 l 561 734 l 751 734 l 751 164 q 757 0 751 71 l 575 0 q 567 146 567 98 l 564 146 q 467 24 526 62 q 328 -14 408 -14 q 149 58 211 -14 q 86 268 86 130 l 86 734 l 277 734 m 495 813 l 495 962 l 642 962 l 642 813 l 495 813 m 201 813 l 201 962 l 346 962 l 346 813 l 201 813 m 419 1018 l 189 1182 l 189 1211 l 363 1211 l 534 1039 l 534 1018 l 419 1018 z "},"ǝ":{"ha":772,"x_min":54,"x_max":725,"o":"m 382 747 q 636 649 547 747 q 725 363 725 551 q 635 84 725 182 q 379 -14 545 -14 q 138 91 221 -14 q 54 398 54 196 l 54 404 l 525 404 q 485 565 525 511 q 372 620 446 620 q 245 532 271 620 l 65 548 q 382 747 143 747 m 382 106 q 485 153 449 106 q 524 284 522 200 l 239 284 q 281 151 244 195 q 382 106 319 106 z "},"Ǟ":{"ha":1003,"x_min":35,"x_max":966,"o":"m 768 0 l 684 244 l 319 244 l 235 0 l 35 0 l 383 956 l 619 956 l 966 0 l 768 0 m 501 808 l 497 793 q 481 738 490 769 q 364 395 471 707 l 639 395 l 545 669 l 515 762 l 501 808 m 676 994 l 568 994 l 568 1097 l 676 1097 l 676 994 m 428 994 l 319 994 l 319 1097 l 428 1097 l 428 994 m 290 1244 l 705 1244 l 705 1151 l 290 1151 l 290 1244 z "},"ǟ":{"ha":772,"x_min":41,"x_max":781,"o":"m 267 -14 q 100 44 160 -14 q 41 208 41 102 q 115 381 41 321 q 330 442 189 441 l 488 445 l 488 482 q 463 589 488 554 q 381 624 438 624 q 303 600 328 624 q 273 520 279 576 l 74 530 q 172 692 92 637 q 389 747 252 747 q 604 679 528 747 q 679 484 679 610 l 679 217 q 693 132 679 155 q 739 109 707 109 q 781 113 761 109 l 781 9 q 751 2 764 5 q 724 -3 737 -1 q 695 -7 710 -5 q 659 -8 680 -8 q 553 27 587 -8 q 512 131 519 62 l 508 131 q 267 -14 428 -14 m 488 340 l 391 338 q 296 324 324 336 q 254 288 269 312 q 239 222 239 263 q 263 145 239 170 q 328 119 288 119 q 409 144 372 119 q 467 211 446 168 q 488 302 488 254 l 488 340 m 456 813 l 456 962 l 603 962 l 603 813 l 456 813 m 161 813 l 161 962 l 307 962 l 307 813 l 161 813 m 175 1139 l 590 1139 l 590 1025 l 175 1025 l 175 1139 z "},"Ǡ":{"ha":1003,"x_min":35,"x_max":966,"o":"m 768 0 l 684 244 l 319 244 l 235 0 l 35 0 l 383 956 l 619 956 l 966 0 l 768 0 m 501 808 l 497 793 q 481 738 490 769 q 364 395 471 707 l 639 395 l 545 669 l 515 762 l 501 808 m 555 994 l 447 994 l 447 1097 l 555 1097 l 555 994 m 294 1244 l 709 1244 l 709 1151 l 294 1151 l 294 1244 z "},"ǡ":{"ha":772,"x_min":41,"x_max":781,"o":"m 267 -14 q 100 44 160 -14 q 41 208 41 102 q 115 381 41 321 q 330 442 189 441 l 488 445 l 488 482 q 463 589 488 554 q 381 624 438 624 q 303 600 328 624 q 273 520 279 576 l 74 530 q 172 692 92 637 q 389 747 252 747 q 604 679 528 747 q 679 484 679 610 l 679 217 q 693 132 679 155 q 739 109 707 109 q 781 113 761 109 l 781 9 q 751 2 764 5 q 724 -3 737 -1 q 695 -7 710 -5 q 659 -8 680 -8 q 553 27 587 -8 q 512 131 519 62 l 508 131 q 267 -14 428 -14 m 488 340 l 391 338 q 296 324 324 336 q 254 288 269 312 q 239 222 239 263 q 263 145 239 170 q 328 119 288 119 q 409 144 372 119 q 467 211 446 168 q 488 302 488 254 l 488 340 m 286 829 l 286 969 l 477 969 l 477 829 l 286 829 m 175 1139 l 590 1139 l 590 1025 l 175 1025 l 175 1139 z "},"Ǣ":{"ha":1389,"x_min":3,"x_max":1335,"o":"m 631 0 l 631 244 l 326 244 l 210 0 l 3 0 l 477 956 l 1307 956 l 1307 802 l 831 802 l 831 561 l 1265 561 l 1265 411 l 831 411 l 831 154 l 1335 154 l 1335 0 l 631 0 m 631 808 l 590 808 q 395 395 557 733 l 631 395 l 631 808 m 675 1149 l 1090 1149 l 1090 1035 l 675 1035 l 675 1149 z "},"ǣ":{"ha":1235,"x_min":45,"x_max":1177,"o":"m 850 -14 q 555 142 640 -14 q 275 -14 465 -14 q 105 45 166 -14 q 45 208 45 103 q 120 379 45 320 q 343 442 195 439 l 506 445 l 506 482 q 479 590 506 555 q 392 624 452 624 q 309 599 334 624 q 277 520 283 574 l 78 530 q 176 692 96 636 q 397 747 256 747 q 623 675 545 747 q 852 747 711 747 q 1094 643 1010 747 q 1177 336 1177 538 l 1177 323 l 707 323 q 747 169 707 224 q 859 114 787 114 q 987 201 960 114 l 1166 186 q 850 -14 1088 -14 m 336 119 q 422 146 383 119 q 484 216 462 172 q 506 309 506 260 l 506 340 l 403 338 q 303 324 332 336 q 259 288 274 312 q 243 222 243 263 q 269 145 243 170 q 336 119 294 119 m 850 627 q 746 581 783 627 q 708 450 710 534 l 993 450 q 950 583 987 538 q 850 627 913 627 m 410 930 l 825 930 l 825 816 l 410 816 l 410 930 z "},"Ǥ":{"ha":1080,"x_min":57,"x_max":1073,"o":"m 581 325 l 811 325 l 811 412 l 578 412 l 578 559 l 994 559 l 994 325 l 1073 325 l 1073 224 l 994 224 l 994 153 q 797 31 918 75 q 541 -14 675 -14 q 182 116 308 -14 q 57 482 57 245 q 183 844 57 718 q 546 970 309 970 q 974 721 882 970 l 789 665 q 696 775 760 738 q 546 812 632 812 q 332 727 405 812 q 258 482 258 642 q 334 232 258 320 q 547 143 410 143 q 705 165 633 143 q 818 224 777 187 l 581 224 l 581 325 z "},"ǥ":{"ha":848,"x_min":25,"x_max":819,"o":"m 25 0 l 562 0 l 562 25 l 562 64 l 564 136 l 562 136 q 466 58 520 81 q 338 35 412 35 q 129 129 201 35 q 57 390 57 222 q 131 656 57 564 q 340 748 204 748 q 562 616 500 748 l 566 616 q 569 680 566 640 q 575 734 572 721 l 755 734 q 751 564 751 661 l 751 0 l 819 0 l 819 -63 l 743 -63 q 633 -237 720 -180 q 404 -294 546 -294 q 203 -251 282 -294 q 96 -126 124 -208 l 288 -101 q 410 -169 320 -169 q 552 -63 524 -169 l 25 -63 l 25 0 m 564 394 q 523 558 564 500 q 408 617 483 617 q 256 390 256 617 q 407 168 256 168 q 523 225 482 168 q 564 394 564 283 z "},"Ǧ":{"ha":1080,"x_min":57,"x_max":994,"o":"m 547 143 q 698 166 625 143 q 811 224 771 189 l 811 356 l 578 356 l 578 504 l 994 504 l 994 153 q 797 31 918 75 q 541 -14 675 -14 q 182 116 308 -14 q 57 482 57 245 q 183 844 57 718 q 546 970 309 970 q 974 721 882 970 l 789 665 q 696 775 760 738 q 546 812 632 812 q 332 727 405 812 q 258 482 258 642 q 334 232 258 320 q 547 143 410 143 m 631 1038 l 475 1038 l 300 1225 l 300 1244 l 409 1244 l 552 1141 l 555 1141 l 692 1244 l 800 1244 l 800 1225 l 631 1038 z "},"ǧ":{"ha":848,"x_min":57,"x_max":755,"o":"m 404 -294 q 188 -243 270 -294 q 87 -97 106 -192 l 278 -75 q 322 -144 288 -119 q 410 -169 355 -169 q 526 -120 489 -169 q 562 25 562 -71 l 562 64 l 564 136 l 562 136 q 326 1 499 1 q 127 98 198 1 q 57 373 57 194 q 130 650 57 553 q 340 748 202 748 q 562 616 500 748 l 566 616 q 569 680 566 640 q 575 734 572 721 l 755 734 q 751 564 751 661 l 751 22 q 663 -214 751 -134 q 404 -294 574 -294 m 564 377 q 523 554 564 490 q 408 617 483 617 q 256 373 256 617 q 407 134 256 134 q 523 197 483 134 q 564 377 564 260 m 493 802 l 338 802 l 163 1017 l 163 1037 l 271 1037 l 414 906 l 417 906 l 555 1037 l 663 1037 l 663 1017 l 493 802 z "},"Ǩ":{"ha":1003,"x_min":93,"x_max":990,"o":"m 754 0 l 411 439 l 293 349 l 293 0 l 93 0 l 93 956 l 293 956 l 293 522 l 724 956 l 957 956 l 549 551 l 990 0 l 754 0 m 570 1038 l 414 1038 l 239 1225 l 239 1244 l 348 1244 l 491 1141 l 494 1141 l 631 1244 l 739 1244 l 739 1225 l 570 1038 z "},"ǩ":{"ha":772,"x_min":97,"x_max":774,"o":"m 566 0 l 370 332 l 288 275 l 288 0 l 97 0 l 97 1006 l 288 1006 l 288 430 l 549 734 l 754 734 l 496 448 l 774 0 l 566 0 m 488 1066 l 333 1066 l 158 1253 l 158 1273 l 267 1273 l 410 1170 l 412 1170 l 550 1273 l 658 1273 l 658 1253 l 488 1066 z "},"Ǫ":{"ha":1080,"x_min":57,"x_max":1022,"o":"m 1022 482 q 963 220 1022 333 q 794 46 904 106 q 538 -14 684 -14 q 185 119 313 -14 q 57 482 57 252 q 184 841 57 712 q 539 970 312 970 q 894 840 766 970 q 1022 482 1022 709 m 818 482 q 745 725 818 637 q 539 812 671 812 q 332 725 405 812 q 258 482 258 638 q 333 234 258 325 q 538 144 408 144 q 745 232 672 144 q 818 482 818 320 m 656 -288 q 538 -252 581 -288 q 496 -153 496 -215 q 525 -56 496 -102 q 603 14 555 -11 l 707 14 q 642 -53 664 -14 q 619 -128 619 -92 q 636 -174 619 -157 q 683 -191 652 -191 q 759 -173 720 -191 l 759 -266 q 656 -288 716 -288 z "},"ǫ":{"ha":848,"x_min":54,"x_max":794,"o":"m 794 368 q 695 88 794 189 q 421 -14 596 -14 q 152 88 250 -14 q 54 368 54 190 q 152 646 54 545 q 425 747 250 747 q 700 649 605 747 q 794 368 794 551 m 595 368 q 552 557 595 498 q 428 616 509 616 q 254 368 254 616 q 297 181 254 245 q 419 117 339 117 q 595 368 595 117 m 531 -288 q 413 -252 456 -288 q 370 -153 370 -215 q 400 -56 370 -102 q 477 14 429 -11 l 581 14 q 516 -53 538 -14 q 494 -128 494 -92 q 510 -174 494 -157 q 557 -191 527 -191 q 633 -173 594 -191 l 633 -266 q 531 -288 591 -288 z "},"Ǭ":{"ha":1080,"x_min":57,"x_max":1022,"o":"m 1022 482 q 963 220 1022 333 q 794 46 904 106 q 538 -14 684 -14 q 185 119 313 -14 q 57 482 57 252 q 184 841 57 712 q 539 970 312 970 q 894 840 766 970 q 1022 482 1022 709 m 818 482 q 745 725 818 637 q 539 812 671 812 q 332 725 405 812 q 258 482 258 638 q 333 234 258 325 q 538 144 408 144 q 745 232 672 144 q 818 482 818 320 m 640 -288 q 522 -252 564 -288 q 479 -153 479 -215 q 508 -56 479 -102 q 586 14 538 -11 l 690 14 q 625 -53 647 -14 q 602 -128 602 -92 q 619 -174 602 -157 q 666 -191 635 -191 q 742 -173 703 -191 l 742 -266 q 640 -288 699 -288 m 332 1195 l 747 1195 l 747 1081 l 332 1081 l 332 1195 z "},"ǭ":{"ha":848,"x_min":54,"x_max":794,"o":"m 794 368 q 695 88 794 189 q 421 -14 596 -14 q 152 88 250 -14 q 54 368 54 190 q 152 646 54 545 q 425 747 250 747 q 700 649 605 747 q 794 368 794 551 m 595 368 q 552 557 595 498 q 428 616 509 616 q 254 368 254 616 q 297 181 254 245 q 419 117 339 117 q 595 368 595 117 m 504 -288 q 386 -252 429 -288 q 343 -153 343 -215 q 373 -56 343 -102 q 450 14 402 -11 l 554 14 q 489 -53 511 -14 q 467 -128 467 -92 q 483 -174 467 -157 q 530 -191 500 -191 q 606 -173 567 -191 l 606 -266 q 504 -288 564 -288 m 216 930 l 631 930 l 631 816 l 216 816 l 216 930 z "},"Ǯ":{"ha":848,"x_min":18,"x_max":800,"o":"m 402 -294 q 162 -233 256 -294 q 18 -40 68 -171 l 193 28 q 278 -99 229 -60 q 396 -137 326 -137 q 550 -71 496 -137 q 604 119 604 -5 q 535 295 604 234 q 330 355 466 355 l 243 355 l 243 512 l 526 799 l 58 799 l 58 956 l 770 956 l 770 817 l 449 500 q 707 393 614 492 q 800 126 800 294 q 751 -96 800 -1 q 612 -243 703 -192 q 402 -294 521 -294 m 498 1038 l 343 1038 l 168 1225 l 168 1244 l 277 1244 l 420 1141 l 422 1141 l 560 1244 l 668 1244 l 668 1225 l 498 1038 z "},"ǯ":{"ha":731,"x_min":14,"x_max":704,"o":"m 349 -157 q 474 -111 437 -157 q 510 42 510 -64 q 454 186 510 140 q 276 233 399 233 l 207 233 l 207 361 l 437 596 l 52 596 l 52 734 l 663 734 l 663 602 l 417 354 q 627 261 551 341 q 704 53 704 182 q 609 -198 704 -108 q 351 -288 515 -288 q 119 -220 208 -288 q 14 -30 30 -151 l 201 -21 q 249 -120 209 -83 q 349 -157 290 -157 m 446 802 l 290 802 l 115 1017 l 115 1037 l 224 1037 l 367 906 l 370 906 l 507 1037 l 615 1037 l 615 1017 l 446 802 z "},"ǰ":{"ha":386,"x_min":-60,"x_max":439,"o":"m 94 -288 q -22 -282 26 -288 l -22 -148 l 13 -151 q 80 -129 62 -151 q 98 -41 98 -108 l 98 734 l 288 734 l 288 -87 q 239 -236 288 -184 q 94 -288 190 -288 m 270 802 l 115 802 l -60 1017 l -60 1037 l 48 1037 l 191 906 l 194 906 l 332 1037 l 439 1037 l 439 1017 l 270 802 z "},"Ǳ":{"ha":1851,"x_min":93,"x_max":1811,"o":"m 945 485 q 887 227 945 337 q 723 58 829 117 q 479 0 616 0 l 93 0 l 93 956 l 439 956 q 812 834 680 956 q 945 485 945 712 m 743 485 q 663 720 743 639 q 435 801 583 801 l 293 801 l 293 155 l 463 155 q 667 243 591 155 q 743 485 743 332 m 1811 0 l 1044 0 l 1044 142 l 1561 799 l 1096 799 l 1096 956 l 1784 956 l 1784 817 l 1267 157 l 1811 157 l 1811 0 z "},"ǲ":{"ha":1697,"x_min":93,"x_max":1647,"o":"m 945 485 q 887 227 945 337 q 723 58 829 117 q 479 0 616 0 l 93 0 l 93 956 l 439 956 q 812 834 680 956 q 945 485 945 712 m 743 485 q 663 720 743 639 q 435 801 583 801 l 293 801 l 293 155 l 463 155 q 667 243 591 155 q 743 485 743 332 m 1059 0 l 1059 135 l 1404 596 l 1086 596 l 1086 734 l 1614 734 l 1614 597 l 1271 139 l 1647 139 l 1647 0 l 1059 0 z "},"ǳ":{"ha":1543,"x_min":57,"x_max":1493,"o":"m 572 0 q 566 51 570 10 q 562 119 562 92 l 559 119 q 325 -14 498 -14 q 127 86 197 -14 q 57 366 57 186 q 131 648 57 549 q 339 747 204 747 q 474 715 417 747 q 561 618 530 682 l 562 618 l 561 739 l 561 1006 l 751 1006 l 751 160 q 757 0 751 92 l 572 0 m 564 371 q 524 554 564 490 q 407 618 484 618 q 293 556 330 618 q 256 366 256 494 q 406 117 256 117 q 522 183 481 117 q 564 371 564 249 m 904 0 l 904 135 l 1249 596 l 932 596 l 932 734 l 1459 734 l 1459 597 l 1116 139 l 1493 139 l 1493 0 l 904 0 z "},"Ǵ":{"ha":1080,"x_min":57,"x_max":994,"o":"m 547 143 q 698 166 625 143 q 811 224 771 189 l 811 356 l 578 356 l 578 504 l 994 504 l 994 153 q 797 31 918 75 q 541 -14 675 -14 q 182 116 308 -14 q 57 482 57 245 q 183 844 57 718 q 546 970 309 970 q 974 721 882 970 l 789 665 q 696 775 760 738 q 546 812 632 812 q 332 727 405 812 q 258 482 258 642 q 334 232 258 320 q 547 143 410 143 m 405 1038 l 405 1059 l 576 1231 l 751 1231 l 751 1202 l 520 1038 l 405 1038 z "},"ǵ":{"ha":848,"x_min":57,"x_max":755,"o":"m 404 -294 q 188 -243 270 -294 q 87 -97 106 -192 l 278 -75 q 322 -144 288 -119 q 410 -169 355 -169 q 526 -120 489 -169 q 562 25 562 -71 l 562 64 l 564 136 l 562 136 q 326 1 499 1 q 127 98 198 1 q 57 373 57 194 q 130 650 57 553 q 340 748 202 748 q 562 616 500 748 l 566 616 q 569 680 566 640 q 575 734 572 721 l 755 734 q 751 564 751 661 l 751 22 q 663 -214 751 -134 q 404 -294 574 -294 m 564 377 q 523 554 564 490 q 408 617 483 617 q 256 373 256 617 q 407 134 256 134 q 523 197 483 134 q 564 377 564 260 m 276 802 l 276 823 l 447 1019 l 622 1019 l 622 989 l 391 802 l 276 802 z "},"Ƕ":{"ha":1434,"x_min":93,"x_max":1358,"o":"m 909 304 q 942 172 909 214 q 1038 130 974 130 q 1168 304 1168 130 l 1168 734 l 1358 734 l 1358 309 q 1038 -14 1358 -14 q 790 64 871 -14 q 709 309 709 141 l 709 410 l 293 410 l 293 0 l 93 0 l 93 956 l 293 956 l 293 575 l 709 575 l 709 956 l 909 956 l 909 304 z "},"Ƿ":{"ha":924,"x_min":93,"x_max":848,"o":"m 848 607 q 714 178 848 358 q 290 -131 580 -1 l 290 -288 l 93 -288 l 93 956 l 277 956 l 277 843 q 388 941 328 912 q 532 970 447 970 q 697 924 625 970 q 809 794 770 878 q 848 607 848 711 m 644 585 q 606 756 644 700 q 479 812 568 812 q 341 759 392 812 q 290 618 290 705 l 290 41 q 559 269 474 134 q 644 585 644 403 z "},"Ǹ":{"ha":1003,"x_min":93,"x_max":909,"o":"m 675 0 l 258 736 q 271 564 271 629 l 271 0 l 93 0 l 93 956 l 321 956 l 744 214 q 732 400 732 316 l 732 956 l 909 956 l 909 0 l 675 0 m 504 1038 l 273 1202 l 273 1231 l 448 1231 l 618 1059 l 618 1038 l 504 1038 z "},"ǹ":{"ha":848,"x_min":92,"x_max":762,"o":"m 572 0 l 572 412 q 441 605 572 605 q 330 546 372 605 q 288 393 288 486 l 288 0 l 97 0 l 97 570 q 95 666 97 629 q 92 734 94 704 l 273 734 q 279 665 275 721 q 282 588 282 609 l 285 588 q 382 710 323 672 q 521 748 440 748 q 700 676 637 748 q 762 466 762 604 l 762 0 l 572 0 m 438 802 l 208 989 l 208 1019 l 382 1019 l 553 823 l 553 802 l 438 802 z "},"Ǻ":{"ha":1003,"x_min":35,"x_max":966,"o":"m 768 0 l 684 244 l 319 244 l 235 0 l 35 0 l 383 956 l 619 956 l 966 0 l 768 0 m 501 808 l 497 793 q 481 738 490 769 q 364 395 471 707 l 639 395 l 545 669 l 515 762 l 501 808 m 673 1042 q 624 921 673 971 q 501 870 574 870 q 379 921 429 870 q 329 1042 329 971 q 379 1164 329 1114 q 501 1215 430 1215 q 623 1164 572 1215 q 673 1042 673 1114 m 587 1042 q 563 1102 587 1077 q 501 1127 538 1127 q 441 1103 467 1127 q 416 1042 416 1078 q 441 980 416 1004 q 501 956 467 956 q 562 981 537 956 q 587 1042 587 1006 m 397 1242 l 397 1263 l 568 1435 l 743 1435 l 743 1406 l 513 1242 l 397 1242 z "},"ǻ":{"ha":772,"x_min":41,"x_max":781,"o":"m 267 -14 q 100 44 160 -14 q 41 208 41 102 q 115 381 41 321 q 330 442 189 441 l 488 445 l 488 482 q 463 589 488 554 q 381 624 438 624 q 303 600 328 624 q 273 520 279 576 l 74 530 q 172 692 92 637 q 389 747 252 747 q 604 679 528 747 q 679 484 679 610 l 679 217 q 693 132 679 155 q 739 109 707 109 q 781 113 761 109 l 781 9 q 751 2 764 5 q 724 -3 737 -1 q 695 -7 710 -5 q 659 -8 680 -8 q 553 27 587 -8 q 512 131 519 62 l 508 131 q 267 -14 428 -14 m 488 340 l 391 338 q 296 324 324 336 q 254 288 269 312 q 239 222 239 263 q 263 145 239 170 q 328 119 288 119 q 409 144 372 119 q 467 211 446 168 q 488 302 488 254 l 488 340 m 558 943 q 508 821 558 871 q 386 770 458 770 q 263 821 313 770 q 214 943 214 871 q 264 1064 214 1014 q 386 1115 315 1115 q 508 1064 457 1115 q 558 943 558 1014 m 472 943 q 447 1002 472 977 q 386 1027 422 1027 q 326 1003 351 1027 q 301 943 301 979 q 326 880 301 905 q 386 856 351 856 q 447 881 422 856 q 472 943 472 906 m 300 1148 l 300 1169 l 471 1364 l 646 1364 l 646 1335 l 415 1148 l 300 1148 z "},"Ǽ":{"ha":1389,"x_min":3,"x_max":1335,"o":"m 631 0 l 631 244 l 326 244 l 210 0 l 3 0 l 477 956 l 1307 956 l 1307 802 l 831 802 l 831 561 l 1265 561 l 1265 411 l 831 411 l 831 154 l 1335 154 l 1335 0 l 631 0 m 631 808 l 590 808 q 395 395 557 733 l 631 395 l 631 808 m 734 1038 l 734 1059 l 905 1231 l 1080 1231 l 1080 1202 l 850 1038 l 734 1038 z "},"ǽ":{"ha":1235,"x_min":45,"x_max":1177,"o":"m 850 -14 q 555 142 640 -14 q 275 -14 465 -14 q 105 45 166 -14 q 45 208 45 103 q 120 379 45 320 q 343 442 195 439 l 506 445 l 506 482 q 479 590 506 555 q 392 624 452 624 q 309 599 334 624 q 277 520 283 574 l 78 530 q 176 692 96 636 q 397 747 256 747 q 623 675 545 747 q 852 747 711 747 q 1094 643 1010 747 q 1177 336 1177 538 l 1177 323 l 707 323 q 747 169 707 224 q 859 114 787 114 q 987 201 960 114 l 1166 186 q 850 -14 1088 -14 m 336 119 q 422 146 383 119 q 484 216 462 172 q 506 309 506 260 l 506 340 l 403 338 q 303 324 332 336 q 259 288 274 312 q 243 222 243 263 q 269 145 243 170 q 336 119 294 119 m 850 627 q 746 581 783 627 q 708 450 710 534 l 993 450 q 950 583 987 538 q 850 627 913 627 m 525 802 l 525 823 l 696 1019 l 871 1019 l 871 989 l 640 802 l 525 802 z "},"Ǿ":{"ha":1080,"x_min":57,"x_max":1023,"o":"m 100 -50 l 204 98 q 57 482 57 232 q 184 841 57 712 q 539 970 312 970 q 779 920 673 970 l 835 999 l 966 999 l 869 861 q 984 701 945 798 q 1023 482 1023 604 q 964 220 1023 333 q 795 46 905 106 q 538 -14 686 -14 q 294 39 394 -14 l 232 -49 l 100 -50 m 819 482 q 760 704 819 620 l 393 180 q 538 143 455 143 q 746 232 673 143 q 819 482 819 320 m 258 482 q 315 257 258 343 l 681 778 q 539 812 618 812 q 332 725 405 812 q 258 482 258 638 m 424 1038 l 424 1059 l 595 1231 l 770 1231 l 770 1202 l 539 1038 l 424 1038 z "},"ǿ":{"ha":848,"x_min":1,"x_max":842,"o":"m 794 368 q 695 88 794 189 q 421 -14 596 -14 q 201 47 291 -14 l 125 -37 l 1 -37 l 134 109 q 54 368 54 208 q 152 646 54 545 q 425 747 250 747 q 649 691 560 747 l 718 768 l 842 768 l 718 629 q 794 368 794 532 m 254 368 q 266 257 254 305 l 542 570 q 428 616 501 616 q 254 368 254 616 m 595 368 q 584 477 595 431 l 308 165 q 419 117 350 117 q 595 368 595 117 m 315 802 l 315 823 l 486 1019 l 661 1019 l 661 989 l 431 802 l 315 802 z "},"Ȁ":{"ha":1003,"x_min":35,"x_max":966,"o":"m 768 0 l 684 244 l 319 244 l 235 0 l 35 0 l 383 956 l 619 956 l 966 0 l 768 0 m 501 808 l 497 793 q 481 738 490 769 q 364 395 471 707 l 639 395 l 545 669 l 515 762 l 501 808 m 378 1211 l 378 1240 l 538 1240 l 690 1060 l 690 1037 l 594 1037 l 378 1211 m 103 1211 l 103 1240 l 262 1240 l 415 1060 l 415 1037 l 319 1037 l 103 1211 z "},"ȁ":{"ha":772,"x_min":8,"x_max":781,"o":"m 267 -14 q 100 44 160 -14 q 41 208 41 102 q 115 381 41 321 q 330 442 189 441 l 488 445 l 488 482 q 463 589 488 554 q 381 624 438 624 q 303 600 328 624 q 273 520 279 576 l 74 530 q 172 692 92 637 q 389 747 252 747 q 604 679 528 747 q 679 484 679 610 l 679 217 q 693 132 679 155 q 739 109 707 109 q 781 113 761 109 l 781 9 q 751 2 764 5 q 724 -3 737 -1 q 695 -7 710 -5 q 659 -8 680 -8 q 553 27 587 -8 q 512 131 519 62 l 508 131 q 267 -14 428 -14 m 488 340 l 391 338 q 296 324 324 336 q 254 288 269 312 q 239 222 239 263 q 263 145 239 170 q 328 119 288 119 q 409 144 372 119 q 467 211 446 168 q 488 302 488 254 l 488 340 m 283 977 l 283 1006 l 443 1006 l 595 826 l 595 803 l 499 803 l 283 977 m 8 977 l 8 1006 l 168 1006 l 320 826 l 320 803 l 224 803 l 8 977 z "},"Ȃ":{"ha":1003,"x_min":35,"x_max":966,"o":"m 768 0 l 684 244 l 319 244 l 235 0 l 35 0 l 383 956 l 619 956 l 966 0 l 768 0 m 501 808 l 497 793 q 481 738 490 769 q 364 395 471 707 l 639 395 l 545 669 l 515 762 l 501 808 m 495 1143 q 415 1116 449 1143 q 371 1038 380 1088 l 264 1038 q 337 1189 277 1135 q 495 1243 397 1243 q 653 1189 593 1243 q 726 1038 713 1135 l 619 1038 q 576 1116 610 1088 q 495 1143 542 1143 z "},"ȃ":{"ha":772,"x_min":41,"x_max":781,"o":"m 267 -14 q 100 44 160 -14 q 41 208 41 102 q 115 381 41 321 q 330 442 189 441 l 488 445 l 488 482 q 463 589 488 554 q 381 624 438 624 q 303 600 328 624 q 273 520 279 576 l 74 530 q 172 692 92 637 q 389 747 252 747 q 604 679 528 747 q 679 484 679 610 l 679 217 q 693 132 679 155 q 739 109 707 109 q 781 113 761 109 l 781 9 q 751 2 764 5 q 724 -3 737 -1 q 695 -7 710 -5 q 659 -8 680 -8 q 553 27 587 -8 q 512 131 519 62 l 508 131 q 267 -14 428 -14 m 488 340 l 391 338 q 296 324 324 336 q 254 288 269 312 q 239 222 239 263 q 263 145 239 170 q 328 119 288 119 q 409 144 372 119 q 467 211 446 168 q 488 302 488 254 l 488 340 m 385 911 q 305 884 339 911 q 261 806 271 857 l 155 806 q 227 957 167 903 q 385 1011 288 1011 q 543 957 483 1011 q 616 806 604 903 l 509 806 q 466 884 500 857 q 385 911 432 911 z "},"Ȅ":{"ha":926,"x_min":93,"x_max":872,"o":"m 93 0 l 93 956 l 844 956 l 844 801 l 293 801 l 293 561 l 803 561 l 803 406 l 293 406 l 293 155 l 872 155 l 872 0 l 93 0 m 385 1212 l 385 1241 l 545 1241 l 697 1061 l 697 1038 l 601 1038 l 385 1212 m 110 1212 l 110 1241 l 269 1241 l 422 1061 l 422 1038 l 326 1038 l 110 1212 z "},"ȅ":{"ha":772,"x_min":22,"x_max":725,"o":"m 397 -14 q 143 84 232 -14 q 54 370 54 182 q 144 650 54 552 q 400 747 235 747 q 642 643 558 747 q 725 336 725 538 l 725 330 l 254 330 q 294 169 254 223 q 407 114 334 114 q 534 201 508 114 l 714 186 q 397 -14 636 -14 m 397 627 q 294 581 330 627 q 256 450 258 534 l 541 450 q 498 583 535 538 q 397 627 460 627 m 297 977 l 297 1006 l 456 1006 l 609 826 l 609 803 l 513 803 l 297 977 m 22 977 l 22 1006 l 181 1006 l 334 826 l 334 803 l 237 803 l 22 977 z "},"Ȇ":{"ha":926,"x_min":93,"x_max":872,"o":"m 93 0 l 93 956 l 844 956 l 844 801 l 293 801 l 293 561 l 803 561 l 803 406 l 293 406 l 293 155 l 872 155 l 872 0 l 93 0 m 480 1143 q 400 1116 434 1143 q 356 1038 366 1088 l 250 1038 q 322 1189 262 1135 q 480 1243 382 1243 q 638 1189 578 1243 q 711 1038 699 1135 l 604 1038 q 561 1116 595 1088 q 480 1143 527 1143 z "},"ȇ":{"ha":772,"x_min":54,"x_max":725,"o":"m 397 -14 q 143 84 232 -14 q 54 370 54 182 q 144 650 54 552 q 400 747 235 747 q 642 643 558 747 q 725 336 725 538 l 725 330 l 254 330 q 294 169 254 223 q 407 114 334 114 q 534 201 508 114 l 714 186 q 397 -14 636 -14 m 397 627 q 294 581 330 627 q 256 450 258 534 l 541 450 q 498 583 535 538 q 397 627 460 627 m 387 911 q 307 884 341 911 q 263 806 273 857 l 157 806 q 229 957 169 903 q 387 1011 290 1011 q 545 957 485 1011 q 618 806 606 903 l 511 806 q 468 884 502 857 q 387 911 434 911 z "},"Ȉ":{"ha":386,"x_min":-195,"x_max":392,"o":"m 93 0 l 93 956 l 293 956 l 293 0 l 93 0 m 80 1212 l 80 1241 l 239 1241 l 392 1061 l 392 1038 l 296 1038 l 80 1212 m -195 1212 l -195 1241 l -36 1241 l 117 1061 l 117 1038 l 20 1038 l -195 1212 z "},"ȉ":{"ha":386,"x_min":-189,"x_max":399,"o":"m 98 0 l 98 734 l 289 734 l 289 0 l 98 0 m 87 977 l 87 1006 l 246 1006 l 399 826 l 399 803 l 302 803 l 87 977 m -189 977 l -189 1006 l -29 1006 l 123 826 l 123 803 l 27 803 l -189 977 z "},"Ȋ":{"ha":386,"x_min":-35,"x_max":426,"o":"m 93 0 l 93 956 l 293 956 l 293 0 l 93 0 m 195 1143 q 115 1116 149 1143 q 71 1038 81 1088 l -35 1038 q 37 1189 -23 1135 q 195 1243 98 1243 q 353 1189 293 1243 q 426 1038 414 1135 l 319 1038 q 276 1116 310 1088 q 195 1143 242 1143 z "},"ȋ":{"ha":386,"x_min":-37,"x_max":425,"o":"m 98 0 l 98 734 l 289 734 l 289 0 l 98 0 m 194 911 q 114 884 148 911 q 70 806 79 857 l -37 806 q 36 957 -24 903 q 194 1011 96 1011 q 352 957 292 1011 q 425 806 412 903 l 318 806 q 275 884 309 857 q 194 911 241 911 z "},"Ȍ":{"ha":1080,"x_min":57,"x_max":1022,"o":"m 1022 482 q 963 220 1022 333 q 794 46 904 106 q 538 -14 684 -14 q 185 119 313 -14 q 57 482 57 252 q 184 841 57 712 q 539 970 312 970 q 894 840 766 970 q 1022 482 1022 709 m 818 482 q 745 725 818 637 q 539 812 671 812 q 332 725 405 812 q 258 482 258 638 q 333 234 258 325 q 538 144 408 144 q 745 232 672 144 q 818 482 818 320 m 433 1213 l 433 1242 l 592 1242 l 745 1061 l 745 1038 l 648 1038 l 433 1213 m 157 1213 l 157 1242 l 317 1242 l 469 1061 l 469 1038 l 373 1038 l 157 1213 z "},"ȍ":{"ha":848,"x_min":49,"x_max":794,"o":"m 794 368 q 695 88 794 189 q 421 -14 596 -14 q 152 88 250 -14 q 54 368 54 190 q 152 646 54 545 q 425 747 250 747 q 700 649 605 747 q 794 368 794 551 m 595 368 q 552 557 595 498 q 428 616 509 616 q 254 368 254 616 q 297 181 254 245 q 419 117 339 117 q 595 368 595 117 m 324 977 l 324 1006 l 484 1006 l 636 826 l 636 803 l 540 803 l 324 977 m 49 977 l 49 1006 l 208 1006 l 361 826 l 361 803 l 264 803 l 49 977 z "},"Ȏ":{"ha":1080,"x_min":57,"x_max":1022,"o":"m 1022 482 q 963 220 1022 333 q 794 46 904 106 q 538 -14 684 -14 q 185 119 313 -14 q 57 482 57 252 q 184 841 57 712 q 539 970 312 970 q 894 840 766 970 q 1022 482 1022 709 m 818 482 q 745 725 818 637 q 539 812 671 812 q 332 725 405 812 q 258 482 258 638 q 333 234 258 325 q 538 144 408 144 q 745 232 672 144 q 818 482 818 320 m 538 1143 q 458 1116 492 1143 q 414 1038 424 1088 l 308 1038 q 380 1189 320 1135 q 538 1243 441 1243 q 696 1189 636 1243 q 769 1038 757 1135 l 663 1038 q 619 1116 653 1088 q 538 1143 585 1143 z "},"ȏ":{"ha":848,"x_min":54,"x_max":794,"o":"m 794 368 q 695 88 794 189 q 421 -14 596 -14 q 152 88 250 -14 q 54 368 54 190 q 152 646 54 545 q 425 747 250 747 q 700 649 605 747 q 794 368 794 551 m 595 368 q 552 557 595 498 q 428 616 509 616 q 254 368 254 616 q 297 181 254 245 q 419 117 339 117 q 595 368 595 117 m 427 911 q 346 884 380 911 q 302 806 312 857 l 196 806 q 269 957 208 903 q 427 1011 329 1011 q 585 957 524 1011 q 657 806 645 903 l 551 806 q 507 884 541 857 q 427 911 473 911 z "},"Ȑ":{"ha":1003,"x_min":90,"x_max":975,"o":"m 749 0 l 528 363 l 293 363 l 293 0 l 93 0 l 93 956 l 570 956 q 834 882 741 956 q 927 671 927 808 q 870 497 927 570 q 716 401 813 425 l 975 0 l 749 0 m 726 663 q 549 800 726 800 l 293 800 l 293 518 l 555 518 q 682 556 639 518 q 726 663 726 594 m 365 1213 l 365 1242 l 524 1242 l 677 1061 l 677 1038 l 581 1038 l 365 1213 m 90 1213 l 90 1242 l 249 1242 l 401 1061 l 401 1038 l 305 1038 l 90 1213 z "},"ȑ":{"ha":541,"x_min":-60,"x_max":528,"o":"m 97 0 l 97 562 q 95 662 97 622 q 92 734 94 703 l 273 734 q 279 660 275 722 q 282 577 282 597 l 285 577 q 334 686 313 654 q 386 733 356 718 q 460 748 416 748 q 519 738 497 748 l 519 578 q 438 589 473 589 q 327 531 367 589 q 288 360 288 473 l 288 0 l 97 0 m 216 977 l 216 1006 l 375 1006 l 528 826 l 528 803 l 431 803 l 216 977 m -60 977 l -60 1006 l 100 1006 l 252 826 l 252 803 l 156 803 l -60 977 z "},"Ȓ":{"ha":1003,"x_min":93,"x_max":975,"o":"m 749 0 l 528 363 l 293 363 l 293 0 l 93 0 l 93 956 l 570 956 q 834 882 741 956 q 927 671 927 808 q 870 497 927 570 q 716 401 813 425 l 975 0 l 749 0 m 726 663 q 549 800 726 800 l 293 800 l 293 518 l 555 518 q 682 556 639 518 q 726 663 726 594 m 485 1143 q 405 1116 439 1143 q 361 1038 370 1088 l 254 1038 q 327 1189 267 1135 q 485 1243 387 1243 q 643 1189 583 1243 q 715 1038 703 1135 l 609 1038 q 566 1116 600 1088 q 485 1143 532 1143 z "},"ȓ":{"ha":541,"x_min":73,"x_max":534,"o":"m 97 0 l 97 562 q 95 662 97 622 q 92 734 94 703 l 273 734 q 279 660 275 722 q 282 577 282 597 l 285 577 q 334 686 313 654 q 386 733 356 718 q 460 748 416 748 q 519 738 497 748 l 519 578 q 438 589 473 589 q 327 531 367 589 q 288 360 288 473 l 288 0 l 97 0 m 303 911 q 223 884 257 911 q 179 806 189 857 l 73 806 q 145 957 85 903 q 303 1011 205 1011 q 461 957 401 1011 q 534 806 522 903 l 427 806 q 384 884 418 857 q 303 911 350 911 z "},"Ȕ":{"ha":1003,"x_min":83,"x_max":918,"o":"m 490 -14 q 188 83 293 -14 q 83 358 83 179 l 83 956 l 283 956 l 283 374 q 337 202 283 260 q 496 143 391 143 q 661 204 603 143 q 718 380 718 266 l 718 956 l 918 956 l 918 368 q 806 86 918 186 q 490 -14 694 -14 m 406 1213 l 406 1242 l 565 1242 l 718 1061 l 718 1038 l 621 1038 l 406 1213 m 130 1213 l 130 1242 l 290 1242 l 442 1061 l 442 1038 l 346 1038 l 130 1213 z "},"ȕ":{"ha":848,"x_min":52,"x_max":757,"o":"m 277 734 l 277 322 q 407 129 277 129 q 518 188 476 129 q 561 340 561 248 l 561 734 l 751 734 l 751 164 q 757 0 751 71 l 575 0 q 567 146 567 98 l 564 146 q 467 24 526 62 q 328 -14 408 -14 q 149 58 211 -14 q 86 268 86 130 l 86 734 l 277 734 m 327 977 l 327 1006 l 486 1006 l 639 826 l 639 803 l 543 803 l 327 977 m 52 977 l 52 1006 l 211 1006 l 363 826 l 363 803 l 267 803 l 52 977 z "},"Ȗ":{"ha":1003,"x_min":83,"x_max":918,"o":"m 490 -14 q 188 83 293 -14 q 83 358 83 179 l 83 956 l 283 956 l 283 374 q 337 202 283 260 q 496 143 391 143 q 661 204 603 143 q 718 380 718 266 l 718 956 l 918 956 l 918 368 q 806 86 918 186 q 490 -14 694 -14 m 503 1143 q 422 1116 456 1143 q 378 1038 388 1088 l 272 1038 q 345 1189 284 1135 q 503 1243 405 1243 q 661 1189 600 1243 q 733 1038 721 1135 l 627 1038 q 583 1116 617 1088 q 503 1143 549 1143 z "},"ȗ":{"ha":848,"x_min":86,"x_max":757,"o":"m 277 734 l 277 322 q 407 129 277 129 q 518 188 476 129 q 561 340 561 248 l 561 734 l 751 734 l 751 164 q 757 0 751 71 l 575 0 q 567 146 567 98 l 564 146 q 467 24 526 62 q 328 -14 408 -14 q 149 58 211 -14 q 86 268 86 130 l 86 734 l 277 734 m 420 911 q 340 884 374 911 q 296 806 306 857 l 190 806 q 262 957 202 903 q 420 1011 323 1011 q 578 957 518 1011 q 651 806 639 903 l 545 806 q 501 884 535 857 q 420 911 467 911 z "},"Ș":{"ha":926,"x_min":40,"x_max":872,"o":"m 872 275 q 768 61 872 135 q 463 -14 664 -14 q 174 52 279 -14 q 40 249 70 117 l 233 281 q 310 171 253 205 q 468 136 367 136 q 677 264 677 136 q 653 331 677 304 q 586 375 629 357 q 418 418 542 393 q 269 458 311 443 q 193 494 227 473 q 135 544 159 515 q 98 612 111 573 q 85 703 85 652 q 182 901 85 832 q 465 970 279 970 q 732 914 643 970 q 847 730 821 859 l 653 704 q 592 797 638 766 q 461 828 547 828 q 279 714 279 828 q 299 653 279 677 q 356 613 318 629 q 510 571 394 596 q 707 517 648 542 q 801 459 766 492 q 854 381 836 427 q 872 275 872 335 m 568 -151 q 554 -240 568 -201 q 505 -321 539 -280 l 412 -321 q 475 -206 475 -254 l 402 -206 l 402 -66 l 568 -66 l 568 -151 z "},"ș":{"ha":772,"x_min":49,"x_max":715,"o":"m 715 214 q 628 47 715 108 q 387 -14 541 -14 q 156 34 236 -14 q 49 183 75 82 l 216 208 q 266 134 231 156 q 387 113 300 113 q 504 133 467 113 q 541 197 541 153 q 511 253 541 232 q 411 288 481 273 q 193 347 250 319 q 107 418 137 374 q 78 526 78 462 q 159 689 78 631 q 389 748 240 748 q 599 697 519 748 q 699 550 679 646 l 530 532 q 490 599 522 577 q 389 621 458 621 q 287 604 321 621 q 253 546 253 587 q 279 495 253 514 q 367 465 305 477 q 520 428 453 447 q 627 384 587 410 q 691 318 667 358 q 715 214 715 277 m 488 -151 q 474 -240 488 -201 q 425 -321 459 -280 l 332 -321 q 395 -206 395 -254 l 322 -206 l 322 -66 l 488 -66 l 488 -151 z "},"Ț":{"ha":848,"x_min":16,"x_max":833,"o":"m 524 801 l 524 0 l 324 0 l 324 801 l 16 801 l 16 956 l 833 956 l 833 801 l 524 801 m 505 -138 q 490 -228 505 -188 q 441 -309 475 -267 l 348 -309 q 412 -193 412 -241 l 338 -193 l 338 -53 l 505 -53 l 505 -138 z "},"ț":{"ha":463,"x_min":17,"x_max":446,"o":"m 285 -12 q 155 34 201 -12 q 110 172 110 79 l 110 605 l 17 605 l 17 734 l 119 734 l 179 906 l 298 906 l 298 734 l 437 734 l 437 605 l 298 605 l 298 224 q 319 145 298 170 q 382 119 339 119 q 446 129 404 119 l 446 11 q 285 -12 375 -12 m 358 -151 q 343 -240 358 -201 q 294 -321 329 -280 l 201 -321 q 265 -206 265 -254 l 192 -206 l 192 -66 l 358 -66 l 358 -151 z "},"Ȝ":{"ha":802,"x_min":14,"x_max":736,"o":"m 736 209 q 717 91 736 144 q 663 -8 698 37 q 577 -92 628 -54 q 461 -162 527 -130 q 312 -223 395 -195 q 61 -290 229 -252 l 61 -128 q 307 -55 224 -89 q 438 17 389 -21 q 514 103 488 56 q 541 208 541 150 q 530 298 541 256 q 501 365 519 340 q 360 301 456 337 q 61 206 264 265 l 61 359 q 279 431 186 397 q 427 495 371 465 q 508 563 484 525 q 532 660 532 601 q 485 771 532 730 q 360 812 438 812 q 149 699 233 812 l 14 793 q 168 926 81 882 q 373 970 256 970 q 565 935 483 970 q 692 834 648 900 q 736 683 736 768 q 718 571 736 615 q 644 471 699 528 q 714 355 692 420 q 736 209 736 291 z "},"ȝ":{"ha":722,"x_min":45,"x_max":673,"o":"m 488 502 q 452 590 488 557 q 350 623 416 623 q 254 593 294 623 q 201 507 215 564 l 45 543 q 146 693 62 640 q 358 747 230 747 q 589 682 506 747 q 673 500 673 617 q 651 390 673 434 q 584 309 629 346 q 649 228 625 281 q 673 105 673 174 q 636 -43 673 21 q 531 -155 599 -108 q 353 -236 464 -201 q 50 -292 241 -271 l 50 -145 q 286 -101 186 -135 q 434 -14 386 -68 q 481 111 481 39 q 472 175 481 144 q 446 225 462 207 q 50 130 331 178 l 50 275 q 182 299 126 288 q 275 319 239 310 q 374 352 312 329 q 463 410 437 376 q 488 502 488 445 z "},"Ȟ":{"ha":1003,"x_min":93,"x_max":909,"o":"m 709 0 l 709 410 l 293 410 l 293 0 l 93 0 l 93 956 l 293 956 l 293 575 l 709 575 l 709 956 l 909 956 l 909 0 l 709 0 m 583 1038 l 428 1038 l 253 1225 l 253 1244 l 361 1244 l 505 1141 l 507 1141 l 645 1244 l 753 1244 l 753 1225 l 583 1038 z "},"ȟ":{"ha":848,"x_min":97,"x_max":762,"o":"m 285 587 q 382 709 323 671 q 521 747 440 747 q 700 675 637 747 q 762 465 762 604 l 762 0 l 572 0 l 572 411 q 441 604 572 604 q 330 545 372 604 q 288 393 288 486 l 288 0 l 97 0 l 97 1006 l 288 1006 l 288 732 q 282 587 288 658 l 285 587 m 515 1058 l 360 1058 l 185 1245 l 185 1265 l 294 1265 l 437 1162 l 439 1162 l 577 1265 l 685 1265 l 685 1245 l 515 1058 z "},"Ƞ":{"ha":976,"x_min":95,"x_max":881,"o":"m 881 -288 l 684 -288 l 684 561 q 665 710 684 659 q 606 787 646 761 q 500 813 566 813 q 292 725 383 813 l 292 0 l 95 0 l 95 956 l 279 956 l 279 867 q 400 942 330 915 q 546 970 470 970 q 881 628 881 970 l 881 -288 z "},"ȡ":{"ha":1163,"x_min":57,"x_max":1168,"o":"m 751 75 q 927 130 829 130 q 1105 74 1041 130 q 1168 -77 1168 17 q 1098 -231 1168 -174 q 912 -288 1028 -288 q 781 -267 843 -288 q 652 -193 718 -245 l 576 -284 l 463 -182 q 581 -46 492 -138 q 562 90 562 4 l 562 119 l 559 119 q 325 -14 498 -14 q 127 86 197 -14 q 57 366 57 186 q 131 648 57 549 q 339 747 204 747 q 474 715 417 747 q 561 618 530 682 l 562 618 l 561 739 l 561 1006 l 751 1006 l 751 75 m 564 371 q 524 554 564 490 q 407 618 484 618 q 293 556 330 618 q 256 366 256 494 q 406 117 256 117 q 522 183 481 117 q 564 371 564 249 m 1008 -81 q 983 -27 1008 -47 q 916 -8 958 -8 q 835 -25 876 -8 q 770 -73 795 -43 q 824 -131 782 -107 q 915 -155 865 -155 q 983 -136 958 -155 q 1008 -81 1008 -117 z "},"Ȣ":{"ha":876,"x_min":66,"x_max":812,"o":"m 393 785 q 310 761 337 785 q 283 686 283 737 q 438 568 283 568 q 554 600 515 568 q 593 705 593 631 q 565 805 593 775 q 479 835 536 835 l 479 969 q 708 903 628 969 q 789 715 789 838 q 629 504 789 557 l 629 501 q 767 422 722 481 q 812 269 812 363 q 715 60 812 134 q 439 -14 618 -14 q 163 61 260 -14 q 66 268 66 136 q 113 420 66 360 q 247 500 159 481 l 247 503 q 127 579 165 527 q 88 700 88 631 q 169 862 88 803 q 393 920 249 920 l 393 785 m 615 285 q 435 435 615 435 q 306 396 351 435 q 262 282 262 357 q 306 160 262 199 q 441 121 350 121 q 573 159 531 121 q 615 285 615 198 z "},"ȣ":{"ha":876,"x_min":57,"x_max":812,"o":"m 435 -14 q 158 64 258 -14 q 57 279 57 142 q 104 439 57 375 q 241 522 151 503 l 241 524 q 122 614 163 556 q 81 748 81 671 q 283 1010 81 923 l 355 907 q 292 835 309 869 q 275 751 275 801 q 317 627 275 665 q 438 589 359 589 q 554 627 514 589 q 595 751 595 665 q 578 835 595 800 q 515 907 561 869 l 587 1010 q 789 748 789 923 q 748 614 789 671 q 629 524 707 556 l 629 522 q 765 439 718 503 q 812 279 812 375 q 711 64 812 142 q 435 -14 610 -14 m 435 121 q 615 295 615 121 q 569 415 615 374 q 435 455 523 455 q 301 415 347 455 q 254 295 254 375 q 435 121 254 121 z "},"Ȥ":{"ha":848,"x_min":41,"x_max":823,"o":"m 596 157 q 762 108 701 157 q 823 -31 823 59 q 794 -188 823 -102 l 640 -165 q 661 -75 661 -109 q 571 0 661 0 l 41 0 l 41 142 l 558 799 l 93 799 l 93 956 l 781 956 l 781 817 l 264 157 l 596 157 z "},"ȥ":{"ha":694,"x_min":46,"x_max":673,"o":"m 46 0 l 46 135 l 412 596 l 74 596 l 74 734 l 623 734 l 623 597 l 258 138 l 447 138 q 673 -31 673 138 q 650 -188 673 -102 l 500 -165 q 521 -75 521 -109 q 431 0 521 0 l 46 0 z "},"Ȧ":{"ha":1003,"x_min":35,"x_max":966,"o":"m 768 0 l 684 244 l 319 244 l 235 0 l 35 0 l 383 956 l 619 956 l 966 0 l 768 0 m 501 808 l 497 793 q 481 738 490 769 q 364 395 471 707 l 639 395 l 545 669 l 515 762 l 501 808 m 399 1049 l 399 1190 l 589 1190 l 589 1049 l 399 1049 z "},"ȧ":{"ha":772,"x_min":41,"x_max":781,"o":"m 267 -14 q 100 44 160 -14 q 41 208 41 102 q 115 381 41 321 q 330 442 189 441 l 488 445 l 488 482 q 463 589 488 554 q 381 624 438 624 q 303 600 328 624 q 273 520 279 576 l 74 530 q 172 692 92 637 q 389 747 252 747 q 604 679 528 747 q 679 484 679 610 l 679 217 q 693 132 679 155 q 739 109 707 109 q 781 113 761 109 l 781 9 q 751 2 764 5 q 724 -3 737 -1 q 695 -7 710 -5 q 659 -8 680 -8 q 553 27 587 -8 q 512 131 519 62 l 508 131 q 267 -14 428 -14 m 488 340 l 391 338 q 296 324 324 336 q 254 288 269 312 q 239 222 239 263 q 263 145 239 170 q 328 119 288 119 q 409 144 372 119 q 467 211 446 168 q 488 302 488 254 l 488 340 m 293 866 l 293 1006 l 484 1006 l 484 866 l 293 866 z "},"Ȩ":{"ha":926,"x_min":93,"x_max":872,"o":"m 93 0 l 93 956 l 844 956 l 844 801 l 293 801 l 293 561 l 803 561 l 803 406 l 293 406 l 293 155 l 872 155 l 872 0 l 93 0 m 635 -159 q 582 -256 635 -223 q 429 -288 529 -288 q 361 -284 399 -288 l 361 -204 q 418 -209 385 -209 q 511 -162 511 -209 q 492 -127 511 -138 q 428 -115 473 -115 q 393 -117 402 -115 l 435 0 l 532 0 l 509 -56 q 604 -87 573 -59 q 635 -159 635 -115 z "},"ȩ":{"ha":772,"x_min":54,"x_max":725,"o":"m 397 -14 q 143 84 232 -14 q 54 370 54 182 q 144 650 54 552 q 400 747 235 747 q 642 643 558 747 q 725 336 725 538 l 725 330 l 254 330 q 294 169 254 223 q 407 114 334 114 q 534 201 508 114 l 714 186 q 397 -14 636 -14 m 397 627 q 294 581 330 627 q 256 450 258 534 l 541 450 q 498 583 535 538 q 397 627 460 627 m 563 -159 q 510 -256 563 -223 q 357 -288 457 -288 q 289 -284 327 -288 l 289 -204 q 346 -209 313 -209 q 439 -162 439 -209 q 420 -127 439 -138 q 356 -115 401 -115 q 321 -117 330 -115 l 363 0 l 460 0 l 437 -56 q 532 -87 501 -59 q 563 -159 563 -115 z "},"Ȫ":{"ha":1080,"x_min":57,"x_max":1022,"o":"m 1022 482 q 963 220 1022 333 q 794 46 904 106 q 538 -14 684 -14 q 185 119 313 -14 q 57 482 57 252 q 184 841 57 712 q 539 970 312 970 q 894 840 766 970 q 1022 482 1022 709 m 818 482 q 745 725 818 637 q 539 812 671 812 q 332 725 405 812 q 258 482 258 638 q 333 234 258 325 q 538 144 408 144 q 745 232 672 144 q 818 482 818 320 m 721 994 l 612 994 l 612 1097 l 721 1097 l 721 994 m 473 994 l 364 994 l 364 1097 l 473 1097 l 473 994 m 335 1244 l 750 1244 l 750 1151 l 335 1151 l 335 1244 z "},"ȫ":{"ha":848,"x_min":54,"x_max":794,"o":"m 794 368 q 695 88 794 189 q 421 -14 596 -14 q 152 88 250 -14 q 54 368 54 190 q 152 646 54 545 q 425 747 250 747 q 700 649 605 747 q 794 368 794 551 m 595 368 q 552 557 595 498 q 428 616 509 616 q 254 368 254 616 q 297 181 254 245 q 419 117 339 117 q 595 368 595 117 m 502 813 l 502 962 l 649 962 l 649 813 l 502 813 m 208 813 l 208 962 l 353 962 l 353 813 l 208 813 m 216 1139 l 631 1139 l 631 1025 l 216 1025 l 216 1139 z "},"Ȭ":{"ha":1080,"x_min":57,"x_max":1022,"o":"m 1022 482 q 963 220 1022 333 q 794 46 904 106 q 538 -14 684 -14 q 185 119 313 -14 q 57 482 57 252 q 184 841 57 712 q 539 970 312 970 q 894 840 766 970 q 1022 482 1022 709 m 818 482 q 745 725 818 637 q 539 812 671 812 q 332 725 405 812 q 258 482 258 638 q 333 234 258 325 q 538 144 408 144 q 745 232 672 144 q 818 482 818 320 m 328 1244 l 743 1244 l 743 1151 l 328 1151 l 328 1244 m 621 991 q 530 1017 587 991 q 448 1042 472 1042 q 402 1030 417 1042 q 381 991 387 1018 l 319 991 q 341 1071 327 1046 q 382 1109 356 1095 q 450 1122 408 1122 q 544 1097 488 1122 q 623 1072 600 1072 q 670 1084 656 1072 q 689 1122 685 1097 l 751 1122 q 729 1042 743 1067 q 689 1004 715 1017 q 621 991 664 991 z "},"ȭ":{"ha":848,"x_min":54,"x_max":794,"o":"m 794 368 q 695 88 794 189 q 421 -14 596 -14 q 152 88 250 -14 q 54 368 54 190 q 152 646 54 545 q 425 747 250 747 q 700 649 605 747 q 794 368 794 551 m 595 368 q 552 557 595 498 q 428 616 509 616 q 254 368 254 616 q 297 181 254 245 q 419 117 339 117 q 595 368 595 117 m 522 798 q 468 810 495 798 q 415 836 441 822 q 366 862 389 850 q 325 873 343 873 q 286 858 300 873 q 265 798 272 842 l 181 798 q 201 902 186 867 q 244 957 216 937 q 319 977 273 977 q 374 966 347 977 q 428 940 402 954 q 476 914 453 926 q 516 903 498 903 q 558 922 546 903 q 576 977 570 942 l 659 977 q 641 875 656 911 q 597 819 626 840 q 522 798 569 798 m 216 1139 l 631 1139 l 631 1025 l 216 1025 l 216 1139 z "},"Ȯ":{"ha":1080,"x_min":57,"x_max":1022,"o":"m 1022 482 q 963 220 1022 333 q 794 46 904 106 q 538 -14 684 -14 q 185 119 313 -14 q 57 482 57 252 q 184 841 57 712 q 539 970 312 970 q 894 840 766 970 q 1022 482 1022 709 m 818 482 q 745 725 818 637 q 539 812 671 812 q 332 725 405 812 q 258 482 258 638 q 333 234 258 325 q 538 144 408 144 q 745 232 672 144 q 818 482 818 320 m 444 1049 l 444 1190 l 635 1190 l 635 1049 l 444 1049 z "},"ȯ":{"ha":848,"x_min":54,"x_max":794,"o":"m 794 368 q 695 88 794 189 q 421 -14 596 -14 q 152 88 250 -14 q 54 368 54 190 q 152 646 54 545 q 425 747 250 747 q 700 649 605 747 q 794 368 794 551 m 595 368 q 552 557 595 498 q 428 616 509 616 q 254 368 254 616 q 297 181 254 245 q 419 117 339 117 q 595 368 595 117 m 326 866 l 326 1006 l 517 1006 l 517 866 l 326 866 z "},"Ȱ":{"ha":1080,"x_min":57,"x_max":1022,"o":"m 1022 482 q 963 220 1022 333 q 794 46 904 106 q 538 -14 684 -14 q 185 119 313 -14 q 57 482 57 252 q 184 841 57 712 q 539 970 312 970 q 894 840 766 970 q 1022 482 1022 709 m 818 482 q 745 725 818 637 q 539 812 671 812 q 332 725 405 812 q 258 482 258 638 q 333 234 258 325 q 538 144 408 144 q 745 232 672 144 q 818 482 818 320 m 596 994 l 488 994 l 488 1097 l 596 1097 l 596 994 m 335 1244 l 750 1244 l 750 1151 l 335 1151 l 335 1244 z "},"ȱ":{"ha":848,"x_min":54,"x_max":794,"o":"m 794 368 q 695 88 794 189 q 421 -14 596 -14 q 152 88 250 -14 q 54 368 54 190 q 152 646 54 545 q 425 747 250 747 q 700 649 605 747 q 794 368 794 551 m 595 368 q 552 557 595 498 q 428 616 509 616 q 254 368 254 616 q 297 181 254 245 q 419 117 339 117 q 595 368 595 117 m 332 829 l 332 969 l 523 969 l 523 829 l 332 829 m 216 1139 l 631 1139 l 631 1025 l 216 1025 l 216 1139 z "},"Ȳ":{"ha":926,"x_min":24,"x_max":904,"o":"m 564 392 l 564 0 l 364 0 l 364 392 l 24 956 l 233 956 l 463 551 l 694 956 l 904 956 l 564 392 m 256 1149 l 671 1149 l 671 1035 l 256 1035 l 256 1149 z "},"ȳ":{"ha":772,"x_min":11,"x_max":765,"o":"m 192 -288 q 72 -279 123 -288 l 72 -144 q 138 -149 108 -149 q 205 -136 178 -149 q 253 -94 232 -123 q 301 7 275 -64 l 11 734 l 212 734 l 328 390 q 396 163 355 316 l 413 228 l 457 387 l 566 734 l 765 734 l 475 -39 q 354 -234 416 -180 q 192 -288 291 -288 m 181 930 l 596 930 l 596 816 l 181 816 l 181 930 z "},"ȴ":{"ha":693,"x_min":-1,"x_max":705,"o":"m 288 1006 l 288 75 q 463 130 366 130 q 641 74 577 130 q 705 -77 705 17 q 634 -231 705 -174 q 448 -288 564 -288 q 317 -267 379 -288 q 189 -193 254 -245 l 113 -284 l -1 -182 q 116 -46 32 -134 q 97 90 97 4 l 97 1006 l 288 1006 m 545 -81 q 519 -27 545 -47 q 452 -8 494 -8 q 371 -25 412 -8 q 307 -73 331 -43 q 360 -131 318 -107 q 451 -155 401 -155 q 519 -136 494 -155 q 545 -81 545 -117 z "},"ȵ":{"ha":1158,"x_min":92,"x_max":1166,"o":"m 572 412 q 441 605 572 605 q 330 546 372 605 q 288 393 288 486 l 288 0 l 97 0 l 97 570 q 92 734 97 663 l 273 734 q 279 665 275 721 q 282 588 282 609 l 285 588 q 382 710 323 672 q 521 748 440 748 q 700 676 637 748 q 762 466 762 604 l 762 78 q 840 118 802 106 q 924 130 878 130 q 1102 74 1038 130 q 1166 -77 1166 17 q 1096 -231 1166 -174 q 909 -288 1025 -288 q 824 -279 862 -288 q 752 -253 785 -269 q 663 -193 719 -237 l 587 -284 l 473 -182 q 591 -46 507 -134 q 572 90 572 2 l 572 412 m 1006 -81 q 980 -27 1006 -47 q 913 -8 955 -8 q 781 -73 834 -8 q 830 -133 793 -110 q 912 -155 866 -155 q 980 -136 955 -155 q 1006 -81 1006 -117 z "},"ȶ":{"ha":703,"x_min":10,"x_max":703,"o":"m 298 367 q 380 409 340 397 q 477 422 421 422 q 642 365 582 422 q 703 214 703 307 q 635 61 703 119 q 463 3 568 3 q 367 13 409 3 q 289 39 324 22 q 200 98 254 56 l 124 7 l 10 110 q 127 245 43 158 q 110 357 110 292 l 110 605 l 17 605 l 17 734 l 119 734 l 179 906 l 298 906 l 298 734 l 437 734 l 437 605 l 298 605 l 298 367 m 543 210 q 519 264 543 245 q 461 283 495 283 q 318 219 371 283 q 368 159 330 182 q 459 136 405 136 q 519 156 495 136 q 543 210 543 176 z "},"ȷ":{"ha":386,"x_min":-22,"x_max":288,"o":"m 94 -288 q -22 -282 26 -288 l -22 -148 l 13 -151 q 80 -129 62 -151 q 98 -41 98 -108 l 98 734 l 288 734 l 288 -87 q 239 -236 288 -184 q 94 -288 190 -288 z "},"ȸ":{"ha":1324,"x_min":63,"x_max":1261,"o":"m 1261 370 q 1188 87 1261 188 q 980 -14 1116 -14 q 840 21 900 -14 q 752 118 781 56 l 751 118 l 751 0 l 574 0 l 574 119 l 571 119 q 482 21 542 56 q 331 -14 422 -14 q 133 86 203 -14 q 63 366 63 186 q 137 648 63 549 q 345 747 210 747 q 480 715 423 747 q 567 618 536 682 l 568 618 l 567 739 l 567 1006 l 758 1006 l 758 726 l 755 606 l 758 606 q 992 747 822 747 q 1192 649 1122 747 q 1261 370 1261 550 m 570 371 q 530 554 570 490 q 413 618 490 618 q 299 556 336 618 q 262 366 262 494 q 412 117 262 117 q 528 183 487 117 q 570 371 570 249 m 1063 370 q 1026 555 1063 494 q 913 615 989 615 q 795 550 836 615 q 755 363 755 486 q 794 182 755 247 q 911 117 834 117 q 1063 370 1063 117 z "},"ȹ":{"ha":1324,"x_min":57,"x_max":1256,"o":"m 57 366 q 131 648 57 548 q 340 748 205 748 q 481 713 423 748 q 569 616 540 678 l 570 734 l 745 734 l 745 614 q 837 714 776 680 q 987 749 898 749 q 1185 651 1114 749 q 1256 370 1256 553 q 1182 86 1256 186 q 975 -14 1109 -14 q 838 21 896 -14 q 752 117 780 56 l 748 117 q 752 -7 752 96 l 752 -288 l 562 -288 l 562 17 q 566 122 562 81 l 564 122 q 325 -14 501 -14 q 127 86 197 -14 q 57 366 57 186 m 1057 370 q 906 617 1057 617 q 790 551 830 617 q 749 365 749 484 q 789 181 749 246 q 905 117 829 117 q 1057 370 1057 117 m 564 370 q 524 552 564 488 q 408 617 485 617 q 256 366 256 617 q 407 117 256 117 q 523 183 481 117 q 564 370 564 249 z "},"Ⱥ":{"ha":1003,"x_min":35,"x_max":966,"o":"m 768 0 l 684 244 l 467 244 l 315 -37 l 205 -37 l 224 0 l 35 0 l 383 956 l 619 956 l 667 823 l 766 1006 l 877 1006 l 712 700 l 966 0 l 768 0 m 364 395 l 437 395 l 560 624 l 545 669 l 515 762 l 501 808 l 497 793 q 481 738 490 769 q 364 395 471 707 m 603 498 l 547 395 l 639 395 l 603 498 m 253 53 l 355 244 l 319 244 l 253 53 z "},"Ȼ":{"ha":1003,"x_min":57,"x_max":965,"o":"m 539 144 q 688 186 625 144 q 791 326 751 229 l 965 260 q 801 55 910 123 q 539 -14 692 -14 q 317 26 412 -14 l 281 -37 l 171 -37 l 233 73 q 100 244 143 138 q 57 482 57 350 q 178 844 57 718 q 530 970 300 970 q 728 939 644 970 l 766 1006 l 877 1006 l 814 896 q 953 704 911 829 l 777 656 q 725 741 760 706 l 401 174 q 539 144 458 144 m 258 482 q 326 235 258 323 l 644 793 q 534 812 595 812 q 329 728 399 812 q 258 482 258 644 z "},"ȼ":{"ha":772,"x_min":6,"x_max":748,"o":"m 403 -14 q 262 9 325 -14 l 117 -288 l 6 -288 l 175 58 q 54 363 54 154 q 146 646 54 545 q 406 747 237 747 q 505 736 459 747 l 637 1006 l 748 1006 l 597 698 q 726 503 702 632 l 534 493 q 521 541 531 517 l 326 141 q 404 117 357 117 q 495 151 458 117 q 541 253 532 185 l 732 244 q 678 110 722 169 q 564 19 635 51 q 403 -14 494 -14 m 254 370 q 267 246 254 298 l 444 610 q 401 616 425 616 q 254 370 254 616 z "},"Ƚ":{"ha":848,"x_min":7,"x_max":806,"o":"m 93 0 l 93 443 l 7 443 l 7 581 l 93 581 l 93 956 l 293 956 l 293 581 l 541 581 l 541 443 l 293 443 l 293 155 l 806 155 l 806 0 l 93 0 z "}}}
